<ttFont>
    <TTGlyph name=".notdef" xMin="29" yMin="0" xMax="664" yMax="660">
      <contour>
        <pt x="159" y="660" on="1"/>
        <pt x="664" y="660" on="1"/>
        <pt x="534" y="0" on="1"/>
        <pt x="29" y="0" on="1"/>
      </contour>
      <contour>
        <pt x="228" y="533" on="1"/>
        <pt x="150" y="146" on="1"/>
        <pt x="282" y="340" on="1"/>
      </contour>
      <contour>
        <pt x="470" y="146" on="1"/>
        <pt x="549" y="533" on="1"/>
        <pt x="416" y="340" on="1"/>
      </contour>
      <contour>
        <pt x="216" y="86" on="1"/>
        <pt x="379" y="86" on="1"/>
        <pt x="357" y="172" on="1"/>
        <pt x="337" y="269" on="1"/>
        <pt x="333" y="269" on="1"/>
        <pt x="274" y="172" on="1"/>
      </contour>
      <contour>
        <pt x="426" y="504" on="1"/>
        <pt x="471" y="574" on="1"/>
        <pt x="319" y="574" on="1"/>
        <pt x="339" y="504" on="1"/>
        <pt x="361" y="408" on="1"/>
        <pt x="365" y="408" on="1"/>
      </contour>
    </TTGlyph>
    <TTGlyph name="A" xMin="-62" yMin="0" xMax="511" yMax="652">
      <contour>
        <pt x="355" y="267" on="1"/>
        <pt x="351" y="353" on="1"/>
        <pt x="349" y="401" on="0"/>
        <pt x="345" y="495" on="0"/>
        <pt x="343" y="547" on="1"/>
        <pt x="339" y="547" on="1"/>
        <pt x="318" y="496" on="0"/>
        <pt x="278" y="402" on="0"/>
        <pt x="255" y="353" on="1"/>
        <pt x="215" y="267" on="1"/>
      </contour>
      <contour>
        <pt x="360" y="164" on="1"/>
        <pt x="166" y="164" on="1"/>
        <pt x="89" y="0" on="1"/>
        <pt x="-62" y="0" on="1"/>
        <pt x="282" y="652" on="1"/>
        <pt x="446" y="652" on="1"/>
        <pt x="511" y="0" on="1"/>
        <pt x="368" y="0" on="1"/>
      </contour>
    </TTGlyph>
    <TTGlyph name="AE" xMin="-35" yMin="0" xMax="857" yMax="652">
      <contour>
        <pt x="401" y="262" on="1"/>
        <pt x="459" y="553" on="1"/>
        <pt x="456" y="553" on="1"/>
        <pt x="426" y="504" on="0"/>
        <pt x="369" y="414" on="0"/>
        <pt x="340" y="366" on="1"/>
        <pt x="277" y="262" on="1"/>
      </contour>
      <contour>
        <pt x="592" y="537" on="1"/>
        <pt x="565" y="395" on="1"/>
        <pt x="769" y="395" on="1"/>
        <pt x="746" y="280" on="1"/>
        <pt x="543" y="280" on="1"/>
        <pt x="508" y="115" on="1"/>
        <pt x="759" y="115" on="1"/>
        <pt x="736" y="0" on="1"/>
        <pt x="349" y="0" on="1"/>
        <pt x="380" y="155" on="1"/>
        <pt x="213" y="155" on="1"/>
        <pt x="119" y="0" on="1"/>
        <pt x="-35" y="0" on="1"/>
        <pt x="387" y="652" on="1"/>
        <pt x="857" y="652" on="1"/>
        <pt x="834" y="537" on="1"/>
      </contour>
    </TTGlyph>
    <TTGlyph name="Aacute" xMin="-62" yMin="0" xMax="536" yMax="820">
      <component glyphName="A" x="0" y="0" flags="0x204"/>
      <component glyphName="uni0301.cap" x="238" y="0" flags="0x4"/>
    </TTGlyph>
    <TTGlyph name="Abreve" xMin="-62" yMin="0" xMax="512" yMax="820">
      <component glyphName="A" x="0" y="0" flags="0x204"/>
      <component glyphName="uni0306.cap" x="238" y="0" flags="0x4"/>
    </TTGlyph>
    <TTGlyph name="Acircumflex" xMin="-62" yMin="0" xMax="517" yMax="820">
      <component glyphName="A" x="0" y="0" flags="0x204"/>
      <component glyphName="uni0302.cap" x="238" y="0" flags="0x4"/>
    </TTGlyph>
    <TTGlyph name="Adieresis" xMin="-62" yMin="0" xMax="533" yMax="834">
      <component glyphName="A" x="0" y="0" flags="0x204"/>
      <component glyphName="uni0308.cap" x="238" y="0" flags="0x4"/>
    </TTGlyph>
    <TTGlyph name="Agrave" xMin="-62" yMin="0" xMax="511" yMax="820">
      <component glyphName="A" x="0" y="0" flags="0x204"/>
      <component glyphName="uni0300.cap" x="238" y="0" flags="0x4"/>
    </TTGlyph>
    <TTGlyph name="Amacron" xMin="-62" yMin="0" xMax="514" yMax="808">
      <component glyphName="A" x="0" y="0" flags="0x204"/>
      <component glyphName="uni0304.cap" x="238" y="0" flags="0x4"/>
    </TTGlyph>
    <TTGlyph name="Aogonek" xMin="-62" yMin="-222" xMax="511" yMax="652">
      <contour>
        <pt x="355" y="267" on="1"/>
        <pt x="351" y="353" on="1"/>
        <pt x="349" y="401" on="0"/>
        <pt x="345" y="495" on="0"/>
        <pt x="343" y="547" on="1"/>
        <pt x="339" y="547" on="1"/>
        <pt x="318" y="496" on="0"/>
        <pt x="278" y="402" on="0"/>
        <pt x="255" y="353" on="1"/>
        <pt x="215" y="267" on="1"/>
      </contour>
      <contour>
        <pt x="511" y="0" on="1"/>
        <pt x="452" y="-23" on="0"/>
        <pt x="406" y="-78" on="0"/>
        <pt x="406" y="-101" on="1"/>
        <pt x="406" y="-117" on="0"/>
        <pt x="427" y="-133" on="0"/>
        <pt x="441" y="-133" on="1"/>
        <pt x="448" y="-133" on="0"/>
        <pt x="460" y="-129" on="0"/>
        <pt x="468" y="-124" on="1"/>
        <pt x="495" y="-191" on="1"/>
        <pt x="474" y="-205" on="0"/>
        <pt x="416" y="-222" on="0"/>
        <pt x="391" y="-222" on="1"/>
        <pt x="350" y="-222" on="0"/>
        <pt x="299" y="-182" on="0"/>
        <pt x="299" y="-145" on="1"/>
        <pt x="299" y="-121" on="0"/>
        <pt x="319" y="-77" on="0"/>
        <pt x="347" y="-39" on="0"/>
        <pt x="380" y="-10" on="0"/>
        <pt x="394" y="0" on="1"/>
        <pt x="368" y="0" on="1"/>
        <pt x="360" y="164" on="1"/>
        <pt x="166" y="164" on="1"/>
        <pt x="89" y="0" on="1"/>
        <pt x="-62" y="0" on="1"/>
        <pt x="282" y="652" on="1"/>
        <pt x="446" y="652" on="1"/>
      </contour>
    </TTGlyph>
    <TTGlyph name="Aring" xMin="-62" yMin="0" xMax="511" yMax="892">
      <component glyphName="A" x="0" y="0" flags="0x204"/>
      <component glyphName="uni030A.cap" x="238" y="0" flags="0x4"/>
    </TTGlyph>
    <TTGlyph name="Atilde" xMin="-62" yMin="0" xMax="546" yMax="833">
      <component glyphName="A" x="0" y="0" flags="0x204"/>
      <component glyphName="uni0303.cap" x="238" y="0" flags="0x4"/>
    </TTGlyph>
    <TTGlyph name="B" xMin="28" yMin="0" xMax="577" yMax="652">
      <contour>
        <pt x="159" y="652" on="1"/>
        <pt x="358" y="652" on="1"/>
        <pt x="407" y="652" on="0"/>
        <pt x="487" y="634" on="0"/>
        <pt x="545" y="598" on="0"/>
        <pt x="577" y="542" on="0"/>
        <pt x="577" y="503" on="1"/>
        <pt x="577" y="446" on="0"/>
        <pt x="500" y="359" on="0"/>
        <pt x="436" y="340" on="1"/>
        <pt x="434" y="336" on="1"/>
        <pt x="488" y="323" on="0"/>
        <pt x="547" y="262" on="0"/>
        <pt x="547" y="214" on="1"/>
        <pt x="547" y="157" on="0"/>
        <pt x="502" y="75" on="0"/>
        <pt x="425" y="24" on="0"/>
        <pt x="322" y="0" on="0"/>
        <pt x="265" y="0" on="1"/>
        <pt x="28" y="0" on="1"/>
      </contour>
      <contour>
        <pt x="308" y="385" on="1"/>
        <pt x="377" y="385" on="0"/>
        <pt x="437" y="437" on="0"/>
        <pt x="437" y="480" on="1"/>
        <pt x="437" y="512" on="0"/>
        <pt x="387" y="547" on="0"/>
        <pt x="333" y="547" on="1"/>
        <pt x="275" y="547" on="1"/>
        <pt x="243" y="385" on="1"/>
      </contour>
      <contour>
        <pt x="271" y="105" on="1"/>
        <pt x="341" y="105" on="0"/>
        <pt x="415" y="158" on="0"/>
        <pt x="415" y="209" on="1"/>
        <pt x="415" y="249" on="0"/>
        <pt x="363" y="292" on="0"/>
        <pt x="309" y="292" on="1"/>
        <pt x="224" y="292" on="1"/>
        <pt x="186" y="105" on="1"/>
      </contour>
    </TTGlyph>
    <TTGlyph name="C" xMin="56" yMin="-12" xMax="577" yMax="664">
      <contour>
        <pt x="56" y="261" on="1"/>
        <pt x="56" y="345" on="0"/>
        <pt x="110" y="492" on="0"/>
        <pt x="203" y="601" on="0"/>
        <pt x="330" y="664" on="0"/>
        <pt x="403" y="664" on="1"/>
        <pt x="460" y="664" on="0"/>
        <pt x="549" y="609" on="0"/>
        <pt x="577" y="560" on="1"/>
        <pt x="483" y="488" on="1"/>
        <pt x="465" y="517" on="0"/>
        <pt x="423" y="545" on="0"/>
        <pt x="396" y="545" on="1"/>
        <pt x="354" y="545" on="0"/>
        <pt x="282" y="500" on="0"/>
        <pt x="228" y="424" on="0"/>
        <pt x="197" y="324" on="0"/>
        <pt x="197" y="270" on="1"/>
        <pt x="197" y="194" on="0"/>
        <pt x="261" y="106" on="0"/>
        <pt x="333" y="106" on="1"/>
        <pt x="362" y="106" on="0"/>
        <pt x="418" y="134" on="0"/>
        <pt x="444" y="156" on="1"/>
        <pt x="501" y="68" on="1"/>
        <pt x="486" y="54" on="0"/>
        <pt x="446" y="26" on="0"/>
        <pt x="396" y="3" on="0"/>
        <pt x="337" y="-12" on="0"/>
        <pt x="304" y="-12" on="1"/>
        <pt x="247" y="-12" on="0"/>
        <pt x="156" y="25" on="0"/>
        <pt x="91" y="96" on="0"/>
        <pt x="56" y="197" on="0"/>
      </contour>
    </TTGlyph>
    <TTGlyph name="Cacute" xMin="56" yMin="-12" xMax="604" yMax="820">
      <component glyphName="C" x="0" y="0" flags="0x204"/>
      <component glyphName="uni0301.cap" x="306" y="0" flags="0x4"/>
    </TTGlyph>
    <TTGlyph name="Ccaron" xMin="56" yMin="-12" xMax="609" yMax="820">
      <component glyphName="C" x="0" y="0" flags="0x204"/>
      <component glyphName="uni030C.cap" x="306" y="0" flags="0x4"/>
    </TTGlyph>
    <TTGlyph name="Ccedilla" xMin="56" yMin="-220" xMax="577" yMax="664">
      <component glyphName="C" x="0" y="0" flags="0x204"/>
      <component glyphName="uni0327.cap" x="290" y="0" flags="0x4"/>
    </TTGlyph>
    <TTGlyph name="Ccircumflex" xMin="56" yMin="-12" xMax="585" yMax="820">
      <component glyphName="C" x="0" y="0" flags="0x204"/>
      <component glyphName="uni0302.cap" x="306" y="0" flags="0x4"/>
    </TTGlyph>
    <TTGlyph name="Cdotaccent" xMin="56" yMin="-12" xMax="577" yMax="850">
      <component glyphName="C" x="0" y="0" flags="0x204"/>
      <component glyphName="uni0307.cap" x="306" y="0" flags="0x4"/>
    </TTGlyph>
    <TTGlyph name="D" xMin="28" yMin="0" xMax="590" yMax="652">
      <contour>
        <pt x="159" y="652" on="1"/>
        <pt x="302" y="652" on="1"/>
        <pt x="439" y="652" on="0"/>
        <pt x="590" y="526" on="0"/>
        <pt x="590" y="396" on="1"/>
        <pt x="590" y="300" on="0"/>
        <pt x="537" y="152" on="0"/>
        <pt x="442" y="51" on="0"/>
        <pt x="310" y="0" on="0"/>
        <pt x="232" y="0" on="1"/>
        <pt x="28" y="0" on="1"/>
      </contour>
      <contour>
        <pt x="229" y="110" on="1"/>
        <pt x="276" y="110" on="0"/>
        <pt x="357" y="143" on="0"/>
        <pt x="416" y="211" on="0"/>
        <pt x="450" y="316" on="0"/>
        <pt x="450" y="387" on="1"/>
        <pt x="450" y="468" on="0"/>
        <pt x="368" y="542" on="0"/>
        <pt x="299" y="542" on="1"/>
        <pt x="273" y="542" on="1"/>
        <pt x="188" y="110" on="1"/>
      </contour>
    </TTGlyph>
    <TTGlyph name="Dcaron" xMin="28" yMin="0" xMax="590" yMax="820">
      <component glyphName="D" x="0" y="0" flags="0x204"/>
      <component glyphName="uni030C.cap" x="267" y="0" flags="0x4"/>
    </TTGlyph>
    <TTGlyph name="Dcroat" xMin="38" yMin="0" xMax="608" yMax="652">
      <component glyphName="Eth" x="0" y="0" flags="0x204"/>
    </TTGlyph>
    <TTGlyph name="E" xMin="28" yMin="0" xMax="545" yMax="652">
      <contour>
        <pt x="159" y="652" on="1"/>
        <pt x="545" y="652" on="1"/>
        <pt x="523" y="537" on="1"/>
        <pt x="272" y="537" on="1"/>
        <pt x="244" y="395" on="1"/>
        <pt x="457" y="395" on="1"/>
        <pt x="435" y="280" on="1"/>
        <pt x="222" y="280" on="1"/>
        <pt x="188" y="115" on="1"/>
        <pt x="447" y="115" on="1"/>
        <pt x="425" y="0" on="1"/>
        <pt x="28" y="0" on="1"/>
      </contour>
    </TTGlyph>
    <TTGlyph name="Eacute" xMin="28" yMin="0" xMax="545" yMax="820">
      <component glyphName="E" x="0" y="0" flags="0x204"/>
      <component glyphName="uni0301.cap" x="240" y="0" flags="0x4"/>
    </TTGlyph>
    <TTGlyph name="Ebreve" xMin="28" yMin="0" xMax="545" yMax="820">
      <component glyphName="E" x="0" y="0" flags="0x204"/>
      <component glyphName="uni0306.cap" x="240" y="0" flags="0x4"/>
    </TTGlyph>
    <TTGlyph name="Ecaron" xMin="28" yMin="0" xMax="545" yMax="820">
      <component glyphName="E" x="0" y="0" flags="0x204"/>
      <component glyphName="uni030C.cap" x="240" y="0" flags="0x4"/>
    </TTGlyph>
    <TTGlyph name="Ecircumflex" xMin="28" yMin="0" xMax="545" yMax="820">
      <component glyphName="E" x="0" y="0" flags="0x204"/>
      <component glyphName="uni0302.cap" x="240" y="0" flags="0x4"/>
    </TTGlyph>
    <TTGlyph name="Edieresis" xMin="28" yMin="0" xMax="545" yMax="834">
      <component glyphName="E" x="0" y="0" flags="0x204"/>
      <component glyphName="uni0308.cap" x="240" y="0" flags="0x4"/>
    </TTGlyph>
    <TTGlyph name="Edotaccent" xMin="28" yMin="0" xMax="545" yMax="850">
      <component glyphName="E" x="0" y="0" flags="0x204"/>
      <component glyphName="uni0307.cap" x="240" y="0" flags="0x4"/>
    </TTGlyph>
    <TTGlyph name="Egrave" xMin="28" yMin="0" xMax="545" yMax="820">
      <component glyphName="E" x="0" y="0" flags="0x204"/>
      <component glyphName="uni0300.cap" x="240" y="0" flags="0x4"/>
    </TTGlyph>
    <TTGlyph name="Emacron" xMin="28" yMin="0" xMax="545" yMax="808">
      <component glyphName="E" x="0" y="0" flags="0x204"/>
      <component glyphName="uni0304.cap" x="240" y="0" flags="0x4"/>
    </TTGlyph>
    <TTGlyph name="Eogonek" xMin="28" yMin="-222" xMax="545" yMax="652">
      <contour>
        <pt x="159" y="652" on="1"/>
        <pt x="545" y="652" on="1"/>
        <pt x="523" y="537" on="1"/>
        <pt x="272" y="537" on="1"/>
        <pt x="244" y="395" on="1"/>
        <pt x="457" y="395" on="1"/>
        <pt x="435" y="280" on="1"/>
        <pt x="222" y="280" on="1"/>
        <pt x="188" y="115" on="1"/>
        <pt x="447" y="115" on="1"/>
        <pt x="425" y="0" on="1"/>
        <pt x="402" y="-3" on="0"/>
        <pt x="365" y="-27" on="0"/>
        <pt x="338" y="-57" on="0"/>
        <pt x="324" y="-89" on="0"/>
        <pt x="324" y="-101" on="1"/>
        <pt x="324" y="-117" on="0"/>
        <pt x="345" y="-133" on="0"/>
        <pt x="359" y="-133" on="1"/>
        <pt x="365" y="-133" on="0"/>
        <pt x="378" y="-129" on="0"/>
        <pt x="386" y="-124" on="1"/>
        <pt x="412" y="-191" on="1"/>
        <pt x="391" y="-205" on="0"/>
        <pt x="333" y="-222" on="0"/>
        <pt x="309" y="-222" on="1"/>
        <pt x="267" y="-222" on="0"/>
        <pt x="217" y="-182" on="0"/>
        <pt x="217" y="-145" on="1"/>
        <pt x="217" y="-120" on="0"/>
        <pt x="238" y="-74" on="0"/>
        <pt x="268" y="-36" on="0"/>
        <pt x="300" y="-8" on="0"/>
        <pt x="312" y="0" on="1"/>
        <pt x="28" y="0" on="1"/>
      </contour>
    </TTGlyph>
    <TTGlyph name="Eth" xMin="38" yMin="0" xMax="608" yMax="652">
      <contour>
        <pt x="247" y="110" on="1"/>
        <pt x="294" y="110" on="0"/>
        <pt x="375" y="143" on="0"/>
        <pt x="434" y="211" on="0"/>
        <pt x="468" y="316" on="0"/>
        <pt x="468" y="387" on="1"/>
        <pt x="468" y="468" on="0"/>
        <pt x="386" y="542" on="0"/>
        <pt x="317" y="542" on="1"/>
        <pt x="291" y="542" on="1"/>
        <pt x="258" y="374" on="1"/>
        <pt x="383" y="374" on="1"/>
        <pt x="368" y="307" on="1"/>
        <pt x="245" y="307" on="1"/>
        <pt x="206" y="110" on="1"/>
      </contour>
      <contour>
        <pt x="320" y="652" on="1"/>
        <pt x="457" y="652" on="0"/>
        <pt x="608" y="526" on="0"/>
        <pt x="608" y="396" on="1"/>
        <pt x="608" y="300" on="0"/>
        <pt x="555" y="152" on="0"/>
        <pt x="460" y="51" on="0"/>
        <pt x="328" y="0" on="0"/>
        <pt x="250" y="0" on="1"/>
        <pt x="46" y="0" on="1"/>
        <pt x="108" y="307" on="1"/>
        <pt x="38" y="307" on="1"/>
        <pt x="50" y="369" on="1"/>
        <pt x="121" y="374" on="1"/>
        <pt x="177" y="652" on="1"/>
      </contour>
    </TTGlyph>
    <TTGlyph name="Euro" xMin="16" yMin="-12" xMax="549" yMax="655">
      <contour>
        <pt x="216" y="224" on="1"/>
        <pt x="220" y="163" on="0"/>
        <pt x="271" y="98" on="0"/>
        <pt x="316" y="98" on="1"/>
        <pt x="341" y="98" on="0"/>
        <pt x="387" y="125" on="0"/>
        <pt x="408" y="146" on="1"/>
        <pt x="472" y="65" on="1"/>
        <pt x="424" y="23" on="0"/>
        <pt x="331" y="-12" on="0"/>
        <pt x="288" y="-12" on="1"/>
        <pt x="193" y="-12" on="0"/>
        <pt x="83" y="109" on="0"/>
        <pt x="78" y="224" on="1"/>
        <pt x="16" y="224" on="1"/>
        <pt x="30" y="289" on="1"/>
        <pt x="80" y="293" on="1"/>
        <pt x="82" y="307" on="0"/>
        <pt x="85" y="334" on="0"/>
        <pt x="88" y="348" on="1"/>
        <pt x="41" y="348" on="1"/>
        <pt x="55" y="413" on="1"/>
        <pt x="106" y="417" on="1"/>
        <pt x="125" y="472" on="0"/>
        <pt x="185" y="560" on="0"/>
        <pt x="261" y="622" on="0"/>
        <pt x="350" y="655" on="0"/>
        <pt x="398" y="655" on="1"/>
        <pt x="454" y="655" on="0"/>
        <pt x="524" y="600" on="0"/>
        <pt x="549" y="558" on="1"/>
        <pt x="451" y="493" on="1"/>
        <pt x="439" y="518" on="0"/>
        <pt x="408" y="545" on="0"/>
        <pt x="384" y="545" on="1"/>
        <pt x="336" y="545" on="0"/>
        <pt x="264" y="476" on="0"/>
        <pt x="243" y="419" on="1"/>
        <pt x="452" y="419" on="1"/>
        <pt x="438" y="348" on="1"/>
        <pt x="224" y="348" on="1"/>
        <pt x="222" y="335" on="0"/>
        <pt x="218" y="308" on="0"/>
        <pt x="217" y="294" on="1"/>
        <pt x="389" y="294" on="1"/>
        <pt x="375" y="224" on="1"/>
      </contour>
    </TTGlyph>
    <TTGlyph name="F" xMin="28" yMin="0" xMax="545" yMax="652">
      <contour>
        <pt x="159" y="652" on="1"/>
        <pt x="545" y="652" on="1"/>
        <pt x="523" y="537" on="1"/>
        <pt x="272" y="537" on="1"/>
        <pt x="241" y="377" on="1"/>
        <pt x="453" y="377" on="1"/>
        <pt x="431" y="262" on="1"/>
        <pt x="218" y="262" on="1"/>
        <pt x="166" y="0" on="1"/>
        <pt x="28" y="0" on="1"/>
      </contour>
    </TTGlyph>
    <TTGlyph name="G" xMin="56" yMin="-12" xMax="595" yMax="664">
      <contour>
        <pt x="56" y="261" on="1"/>
        <pt x="56" y="345" on="0"/>
        <pt x="110" y="492" on="0"/>
        <pt x="205" y="601" on="0"/>
        <pt x="336" y="664" on="0"/>
        <pt x="413" y="664" on="1"/>
        <pt x="476" y="664" on="0"/>
        <pt x="567" y="609" on="0"/>
        <pt x="595" y="560" on="1"/>
        <pt x="502" y="488" on="1"/>
        <pt x="483" y="517" on="0"/>
        <pt x="438" y="545" on="0"/>
        <pt x="406" y="545" on="1"/>
        <pt x="361" y="545" on="0"/>
        <pt x="284" y="500" on="0"/>
        <pt x="228" y="424" on="0"/>
        <pt x="197" y="324" on="0"/>
        <pt x="197" y="270" on="1"/>
        <pt x="197" y="232" on="0"/>
        <pt x="212" y="172" on="0"/>
        <pt x="246" y="128" on="0"/>
        <pt x="300" y="105" on="0"/>
        <pt x="338" y="105" on="1"/>
        <pt x="358" y="105" on="0"/>
        <pt x="395" y="117" on="0"/>
        <pt x="409" y="127" on="1"/>
        <pt x="437" y="255" on="1"/>
        <pt x="330" y="255" on="1"/>
        <pt x="351" y="367" on="1"/>
        <pt x="578" y="367" on="1"/>
        <pt x="518" y="56" on="1"/>
        <pt x="480" y="27" on="0"/>
        <pt x="376" y="-12" on="0"/>
        <pt x="314" y="-12" on="1"/>
        <pt x="254" y="-12" on="0"/>
        <pt x="158" y="25" on="0"/>
        <pt x="91" y="95" on="0"/>
        <pt x="56" y="196" on="0"/>
      </contour>
    </TTGlyph>
    <TTGlyph name="Gbreve" xMin="56" yMin="-12" xMax="595" yMax="820">
      <component glyphName="G" x="0" y="0" flags="0x204"/>
      <component glyphName="uni0306.cap" x="301" y="0" flags="0x4"/>
    </TTGlyph>
    <TTGlyph name="Gcaron" xMin="56" yMin="-12" xMax="604" yMax="820">
      <component glyphName="G" x="0" y="0" flags="0x204"/>
      <component glyphName="uni030C.cap" x="301" y="0" flags="0x4"/>
    </TTGlyph>
    <TTGlyph name="Gcircumflex" xMin="56" yMin="-12" xMax="595" yMax="820">
      <component glyphName="G" x="0" y="0" flags="0x204"/>
      <component glyphName="uni0302.cap" x="301" y="0" flags="0x4"/>
    </TTGlyph>
    <TTGlyph name="Gdotaccent" xMin="56" yMin="-12" xMax="595" yMax="850">
      <component glyphName="G" x="0" y="0" flags="0x204"/>
      <component glyphName="uni0307.cap" x="301" y="0" flags="0x4"/>
    </TTGlyph>
    <TTGlyph name="H" xMin="28" yMin="0" xMax="654" yMax="652">
      <contour>
        <pt x="159" y="652" on="1"/>
        <pt x="296" y="652" on="1"/>
        <pt x="244" y="399" on="1"/>
        <pt x="467" y="399" on="1"/>
        <pt x="517" y="652" on="1"/>
        <pt x="654" y="652" on="1"/>
        <pt x="524" y="0" on="1"/>
        <pt x="386" y="0" on="1"/>
        <pt x="443" y="279" on="1"/>
        <pt x="220" y="279" on="1"/>
        <pt x="166" y="0" on="1"/>
        <pt x="28" y="0" on="1"/>
      </contour>
    </TTGlyph>
    <TTGlyph name="Hbar" xMin="31" yMin="0" xMax="732" yMax="652">
      <contour>
        <pt x="487" y="489" on="1"/>
        <pt x="265" y="489" on="1"/>
        <pt x="247" y="399" on="1"/>
        <pt x="469" y="399" on="1"/>
      </contour>
      <contour>
        <pt x="719" y="489" on="1"/>
        <pt x="624" y="489" on="1"/>
        <pt x="526" y="0" on="1"/>
        <pt x="389" y="0" on="1"/>
        <pt x="445" y="279" on="1"/>
        <pt x="223" y="279" on="1"/>
        <pt x="168" y="0" on="1"/>
        <pt x="31" y="0" on="1"/>
        <pt x="129" y="489" on="1"/>
        <pt x="70" y="489" on="1"/>
        <pt x="83" y="551" on="1"/>
        <pt x="142" y="556" on="1"/>
        <pt x="161" y="652" on="1"/>
        <pt x="298" y="652" on="1"/>
        <pt x="279" y="557" on="1"/>
        <pt x="500" y="557" on="1"/>
        <pt x="519" y="652" on="1"/>
        <pt x="656" y="652" on="1"/>
        <pt x="637" y="557" on="1"/>
        <pt x="732" y="557" on="1"/>
      </contour>
    </TTGlyph>
    <TTGlyph name="Hcircumflex" xMin="28" yMin="0" xMax="654" yMax="820">
      <component glyphName="H" x="0" y="0" flags="0x204"/>
      <component glyphName="uni0302.cap" x="278" y="0" flags="0x4"/>
    </TTGlyph>
    <TTGlyph name="I" xMin="28" yMin="0" xMax="296" yMax="652">
      <contour>
        <pt x="159" y="652" on="1"/>
        <pt x="296" y="652" on="1"/>
        <pt x="166" y="0" on="1"/>
        <pt x="28" y="0" on="1"/>
      </contour>
    </TTGlyph>
    <TTGlyph name="I.a" xMin="-6" yMin="0" xMax="401" yMax="652">
      <contour>
        <pt x="18" y="115" on="1"/>
        <pt x="86" y="115" on="1"/>
        <pt x="171" y="537" on="1"/>
        <pt x="102" y="537" on="1"/>
        <pt x="126" y="652" on="1"/>
        <pt x="401" y="652" on="1"/>
        <pt x="377" y="537" on="1"/>
        <pt x="309" y="537" on="1"/>
        <pt x="223" y="115" on="1"/>
        <pt x="295" y="115" on="1"/>
        <pt x="271" y="0" on="1"/>
        <pt x="-6" y="0" on="1"/>
      </contour>
    </TTGlyph>
    <TTGlyph name="Iacute" xMin="28" yMin="0" xMax="402" yMax="820">
      <component glyphName="I" x="0" y="0" flags="0x204"/>
      <component glyphName="uni0301.cap" x="104" y="0" flags="0x4"/>
    </TTGlyph>
    <TTGlyph name="Iacute.a" xMin="-6" yMin="0" xMax="438" yMax="820">
      <component glyphName="I.a" x="0" y="0" flags="0x204"/>
      <component glyphName="uni0301.cap" x="140" y="0" flags="0x4"/>
    </TTGlyph>
    <TTGlyph name="Icircumflex" xMin="28" yMin="0" xMax="383" yMax="820">
      <component glyphName="I" x="0" y="0" flags="0x204"/>
      <component glyphName="uni0302.cap" x="104" y="0" flags="0x4"/>
    </TTGlyph>
    <TTGlyph name="Icircumflex.a" xMin="-6" yMin="0" xMax="419" yMax="820">
      <component glyphName="I.a" x="0" y="0" flags="0x204"/>
      <component glyphName="uni0302.cap" x="140" y="0" flags="0x4"/>
    </TTGlyph>
    <TTGlyph name="Idieresis" xMin="28" yMin="0" xMax="399" yMax="834">
      <component glyphName="I" x="0" y="0" flags="0x204"/>
      <component glyphName="uni0308.cap" x="104" y="0" flags="0x4"/>
    </TTGlyph>
    <TTGlyph name="Idieresis.a" xMin="-6" yMin="0" xMax="435" yMax="834">
      <component glyphName="I.a" x="0" y="0" flags="0x204"/>
      <component glyphName="uni0308.cap" x="140" y="0" flags="0x4"/>
    </TTGlyph>
    <TTGlyph name="Idotaccent" xMin="28" yMin="0" xMax="319" yMax="850">
      <component glyphName="I" x="0" y="0" flags="0x204"/>
      <component glyphName="uni0307.cap" x="104" y="0" flags="0x4"/>
    </TTGlyph>
    <TTGlyph name="Idotaccent.a" xMin="-6" yMin="0" xMax="401" yMax="850">
      <component glyphName="I.a" x="0" y="0" flags="0x204"/>
      <component glyphName="uni0307.cap" x="140" y="0" flags="0x4"/>
    </TTGlyph>
    <TTGlyph name="Igrave" xMin="28" yMin="0" xMax="296" yMax="820">
      <component glyphName="I" x="0" y="0" flags="0x204"/>
      <component glyphName="uni0300.cap" x="104" y="0" flags="0x4"/>
    </TTGlyph>
    <TTGlyph name="Igrave.a" xMin="-6" yMin="0" xMax="401" yMax="820">
      <component glyphName="I.a" x="0" y="0" flags="0x204"/>
      <component glyphName="uni0300.cap" x="140" y="0" flags="0x4"/>
    </TTGlyph>
    <TTGlyph name="Imacron" xMin="28" yMin="0" xMax="380" yMax="808">
      <component glyphName="I" x="0" y="0" flags="0x204"/>
      <component glyphName="uni0304.cap" x="104" y="0" flags="0x4"/>
    </TTGlyph>
    <TTGlyph name="Imacron.a" xMin="-6" yMin="0" xMax="416" yMax="808">
      <component glyphName="I.a" x="0" y="0" flags="0x204"/>
      <component glyphName="uni0304.cap" x="140" y="0" flags="0x4"/>
    </TTGlyph>
    <TTGlyph name="Iogonek" xMin="-35" yMin="-222" xMax="296" yMax="652">
      <contour>
        <pt x="72" y="-101" on="1"/>
        <pt x="72" y="-117" on="0"/>
        <pt x="93" y="-133" on="0"/>
        <pt x="107" y="-133" on="1"/>
        <pt x="113" y="-133" on="0"/>
        <pt x="126" y="-129" on="0"/>
        <pt x="134" y="-124" on="1"/>
        <pt x="160" y="-190" on="1"/>
        <pt x="140" y="-204" on="0"/>
        <pt x="81" y="-222" on="0"/>
        <pt x="57" y="-222" on="1"/>
        <pt x="15" y="-222" on="0"/>
        <pt x="-35" y="-182" on="0"/>
        <pt x="-35" y="-145" on="1"/>
        <pt x="-35" y="-120" on="0"/>
        <pt x="-14" y="-74" on="0"/>
        <pt x="16" y="-36" on="0"/>
        <pt x="48" y="-8" on="0"/>
        <pt x="60" y="0" on="1"/>
        <pt x="28" y="0" on="1"/>
        <pt x="159" y="652" on="1"/>
        <pt x="296" y="652" on="1"/>
        <pt x="166" y="0" on="1"/>
        <pt x="118" y="-18" on="0"/>
        <pt x="72" y="-78" on="0"/>
      </contour>
    </TTGlyph>
    <TTGlyph name="Iogonek.a" xMin="-6" yMin="-222" xMax="401" yMax="652">
      <contour>
        <pt x="18" y="115" on="1"/>
        <pt x="86" y="115" on="1"/>
        <pt x="171" y="537" on="1"/>
        <pt x="102" y="537" on="1"/>
        <pt x="126" y="652" on="1"/>
        <pt x="401" y="652" on="1"/>
        <pt x="377" y="537" on="1"/>
        <pt x="309" y="537" on="1"/>
        <pt x="223" y="115" on="1"/>
        <pt x="295" y="115" on="1"/>
        <pt x="271" y="0" on="1"/>
        <pt x="201" y="0" on="1"/>
        <pt x="153" y="-18" on="0"/>
        <pt x="107" y="-78" on="0"/>
        <pt x="107" y="-101" on="1"/>
        <pt x="107" y="-117" on="0"/>
        <pt x="128" y="-133" on="0"/>
        <pt x="142" y="-133" on="1"/>
        <pt x="148" y="-133" on="0"/>
        <pt x="161" y="-129" on="0"/>
        <pt x="169" y="-124" on="1"/>
        <pt x="195" y="-190" on="1"/>
        <pt x="175" y="-204" on="0"/>
        <pt x="116" y="-222" on="0"/>
        <pt x="92" y="-222" on="1"/>
        <pt x="51" y="-222" on="0"/>
        <pt x="0" y="-182" on="0"/>
        <pt x="0" y="-145" on="1"/>
        <pt x="0" y="-120" on="0"/>
        <pt x="21" y="-74" on="0"/>
        <pt x="51" y="-36" on="0"/>
        <pt x="83" y="-8" on="0"/>
        <pt x="95" y="0" on="1"/>
        <pt x="-6" y="0" on="1"/>
      </contour>
    </TTGlyph>
    <TTGlyph name="Itilde" xMin="28" yMin="0" xMax="412" yMax="833">
      <component glyphName="I" x="0" y="0" flags="0x204"/>
      <component glyphName="uni0303.cap" x="104" y="0" flags="0x4"/>
    </TTGlyph>
    <TTGlyph name="Itilde.a" xMin="-6" yMin="0" xMax="448" yMax="833">
      <component glyphName="I.a" x="0" y="0" flags="0x204"/>
      <component glyphName="uni0303.cap" x="140" y="0" flags="0x4"/>
    </TTGlyph>
    <TTGlyph name="J" xMin="-8" yMin="-12" xMax="498" yMax="652">
      <contour>
        <pt x="408" y="203" on="1"/>
        <pt x="399" y="159" on="0"/>
        <pt x="364" y="81" on="0"/>
        <pt x="307" y="22" on="0"/>
        <pt x="228" y="-12" on="0"/>
        <pt x="176" y="-12" on="1"/>
        <pt x="119" y="-12" on="0"/>
        <pt x="21" y="39" on="0"/>
        <pt x="-8" y="87" on="1"/>
        <pt x="76" y="170" on="1"/>
        <pt x="90" y="144" on="0"/>
        <pt x="141" y="106" on="0"/>
        <pt x="176" y="106" on="1"/>
        <pt x="252" y="106" on="0"/>
        <pt x="276" y="227" on="1"/>
        <pt x="361" y="652" on="1"/>
        <pt x="498" y="652" on="1"/>
        <pt x="408" y="203" on="1"/>
      </contour>
    </TTGlyph>
    <TTGlyph name="Jcircumflex" xMin="-8" yMin="-12" xMax="583" yMax="820">
      <component glyphName="J" x="0" y="0" flags="0x204"/>
      <component glyphName="uni0302.cap" x="304" y="0" flags="0x4"/>
    </TTGlyph>
    <TTGlyph name="K" xMin="28" yMin="0" xMax="641" yMax="652">
      <contour>
        <pt x="159" y="652" on="1"/>
        <pt x="296" y="652" on="1"/>
        <pt x="243" y="384" on="1"/>
        <pt x="246" y="384" on="1"/>
        <pt x="491" y="652" on="1"/>
        <pt x="641" y="652" on="1"/>
        <pt x="404" y="384" on="1"/>
        <pt x="550" y="0" on="1"/>
        <pt x="407" y="0" on="1"/>
        <pt x="303" y="298" on="1"/>
        <pt x="204" y="191" on="1"/>
        <pt x="166" y="0" on="1"/>
        <pt x="28" y="0" on="1"/>
      </contour>
    </TTGlyph>
    <TTGlyph name="L" xMin="28" yMin="0" xMax="435" yMax="652">
      <contour>
        <pt x="159" y="652" on="1"/>
        <pt x="296" y="652" on="1"/>
        <pt x="188" y="115" on="1"/>
        <pt x="435" y="115" on="1"/>
        <pt x="413" y="0" on="1"/>
        <pt x="28" y="0" on="1"/>
      </contour>
    </TTGlyph>
    <TTGlyph name="Lacute" xMin="28" yMin="0" xMax="435" yMax="820">
      <component glyphName="L" x="0" y="0" flags="0x204"/>
      <component glyphName="uni0301.cap" x="119" y="0" flags="0x4"/>
    </TTGlyph>
    <TTGlyph name="Lcaron" xMin="28" yMin="0" xMax="517" yMax="731">
      <component glyphName="L" x="0" y="0" flags="0x204"/>
      <component glyphName="uni030C.a" x="372" y="-39" flags="0x4"/>
    </TTGlyph>
    <TTGlyph name="Ldot" xMin="28" yMin="0" xMax="498" yMax="652">
      <component glyphName="L" x="0" y="0" flags="0x204"/>
      <component glyphName="period" x="306" y="251" flags="0x4"/>
    </TTGlyph>
    <TTGlyph name="Lslash" xMin="-7" yMin="0" xMax="435" yMax="652">
      <contour>
        <pt x="435" y="115" on="1"/>
        <pt x="413" y="0" on="1"/>
        <pt x="28" y="0" on="1"/>
        <pt x="69" y="203" on="1"/>
        <pt x="-7" y="165" on="1"/>
        <pt x="16" y="279" on="1"/>
        <pt x="92" y="317" on="1"/>
        <pt x="159" y="652" on="1"/>
        <pt x="296" y="652" on="1"/>
        <pt x="243" y="387" on="1"/>
        <pt x="429" y="482" on="1"/>
        <pt x="407" y="368" on="1"/>
        <pt x="220" y="273" on="1"/>
        <pt x="188" y="115" on="1"/>
      </contour>
    </TTGlyph>
    <TTGlyph name="M" xMin="28" yMin="0" xMax="742" yMax="652">
      <contour>
        <pt x="159" y="652" on="1"/>
        <pt x="304" y="652" on="1"/>
        <pt x="351" y="351" on="1"/>
        <pt x="368" y="234" on="1"/>
        <pt x="372" y="234" on="1"/>
        <pt x="432" y="351" on="1"/>
        <pt x="596" y="652" on="1"/>
        <pt x="742" y="652" on="1"/>
        <pt x="611" y="0" on="1"/>
        <pt x="483" y="0" on="1"/>
        <pt x="537" y="259" on="1"/>
        <pt x="542" y="283" on="0"/>
        <pt x="556" y="340" on="0"/>
        <pt x="572" y="398" on="0"/>
        <pt x="588" y="453" on="0"/>
        <pt x="596" y="477" on="1"/>
        <pt x="593" y="477" on="1"/>
        <pt x="512" y="327" on="1"/>
        <pt x="359" y="60" on="1"/>
        <pt x="304" y="60" on="1"/>
        <pt x="256" y="327" on="1"/>
        <pt x="236" y="477" on="1"/>
        <pt x="232" y="477" on="1"/>
        <pt x="230" y="453" on="0"/>
        <pt x="225" y="397" on="0"/>
        <pt x="219" y="339" on="0"/>
        <pt x="211" y="283" on="0"/>
        <pt x="206" y="259" on="1"/>
        <pt x="154" y="0" on="1"/>
        <pt x="28" y="0" on="1"/>
      </contour>
    </TTGlyph>
    <TTGlyph name="N" xMin="28" yMin="0" xMax="644" yMax="652">
      <contour>
        <pt x="159" y="652" on="1"/>
        <pt x="292" y="652" on="1"/>
        <pt x="398" y="312" on="1"/>
        <pt x="433" y="169" on="1"/>
        <pt x="437" y="169" on="1"/>
        <pt x="440" y="194" on="0"/>
        <pt x="444" y="254" on="0"/>
        <pt x="450" y="315" on="0"/>
        <pt x="458" y="377" on="0"/>
        <pt x="464" y="405" on="1"/>
        <pt x="514" y="652" on="1"/>
        <pt x="644" y="652" on="1"/>
        <pt x="514" y="0" on="1"/>
        <pt x="382" y="0" on="1"/>
        <pt x="275" y="339" on="1"/>
        <pt x="242" y="484" on="1"/>
        <pt x="238" y="484" on="1"/>
        <pt x="233" y="429" on="0"/>
        <pt x="220" y="307" on="0"/>
        <pt x="209" y="250" on="1"/>
        <pt x="159" y="0" on="1"/>
        <pt x="28" y="0" on="1"/>
      </contour>
    </TTGlyph>
    <TTGlyph name="Nacute" xMin="28" yMin="0" xMax="644" yMax="820">
      <component glyphName="N" x="0" y="0" flags="0x204"/>
      <component glyphName="uni0301.cap" x="289" y="0" flags="0x4"/>
    </TTGlyph>
    <TTGlyph name="Ncaron" xMin="28" yMin="0" xMax="644" yMax="820">
      <component glyphName="N" x="0" y="0" flags="0x204"/>
      <component glyphName="uni030C.cap" x="289" y="0" flags="0x4"/>
    </TTGlyph>
    <TTGlyph name="Ntilde" xMin="28" yMin="0" xMax="644" yMax="833">
      <component glyphName="N" x="0" y="0" flags="0x204"/>
      <component glyphName="uni0303.cap" x="289" y="0" flags="0x4"/>
    </TTGlyph>
    <TTGlyph name="O" xMin="57" yMin="-12" xMax="633" yMax="664">
      <contour>
        <pt x="302" y="-12" on="1"/>
        <pt x="246" y="-12" on="0"/>
        <pt x="156" y="25" on="0"/>
        <pt x="92" y="96" on="0"/>
        <pt x="57" y="199" on="0"/>
        <pt x="57" y="264" on="1"/>
        <pt x="57" y="350" on="0"/>
        <pt x="111" y="497" on="0"/>
        <pt x="202" y="604" on="0"/>
        <pt x="322" y="664" on="0"/>
        <pt x="388" y="664" on="1"/>
        <pt x="444" y="664" on="0"/>
        <pt x="534" y="626" on="0"/>
        <pt x="598" y="555" on="0"/>
        <pt x="633" y="453" on="0"/>
        <pt x="633" y="388" on="1"/>
        <pt x="633" y="302" on="0"/>
        <pt x="579" y="155" on="0"/>
        <pt x="488" y="48" on="0"/>
        <pt x="368" y="-12" on="0"/>
      </contour>
      <contour>
        <pt x="382" y="545" on="1"/>
        <pt x="347" y="545" on="0"/>
        <pt x="281" y="502" on="0"/>
        <pt x="229" y="429" on="0"/>
        <pt x="197" y="330" on="0"/>
        <pt x="197" y="273" on="1"/>
        <pt x="197" y="195" on="0"/>
        <pt x="255" y="106" on="0"/>
        <pt x="309" y="106" on="1"/>
        <pt x="344" y="106" on="0"/>
        <pt x="410" y="149" on="0"/>
        <pt x="462" y="223" on="0"/>
        <pt x="493" y="322" on="0"/>
        <pt x="493" y="379" on="1"/>
        <pt x="493" y="457" on="0"/>
        <pt x="436" y="545" on="0"/>
      </contour>
    </TTGlyph>
    <TTGlyph name="OE" xMin="57" yMin="0" xMax="852" yMax="652">
      <contour>
        <pt x="57" y="256" on="1"/>
        <pt x="57" y="352" on="0"/>
        <pt x="110" y="500" on="0"/>
        <pt x="206" y="601" on="0"/>
        <pt x="338" y="652" on="0"/>
        <pt x="416" y="652" on="1"/>
        <pt x="852" y="652" on="1"/>
        <pt x="829" y="537" on="1"/>
        <pt x="591" y="537" on="1"/>
        <pt x="563" y="395" on="1"/>
        <pt x="764" y="395" on="1"/>
        <pt x="741" y="280" on="1"/>
        <pt x="541" y="280" on="1"/>
        <pt x="507" y="115" on="1"/>
        <pt x="754" y="115" on="1"/>
        <pt x="731" y="0" on="1"/>
        <pt x="345" y="0" on="1"/>
        <pt x="208" y="0" on="0"/>
        <pt x="57" y="126" on="0"/>
      </contour>
      <contour>
        <pt x="419" y="542" on="1"/>
        <pt x="372" y="542" on="0"/>
        <pt x="291" y="509" on="0"/>
        <pt x="231" y="441" on="0"/>
        <pt x="197" y="336" on="0"/>
        <pt x="197" y="265" on="1"/>
        <pt x="197" y="184" on="0"/>
        <pt x="280" y="110" on="0"/>
        <pt x="349" y="110" on="1"/>
        <pt x="370" y="110" on="1"/>
        <pt x="456" y="542" on="1"/>
      </contour>
    </TTGlyph>
    <TTGlyph name="Oacute" xMin="57" yMin="-12" xMax="633" yMax="820">
      <component glyphName="O" x="0" y="0" flags="0x204"/>
      <component glyphName="uni0301.cap" x="293" y="0" flags="0x4"/>
    </TTGlyph>
    <TTGlyph name="Ocircumflex" xMin="57" yMin="-12" xMax="633" yMax="820">
      <component glyphName="O" x="0" y="0" flags="0x204"/>
      <component glyphName="uni0302.cap" x="293" y="0" flags="0x4"/>
    </TTGlyph>
    <TTGlyph name="Odieresis" xMin="57" yMin="-12" xMax="633" yMax="834">
      <component glyphName="O" x="0" y="0" flags="0x204"/>
      <component glyphName="uni0308.cap" x="293" y="0" flags="0x4"/>
    </TTGlyph>
    <TTGlyph name="Ograve" xMin="57" yMin="-12" xMax="633" yMax="820">
      <component glyphName="O" x="0" y="0" flags="0x204"/>
      <component glyphName="uni0300.cap" x="293" y="0" flags="0x4"/>
    </TTGlyph>
    <TTGlyph name="Ohorn" xMin="57" yMin="-12" xMax="699" yMax="774">
      <contour>
        <pt x="309" y="106" on="1"/>
        <pt x="344" y="106" on="0"/>
        <pt x="410" y="149" on="0"/>
        <pt x="462" y="223" on="0"/>
        <pt x="493" y="322" on="0"/>
        <pt x="493" y="379" on="1"/>
        <pt x="493" y="457" on="0"/>
        <pt x="436" y="545" on="0"/>
        <pt x="382" y="545" on="1"/>
        <pt x="347" y="545" on="0"/>
        <pt x="281" y="502" on="0"/>
        <pt x="229" y="429" on="0"/>
        <pt x="197" y="330" on="0"/>
        <pt x="197" y="273" on="1"/>
        <pt x="197" y="195" on="0"/>
        <pt x="255" y="106" on="0"/>
      </contour>
      <contour>
        <pt x="686" y="774" on="1"/>
        <pt x="699" y="745" on="0"/>
        <pt x="699" y="714" on="1"/>
        <pt x="699" y="666" on="0"/>
        <pt x="632" y="598" on="0"/>
        <pt x="571" y="586" on="1"/>
        <pt x="601" y="551" on="0"/>
        <pt x="633" y="451" on="0"/>
        <pt x="633" y="388" on="1"/>
        <pt x="633" y="302" on="0"/>
        <pt x="579" y="155" on="0"/>
        <pt x="488" y="48" on="0"/>
        <pt x="368" y="-12" on="0"/>
        <pt x="302" y="-12" on="1"/>
        <pt x="246" y="-12" on="0"/>
        <pt x="156" y="25" on="0"/>
        <pt x="92" y="96" on="0"/>
        <pt x="57" y="199" on="0"/>
        <pt x="57" y="264" on="1"/>
        <pt x="57" y="350" on="0"/>
        <pt x="111" y="497" on="0"/>
        <pt x="202" y="604" on="0"/>
        <pt x="322" y="664" on="0"/>
        <pt x="388" y="664" on="1"/>
        <pt x="458" y="664" on="0"/>
        <pt x="511" y="635" on="1"/>
        <pt x="550" y="640" on="0"/>
        <pt x="591" y="680" on="0"/>
        <pt x="591" y="706" on="1"/>
        <pt x="591" y="725" on="0"/>
        <pt x="584" y="743" on="1"/>
      </contour>
    </TTGlyph>
    <TTGlyph name="Ohungarumlaut" xMin="57" yMin="-12" xMax="657" yMax="821">
      <component glyphName="O" x="0" y="0" flags="0x204"/>
      <component glyphName="uni030B.cap" x="293" y="0" flags="0x4"/>
    </TTGlyph>
    <TTGlyph name="Omacron" xMin="57" yMin="-12" xMax="633" yMax="808">
      <component glyphName="O" x="0" y="0" flags="0x204"/>
      <component glyphName="uni0304.cap" x="293" y="0" flags="0x4"/>
    </TTGlyph>
    <TTGlyph name="Oslash" xMin="-10" yMin="-40" xMax="711" yMax="698">
      <contour>
        <pt x="230" y="144" on="1"/>
        <pt x="260" y="106" on="0"/>
        <pt x="309" y="106" on="1"/>
        <pt x="344" y="106" on="0"/>
        <pt x="410" y="149" on="0"/>
        <pt x="462" y="223" on="0"/>
        <pt x="493" y="322" on="0"/>
        <pt x="493" y="379" on="1"/>
        <pt x="493" y="389" on="0"/>
        <pt x="492" y="406" on="0"/>
        <pt x="491" y="415" on="1"/>
      </contour>
      <contour>
        <pt x="463" y="504" on="1"/>
        <pt x="433" y="545" on="0"/>
        <pt x="382" y="545" on="1"/>
        <pt x="347" y="545" on="0"/>
        <pt x="281" y="502" on="0"/>
        <pt x="229" y="429" on="0"/>
        <pt x="197" y="330" on="0"/>
        <pt x="197" y="273" on="1"/>
        <pt x="197" y="262" on="0"/>
        <pt x="198" y="242" on="0"/>
        <pt x="199" y="232" on="1"/>
      </contour>
      <contour>
        <pt x="605" y="532" on="1"/>
        <pt x="633" y="470" on="0"/>
        <pt x="633" y="388" on="1"/>
        <pt x="633" y="302" on="0"/>
        <pt x="579" y="155" on="0"/>
        <pt x="488" y="48" on="0"/>
        <pt x="368" y="-12" on="0"/>
        <pt x="302" y="-12" on="1"/>
        <pt x="200" y="-12" on="0"/>
        <pt x="137" y="48" on="1"/>
        <pt x="52" y="-40" on="1"/>
        <pt x="-10" y="16" on="1"/>
        <pt x="87" y="116" on="1"/>
        <pt x="73" y="147" on="0"/>
        <pt x="57" y="220" on="0"/>
        <pt x="57" y="264" on="1"/>
        <pt x="57" y="350" on="0"/>
        <pt x="111" y="497" on="0"/>
        <pt x="202" y="604" on="0"/>
        <pt x="322" y="664" on="0"/>
        <pt x="388" y="664" on="1"/>
        <pt x="492" y="664" on="0"/>
        <pt x="557" y="601" on="1"/>
        <pt x="651" y="698" on="1"/>
        <pt x="711" y="642" on="1"/>
      </contour>
    </TTGlyph>
    <TTGlyph name="Otilde" xMin="57" yMin="-12" xMax="633" yMax="833">
      <component glyphName="O" x="0" y="0" flags="0x204"/>
      <component glyphName="uni0303.cap" x="293" y="0" flags="0x4"/>
    </TTGlyph>
    <TTGlyph name="P" xMin="28" yMin="0" xMax="588" yMax="652">
      <contour>
        <pt x="159" y="652" on="1"/>
        <pt x="365" y="652" on="1"/>
        <pt x="413" y="652" on="0"/>
        <pt x="494" y="633" on="0"/>
        <pt x="554" y="592" on="0"/>
        <pt x="588" y="526" on="0"/>
        <pt x="588" y="479" on="1"/>
        <pt x="588" y="411" on="0"/>
        <pt x="540" y="315" on="0"/>
        <pt x="458" y="254" on="0"/>
        <pt x="349" y="226" on="0"/>
        <pt x="287" y="226" on="1"/>
        <pt x="210" y="226" on="1"/>
        <pt x="166" y="0" on="1"/>
        <pt x="28" y="0" on="1"/>
      </contour>
      <contour>
        <pt x="302" y="335" on="1"/>
        <pt x="375" y="335" on="0"/>
        <pt x="453" y="397" on="0"/>
        <pt x="453" y="459" on="1"/>
        <pt x="453" y="503" on="0"/>
        <pt x="396" y="543" on="0"/>
        <pt x="343" y="543" on="1"/>
        <pt x="273" y="543" on="1"/>
        <pt x="233" y="335" on="1"/>
      </contour>
    </TTGlyph>
    <TTGlyph name="Q" xMin="57" yMin="-176" xMax="633" yMax="664">
      <contour>
        <pt x="382" y="545" on="1"/>
        <pt x="347" y="545" on="0"/>
        <pt x="281" y="502" on="0"/>
        <pt x="229" y="429" on="0"/>
        <pt x="197" y="330" on="0"/>
        <pt x="197" y="273" on="1"/>
        <pt x="197" y="195" on="0"/>
        <pt x="255" y="106" on="0"/>
        <pt x="309" y="106" on="1"/>
        <pt x="344" y="106" on="0"/>
        <pt x="410" y="149" on="0"/>
        <pt x="462" y="223" on="0"/>
        <pt x="493" y="322" on="0"/>
        <pt x="493" y="379" on="1"/>
        <pt x="493" y="457" on="0"/>
        <pt x="436" y="545" on="0"/>
      </contour>
      <contour>
        <pt x="563" y="-160" on="1"/>
        <pt x="546" y="-167" on="0"/>
        <pt x="500" y="-176" on="0"/>
        <pt x="483" y="-176" on="1"/>
        <pt x="280" y="-176" on="0"/>
        <pt x="210" y="3" on="1"/>
        <pt x="138" y="29" on="0"/>
        <pt x="57" y="162" on="0"/>
        <pt x="57" y="264" on="1"/>
        <pt x="57" y="350" on="0"/>
        <pt x="111" y="497" on="0"/>
        <pt x="202" y="604" on="0"/>
        <pt x="322" y="664" on="0"/>
        <pt x="388" y="664" on="1"/>
        <pt x="444" y="664" on="0"/>
        <pt x="534" y="626" on="0"/>
        <pt x="598" y="555" on="0"/>
        <pt x="633" y="453" on="0"/>
        <pt x="633" y="388" on="1"/>
        <pt x="633" y="310" on="0"/>
        <pt x="589" y="176" on="0"/>
        <pt x="514" y="72" on="0"/>
        <pt x="413" y="4" on="0"/>
        <pt x="355" y="-7" on="1"/>
        <pt x="375" y="-38" on="0"/>
        <pt x="449" y="-66" on="0"/>
        <pt x="491" y="-66" on="1"/>
        <pt x="511" y="-66" on="0"/>
        <pt x="541" y="-61" on="0"/>
        <pt x="557" y="-57" on="1"/>
      </contour>
    </TTGlyph>
    <TTGlyph name="R" xMin="28" yMin="0" xMax="586" yMax="652">
      <contour>
        <pt x="304" y="348" on="1"/>
        <pt x="377" y="348" on="0"/>
        <pt x="451" y="411" on="0"/>
        <pt x="451" y="465" on="1"/>
        <pt x="451" y="507" on="0"/>
        <pt x="395" y="543" on="0"/>
        <pt x="342" y="543" on="1"/>
        <pt x="273" y="543" on="1"/>
        <pt x="235" y="348" on="1"/>
      </contour>
      <contour>
        <pt x="363" y="652" on="1"/>
        <pt x="411" y="652" on="0"/>
        <pt x="493" y="634" on="0"/>
        <pt x="552" y="594" on="0"/>
        <pt x="586" y="530" on="0"/>
        <pt x="586" y="485" on="1"/>
        <pt x="586" y="439" on="0"/>
        <pt x="561" y="366" on="0"/>
        <pt x="517" y="310" on="0"/>
        <pt x="456" y="270" on="0"/>
        <pt x="420" y="258" on="1"/>
        <pt x="521" y="0" on="1"/>
        <pt x="377" y="0" on="1"/>
        <pt x="293" y="239" on="1"/>
        <pt x="213" y="239" on="1"/>
        <pt x="166" y="0" on="1"/>
        <pt x="28" y="0" on="1"/>
        <pt x="159" y="652" on="1"/>
      </contour>
    </TTGlyph>
    <TTGlyph name="Racute" xMin="28" yMin="0" xMax="586" yMax="820">
      <component glyphName="R" x="0" y="0" flags="0x204"/>
      <component glyphName="uni0301.cap" x="257" y="0" flags="0x4"/>
    </TTGlyph>
    <TTGlyph name="Rcaron" xMin="28" yMin="0" xMax="586" yMax="820">
      <component glyphName="R" x="0" y="0" flags="0x204"/>
      <component glyphName="uni030C.cap" x="257" y="0" flags="0x4"/>
    </TTGlyph>
    <TTGlyph name="S" xMin="5" yMin="-12" xMax="534" yMax="664">
      <contour>
        <pt x="103" y="187" on="1"/>
        <pt x="129" y="149" on="0"/>
        <pt x="206" y="105" on="0"/>
        <pt x="248" y="105" on="1"/>
        <pt x="290" y="105" on="0"/>
        <pt x="342" y="145" on="0"/>
        <pt x="342" y="180" on="1"/>
        <pt x="342" y="206" on="0"/>
        <pt x="301" y="239" on="0"/>
        <pt x="266" y="261" on="1"/>
        <pt x="204" y="299" on="1"/>
        <pt x="159" y="327" on="0"/>
        <pt x="107" y="402" on="0"/>
        <pt x="107" y="462" on="1"/>
        <pt x="107" y="504" on="0"/>
        <pt x="143" y="577" on="0"/>
        <pt x="204" y="632" on="0"/>
        <pt x="288" y="664" on="0"/>
        <pt x="336" y="664" on="1"/>
        <pt x="394" y="664" on="0"/>
        <pt x="496" y="610" on="0"/>
        <pt x="534" y="565" on="1"/>
        <pt x="447" y="484" on="1"/>
        <pt x="422" y="510" on="0"/>
        <pt x="366" y="545" on="0"/>
        <pt x="330" y="545" on="1"/>
        <pt x="290" y="545" on="0"/>
        <pt x="247" y="504" on="0"/>
        <pt x="247" y="475" on="1"/>
        <pt x="247" y="450" on="0"/>
        <pt x="291" y="418" on="0"/>
        <pt x="329" y="394" on="1"/>
        <pt x="393" y="355" on="1"/>
        <pt x="441" y="326" on="0"/>
        <pt x="484" y="257" on="0"/>
        <pt x="484" y="200" on="1"/>
        <pt x="484" y="155" on="0"/>
        <pt x="449" y="78" on="0"/>
        <pt x="385" y="21" on="0"/>
        <pt x="294" y="-12" on="0"/>
        <pt x="238" y="-12" on="1"/>
        <pt x="174" y="-12" on="0"/>
        <pt x="53" y="44" on="0"/>
        <pt x="5" y="110" on="1"/>
      </contour>
    </TTGlyph>
    <TTGlyph name="Sacute" xMin="5" yMin="-12" xMax="534" yMax="826">
      <component glyphName="S" x="0" y="0" flags="0x204"/>
      <component glyphName="uni0301.cap" x="235" y="6" flags="0x4"/>
    </TTGlyph>
    <TTGlyph name="Scaron" xMin="5" yMin="-12" xMax="538" yMax="826">
      <component glyphName="S" x="0" y="0" flags="0x204"/>
      <component glyphName="uni030C.cap" x="235" y="6" flags="0x4"/>
    </TTGlyph>
    <TTGlyph name="Scircumflex" xMin="5" yMin="-12" xMax="534" yMax="826">
      <component glyphName="S" x="0" y="0" flags="0x204"/>
      <component glyphName="uni0302.cap" x="235" y="6" flags="0x4"/>
    </TTGlyph>
    <TTGlyph name="T" xMin="84" yMin="0" xMax="586" yMax="652">
      <contour>
        <pt x="255" y="536" on="1"/>
        <pt x="84" y="536" on="1"/>
        <pt x="106" y="652" on="1"/>
        <pt x="586" y="652" on="1"/>
        <pt x="563" y="536" on="1"/>
        <pt x="392" y="536" on="1"/>
        <pt x="286" y="0" on="1"/>
        <pt x="149" y="0" on="1"/>
      </contour>
    </TTGlyph>
    <TTGlyph name="Tcaron" xMin="84" yMin="0" xMax="586" yMax="820">
      <component glyphName="T" x="0" y="0" flags="0x204"/>
      <component glyphName="uni030C.cap" x="225" y="0" flags="0x4"/>
    </TTGlyph>
    <TTGlyph name="Thorn" xMin="28" yMin="0" xMax="572" yMax="660">
      <contour>
        <pt x="159" y="660" on="1"/>
        <pt x="296" y="660" on="1"/>
        <pt x="275" y="556" on="1"/>
        <pt x="363" y="556" on="1"/>
        <pt x="408" y="556" on="0"/>
        <pt x="484" y="537" on="0"/>
        <pt x="540" y="496" on="0"/>
        <pt x="572" y="430" on="0"/>
        <pt x="572" y="383" on="1"/>
        <pt x="572" y="315" on="0"/>
        <pt x="523" y="219" on="0"/>
        <pt x="441" y="158" on="0"/>
        <pt x="331" y="130" on="0"/>
        <pt x="270" y="130" on="1"/>
        <pt x="190" y="130" on="1"/>
        <pt x="164" y="0" on="1"/>
        <pt x="28" y="0" on="1"/>
      </contour>
      <contour>
        <pt x="283" y="239" on="1"/>
        <pt x="358" y="239" on="0"/>
        <pt x="436" y="301" on="0"/>
        <pt x="436" y="363" on="1"/>
        <pt x="436" y="407" on="0"/>
        <pt x="383" y="447" on="0"/>
        <pt x="334" y="447" on="1"/>
        <pt x="253" y="447" on="1"/>
        <pt x="212" y="239" on="1"/>
      </contour>
    </TTGlyph>
    <TTGlyph name="U" xMin="75" yMin="-12" xMax="649" yMax="652">
      <contour>
        <pt x="155" y="652" on="1"/>
        <pt x="292" y="652" on="1"/>
        <pt x="221" y="295" on="1"/>
        <pt x="217" y="275" on="0"/>
        <pt x="213" y="237" on="0"/>
        <pt x="213" y="219" on="1"/>
        <pt x="213" y="164" on="0"/>
        <pt x="257" y="106" on="0"/>
        <pt x="312" y="106" on="1"/>
        <pt x="359" y="106" on="0"/>
        <pt x="421" y="183" on="0"/>
        <pt x="439" y="274" on="1"/>
        <pt x="515" y="652" on="1"/>
        <pt x="649" y="652" on="1"/>
        <pt x="573" y="276" on="1"/>
        <pt x="543" y="126" on="0"/>
        <pt x="412" y="-12" on="0"/>
        <pt x="308" y="-12" on="1"/>
        <pt x="192" y="-12" on="0"/>
        <pt x="75" y="99" on="0"/>
        <pt x="75" y="215" on="1"/>
        <pt x="75" y="237" on="0"/>
        <pt x="83" y="294" on="0"/>
        <pt x="88" y="320" on="1"/>
      </contour>
    </TTGlyph>
    <TTGlyph name="Uacute" xMin="75" yMin="-12" xMax="649" yMax="820">
      <component glyphName="U" x="0" y="0" flags="0x204"/>
      <component glyphName="uni0301.cap" x="285" y="0" flags="0x4"/>
    </TTGlyph>
    <TTGlyph name="Ubreve" xMin="75" yMin="-12" xMax="649" yMax="820">
      <component glyphName="U" x="0" y="0" flags="0x204"/>
      <component glyphName="uni0306.cap" x="285" y="0" flags="0x4"/>
    </TTGlyph>
    <TTGlyph name="Ucircumflex" xMin="75" yMin="-12" xMax="649" yMax="820">
      <component glyphName="U" x="0" y="0" flags="0x204"/>
      <component glyphName="uni0302.cap" x="285" y="0" flags="0x4"/>
    </TTGlyph>
    <TTGlyph name="Udieresis" xMin="75" yMin="-12" xMax="649" yMax="834">
      <component glyphName="U" x="0" y="0" flags="0x204"/>
      <component glyphName="uni0308.cap" x="285" y="0" flags="0x4"/>
    </TTGlyph>
    <TTGlyph name="Ugrave" xMin="75" yMin="-12" xMax="649" yMax="820">
      <component glyphName="U" x="0" y="0" flags="0x204"/>
      <component glyphName="uni0300.cap" x="285" y="0" flags="0x4"/>
    </TTGlyph>
    <TTGlyph name="Uhorn" xMin="75" yMin="-12" xMax="780" yMax="791">
      <contour>
        <pt x="767" y="791" on="1"/>
        <pt x="775" y="776" on="0"/>
        <pt x="780" y="746" on="0"/>
        <pt x="780" y="730" on="1"/>
        <pt x="780" y="685" on="0"/>
        <pt x="714" y="614" on="0"/>
        <pt x="638" y="598" on="1"/>
        <pt x="573" y="276" on="1"/>
        <pt x="543" y="126" on="0"/>
        <pt x="412" y="-12" on="0"/>
        <pt x="308" y="-12" on="1"/>
        <pt x="192" y="-12" on="0"/>
        <pt x="75" y="99" on="0"/>
        <pt x="75" y="215" on="1"/>
        <pt x="75" y="237" on="0"/>
        <pt x="83" y="294" on="0"/>
        <pt x="88" y="320" on="1"/>
        <pt x="155" y="652" on="1"/>
        <pt x="292" y="652" on="1"/>
        <pt x="221" y="295" on="1"/>
        <pt x="217" y="275" on="0"/>
        <pt x="213" y="237" on="0"/>
        <pt x="213" y="219" on="1"/>
        <pt x="213" y="164" on="0"/>
        <pt x="257" y="106" on="0"/>
        <pt x="312" y="106" on="1"/>
        <pt x="359" y="106" on="0"/>
        <pt x="421" y="183" on="0"/>
        <pt x="439" y="274" on="1"/>
        <pt x="515" y="652" on="1"/>
        <pt x="593" y="652" on="1"/>
        <pt x="630" y="656" on="0"/>
        <pt x="673" y="697" on="0"/>
        <pt x="673" y="723" on="1"/>
        <pt x="673" y="731" on="0"/>
        <pt x="669" y="750" on="0"/>
        <pt x="666" y="759" on="1"/>
      </contour>
    </TTGlyph>
    <TTGlyph name="Uhungarumlaut" xMin="75" yMin="-12" xMax="649" yMax="821">
      <component glyphName="U" x="0" y="0" flags="0x204"/>
      <component glyphName="uni030B.cap" x="285" y="0" flags="0x4"/>
    </TTGlyph>
    <TTGlyph name="Umacron" xMin="75" yMin="-12" xMax="649" yMax="808">
      <component glyphName="U" x="0" y="0" flags="0x204"/>
      <component glyphName="uni0304.cap" x="285" y="0" flags="0x4"/>
    </TTGlyph>
    <TTGlyph name="Uogonek" xMin="75" yMin="-222" xMax="649" yMax="652">
      <contour>
        <pt x="573" y="276" on="1"/>
        <pt x="561" y="211" on="0"/>
        <pt x="525" y="118" on="0"/>
        <pt x="475" y="53" on="0"/>
        <pt x="409" y="9" on="0"/>
        <pt x="367" y="-6" on="1"/>
        <pt x="314" y="-25" on="0"/>
        <pt x="269" y="-78" on="0"/>
        <pt x="269" y="-101" on="1"/>
        <pt x="269" y="-117" on="0"/>
        <pt x="290" y="-133" on="0"/>
        <pt x="304" y="-133" on="1"/>
        <pt x="310" y="-133" on="0"/>
        <pt x="323" y="-129" on="0"/>
        <pt x="331" y="-124" on="1"/>
        <pt x="357" y="-191" on="1"/>
        <pt x="336" y="-205" on="0"/>
        <pt x="278" y="-222" on="0"/>
        <pt x="254" y="-222" on="1"/>
        <pt x="212" y="-222" on="0"/>
        <pt x="161" y="-182" on="0"/>
        <pt x="161" y="-145" on="1"/>
        <pt x="161" y="-124" on="0"/>
        <pt x="178" y="-82" on="0"/>
        <pt x="204" y="-46" on="0"/>
        <pt x="234" y="-17" on="0"/>
        <pt x="248" y="-7" on="1"/>
        <pt x="163" y="7" on="0"/>
        <pt x="75" y="116" on="0"/>
        <pt x="75" y="215" on="1"/>
        <pt x="75" y="237" on="0"/>
        <pt x="83" y="294" on="0"/>
        <pt x="88" y="320" on="1"/>
        <pt x="155" y="652" on="1"/>
        <pt x="292" y="652" on="1"/>
        <pt x="221" y="295" on="1"/>
        <pt x="217" y="275" on="0"/>
        <pt x="213" y="237" on="0"/>
        <pt x="213" y="219" on="1"/>
        <pt x="213" y="164" on="0"/>
        <pt x="257" y="106" on="0"/>
        <pt x="312" y="106" on="1"/>
        <pt x="359" y="106" on="0"/>
        <pt x="421" y="183" on="0"/>
        <pt x="439" y="274" on="1"/>
        <pt x="515" y="652" on="1"/>
        <pt x="649" y="652" on="1"/>
      </contour>
    </TTGlyph>
    <TTGlyph name="Uring" xMin="75" yMin="-12" xMax="649" yMax="892">
      <component glyphName="U" x="0" y="0" flags="0x204"/>
      <component glyphName="uni030A.cap" x="285" y="0" flags="0x4"/>
    </TTGlyph>
    <TTGlyph name="Utilde" xMin="75" yMin="-12" xMax="649" yMax="833">
      <component glyphName="U" x="0" y="0" flags="0x204"/>
      <component glyphName="uni0303.cap" x="285" y="0" flags="0x4"/>
    </TTGlyph>
    <TTGlyph name="V" xMin="79" yMin="0" xMax="637" yMax="652">
      <contour>
        <pt x="79" y="652" on="1"/>
        <pt x="222" y="652" on="1"/>
        <pt x="239" y="331" on="1"/>
        <pt x="241" y="279" on="0"/>
        <pt x="245" y="175" on="0"/>
        <pt x="246" y="122" on="1"/>
        <pt x="250" y="122" on="1"/>
        <pt x="273" y="175" on="0"/>
        <pt x="318" y="279" on="0"/>
        <pt x="341" y="331" on="1"/>
        <pt x="486" y="652" on="1"/>
        <pt x="637" y="652" on="1"/>
        <pt x="300" y="0" on="1"/>
        <pt x="134" y="0" on="1"/>
      </contour>
    </TTGlyph>
    <TTGlyph name="W" xMin="77" yMin="0" xMax="851" yMax="652">
      <contour>
        <pt x="100" y="652" on="1"/>
        <pt x="240" y="652" on="1"/>
        <pt x="219" y="339" on="1"/>
        <pt x="214" y="287" on="0"/>
        <pt x="205" y="182" on="0"/>
        <pt x="199" y="130" on="1"/>
        <pt x="203" y="130" on="1"/>
        <pt x="223" y="182" on="0"/>
        <pt x="268" y="288" on="0"/>
        <pt x="288" y="339" on="1"/>
        <pt x="422" y="652" on="1"/>
        <pt x="538" y="652" on="1"/>
        <pt x="540" y="339" on="1"/>
        <pt x="539" y="288" on="0"/>
        <pt x="535" y="183" on="0"/>
        <pt x="533" y="130" on="1"/>
        <pt x="537" y="130" on="1"/>
        <pt x="555" y="183" on="0"/>
        <pt x="593" y="288" on="0"/>
        <pt x="610" y="339" on="1"/>
        <pt x="720" y="652" on="1"/>
        <pt x="851" y="652" on="1"/>
        <pt x="598" y="0" on="1"/>
        <pt x="425" y="0" on="1"/>
        <pt x="429" y="312" on="1"/>
        <pt x="429" y="344" on="0"/>
        <pt x="434" y="426" on="0"/>
        <pt x="438" y="464" on="1"/>
        <pt x="434" y="464" on="1"/>
        <pt x="420" y="427" on="0"/>
        <pt x="389" y="350" on="0"/>
        <pt x="375" y="312" on="1"/>
        <pt x="247" y="0" on="1"/>
        <pt x="77" y="0" on="1"/>
      </contour>
    </TTGlyph>
    <TTGlyph name="Wacute" xMin="77" yMin="0" xMax="851" yMax="820">
      <component glyphName="W" x="0" y="0" flags="0x204"/>
      <component glyphName="uni0301.cap" x="355" y="0" flags="0x4"/>
    </TTGlyph>
    <TTGlyph name="Wcircumflex" xMin="77" yMin="0" xMax="851" yMax="820">
      <component glyphName="W" x="0" y="0" flags="0x204"/>
      <component glyphName="uni0302.cap" x="355" y="0" flags="0x4"/>
    </TTGlyph>
    <TTGlyph name="Wdieresis" xMin="77" yMin="0" xMax="851" yMax="834">
      <component glyphName="W" x="0" y="0" flags="0x204"/>
      <component glyphName="uni0308.cap" x="355" y="0" flags="0x4"/>
    </TTGlyph>
    <TTGlyph name="Wgrave" xMin="77" yMin="0" xMax="851" yMax="820">
      <component glyphName="W" x="0" y="0" flags="0x204"/>
      <component glyphName="uni0300.cap" x="355" y="0" flags="0x4"/>
    </TTGlyph>
    <TTGlyph name="X" xMin="-36" yMin="0" xMax="604" yMax="652">
      <contour>
        <pt x="206" y="336" on="1"/>
        <pt x="105" y="652" on="1"/>
        <pt x="257" y="652" on="1"/>
        <pt x="290" y="521" on="1"/>
        <pt x="295" y="498" on="0"/>
        <pt x="306" y="448" on="0"/>
        <pt x="313" y="419" on="1"/>
        <pt x="317" y="419" on="1"/>
        <pt x="334" y="448" on="0"/>
        <pt x="365" y="499" on="0"/>
        <pt x="379" y="522" on="1"/>
        <pt x="458" y="652" on="1"/>
        <pt x="604" y="652" on="1"/>
        <pt x="375" y="330" on="1"/>
        <pt x="484" y="0" on="1"/>
        <pt x="332" y="0" on="1"/>
        <pt x="295" y="142" on="1"/>
        <pt x="288" y="168" on="0"/>
        <pt x="276" y="218" on="0"/>
        <pt x="269" y="247" on="1"/>
        <pt x="265" y="247" on="1"/>
        <pt x="248" y="218" on="0"/>
        <pt x="216" y="167" on="0"/>
        <pt x="200" y="141" on="1"/>
        <pt x="110" y="0" on="1"/>
        <pt x="-36" y="0" on="1"/>
      </contour>
    </TTGlyph>
    <TTGlyph name="Y" xMin="80" yMin="0" xMax="597" yMax="652">
      <contour>
        <pt x="184" y="236" on="1"/>
        <pt x="80" y="652" on="1"/>
        <pt x="222" y="652" on="1"/>
        <pt x="250" y="495" on="1"/>
        <pt x="257" y="458" on="0"/>
        <pt x="268" y="390" on="0"/>
        <pt x="275" y="352" on="1"/>
        <pt x="279" y="352" on="1"/>
        <pt x="299" y="390" on="0"/>
        <pt x="337" y="459" on="0"/>
        <pt x="359" y="497" on="1"/>
        <pt x="450" y="652" on="1"/>
        <pt x="597" y="652" on="1"/>
        <pt x="321" y="236" on="1"/>
        <pt x="274" y="0" on="1"/>
        <pt x="138" y="0" on="1"/>
      </contour>
    </TTGlyph>
    <TTGlyph name="Yacute" xMin="80" yMin="0" xMax="597" yMax="820">
      <component glyphName="Y" x="0" y="0" flags="0x204"/>
      <component glyphName="uni0301.cap" x="209" y="0" flags="0x4"/>
    </TTGlyph>
    <TTGlyph name="Ycircumflex" xMin="80" yMin="0" xMax="597" yMax="820">
      <component glyphName="Y" x="0" y="0" flags="0x204"/>
      <component glyphName="uni0302.cap" x="209" y="0" flags="0x4"/>
    </TTGlyph>
    <TTGlyph name="Ydieresis" xMin="80" yMin="0" xMax="597" yMax="834">
      <component glyphName="Y" x="0" y="0" flags="0x204"/>
      <component glyphName="uni0308.cap" x="209" y="0" flags="0x4"/>
    </TTGlyph>
    <TTGlyph name="Ygrave" xMin="80" yMin="0" xMax="597" yMax="820">
      <component glyphName="Y" x="0" y="0" flags="0x204"/>
      <component glyphName="uni0300.cap" x="209" y="0" flags="0x4"/>
    </TTGlyph>
    <TTGlyph name="Z" xMin="-5" yMin="0" xMax="556" yMax="652">
      <contour>
        <pt x="13" y="82" on="1"/>
        <pt x="369" y="537" on="1"/>
        <pt x="112" y="537" on="1"/>
        <pt x="135" y="652" on="1"/>
        <pt x="556" y="652" on="1"/>
        <pt x="539" y="569" on="1"/>
        <pt x="186" y="115" on="1"/>
        <pt x="469" y="115" on="1"/>
        <pt x="445" y="0" on="1"/>
        <pt x="-5" y="0" on="1"/>
      </contour>
    </TTGlyph>
    <TTGlyph name="Zacute" xMin="-5" yMin="0" xMax="556" yMax="820">
      <component glyphName="Z" x="0" y="0" flags="0x204"/>
      <component glyphName="uni0301.cap" x="229" y="0" flags="0x4"/>
    </TTGlyph>
    <TTGlyph name="Zcaron" xMin="-5" yMin="0" xMax="556" yMax="820">
      <component glyphName="Z" x="0" y="0" flags="0x204"/>
      <component glyphName="uni030C.cap" x="229" y="0" flags="0x4"/>
    </TTGlyph>
    <TTGlyph name="Zdotaccent" xMin="-5" yMin="0" xMax="556" yMax="850">
      <component glyphName="Z" x="0" y="0" flags="0x204"/>
      <component glyphName="uni0307.cap" x="229" y="0" flags="0x4"/>
    </TTGlyph>
    <TTGlyph name="a" xMin="31" yMin="-12" xMax="537" yMax="508">
      <contour>
        <pt x="31" y="170" on="1"/>
        <pt x="31" y="241" on="0"/>
        <pt x="75" y="364" on="0"/>
        <pt x="149" y="456" on="0"/>
        <pt x="245" y="508" on="0"/>
        <pt x="296" y="508" on="1"/>
        <pt x="330" y="508" on="0"/>
        <pt x="390" y="473" on="0"/>
        <pt x="404" y="443" on="1"/>
        <pt x="406" y="443" on="1"/>
        <pt x="428" y="496" on="1"/>
        <pt x="537" y="496" on="1"/>
        <pt x="438" y="0" on="1"/>
        <pt x="327" y="0" on="1"/>
        <pt x="329" y="65" on="1"/>
        <pt x="326" y="65" on="1"/>
        <pt x="292" y="30" on="0"/>
        <pt x="210" y="-12" on="0"/>
        <pt x="171" y="-12" on="1"/>
        <pt x="105" y="-12" on="0"/>
        <pt x="31" y="82" on="0"/>
      </contour>
      <contour>
        <pt x="231" y="100" on="1"/>
        <pt x="256" y="100" on="0"/>
        <pt x="313" y="131" on="0"/>
        <pt x="337" y="173" on="1"/>
        <pt x="372" y="349" on="1"/>
        <pt x="360" y="374" on="0"/>
        <pt x="323" y="396" on="0"/>
        <pt x="306" y="396" on="1"/>
        <pt x="280" y="396" on="0"/>
        <pt x="232" y="364" on="0"/>
        <pt x="195" y="308" on="0"/>
        <pt x="173" y="232" on="0"/>
        <pt x="173" y="187" on="1"/>
        <pt x="173" y="142" on="0"/>
        <pt x="204" y="100" on="0"/>
      </contour>
    </TTGlyph>
    <TTGlyph name="a.a" xMin="22" yMin="-12" xMax="465" yMax="508">
      <contour>
        <pt x="22" y="112" on="1"/>
        <pt x="22" y="166" on="0"/>
        <pt x="69" y="241" on="0"/>
        <pt x="152" y="287" on="0"/>
        <pt x="263" y="308" on="0"/>
        <pt x="327" y="310" on="1"/>
        <pt x="329" y="318" on="0"/>
        <pt x="330" y="328" on="0"/>
        <pt x="330" y="333" on="1"/>
        <pt x="330" y="371" on="0"/>
        <pt x="295" y="401" on="0"/>
        <pt x="264" y="401" on="1"/>
        <pt x="232" y="401" on="0"/>
        <pt x="177" y="382" on="0"/>
        <pt x="141" y="363" on="1"/>
        <pt x="99" y="458" on="1"/>
        <pt x="144" y="480" on="0"/>
        <pt x="244" y="508" on="0"/>
        <pt x="294" y="508" on="1"/>
        <pt x="375" y="508" on="0"/>
        <pt x="465" y="429" on="0"/>
        <pt x="465" y="346" on="1"/>
        <pt x="465" y="330" on="0"/>
        <pt x="462" y="294" on="0"/>
        <pt x="457" y="275" on="1"/>
        <pt x="402" y="0" on="1"/>
        <pt x="292" y="0" on="1"/>
        <pt x="291" y="50" on="1"/>
        <pt x="287" y="50" on="1"/>
        <pt x="261" y="25" on="0"/>
        <pt x="185" y="-12" on="0"/>
        <pt x="146" y="-12" on="1"/>
        <pt x="120" y="-12" on="0"/>
        <pt x="75" y="5" on="0"/>
        <pt x="42" y="38" on="0"/>
        <pt x="22" y="83" on="0"/>
      </contour>
      <contour>
        <pt x="311" y="227" on="1"/>
        <pt x="230" y="225" on="0"/>
        <pt x="155" y="177" on="0"/>
        <pt x="155" y="139" on="1"/>
        <pt x="155" y="117" on="0"/>
        <pt x="186" y="93" on="0"/>
        <pt x="210" y="93" on="1"/>
        <pt x="232" y="93" on="0"/>
        <pt x="271" y="116" on="0"/>
        <pt x="292" y="135" on="1"/>
      </contour>
    </TTGlyph>
    <TTGlyph name="a.supa" xMin="54" yMin="254" xMax="353" yMax="598">
      <contour>
        <pt x="54" y="336" on="1"/>
        <pt x="54" y="372" on="0"/>
        <pt x="85" y="421" on="0"/>
        <pt x="140" y="452" on="0"/>
        <pt x="214" y="466" on="0"/>
        <pt x="256" y="468" on="1"/>
        <pt x="256" y="472" on="0"/>
        <pt x="257" y="477" on="0"/>
        <pt x="257" y="479" on="1"/>
        <pt x="257" y="503" on="0"/>
        <pt x="234" y="524" on="0"/>
        <pt x="213" y="524" on="1"/>
        <pt x="194" y="524" on="0"/>
        <pt x="160" y="511" on="0"/>
        <pt x="136" y="500" on="1"/>
        <pt x="106" y="565" on="1"/>
        <pt x="136" y="579" on="0"/>
        <pt x="202" y="598" on="0"/>
        <pt x="235" y="598" on="1"/>
        <pt x="292" y="598" on="0"/>
        <pt x="353" y="547" on="0"/>
        <pt x="353" y="490" on="1"/>
        <pt x="353" y="479" on="0"/>
        <pt x="349" y="456" on="0"/>
        <pt x="347" y="442" on="1"/>
        <pt x="311" y="262" on="1"/>
        <pt x="235" y="262" on="1"/>
        <pt x="233" y="296" on="1"/>
        <pt x="229" y="296" on="1"/>
        <pt x="212" y="278" on="0"/>
        <pt x="163" y="254" on="0"/>
        <pt x="137" y="254" on="1"/>
        <pt x="102" y="254" on="0"/>
        <pt x="54" y="298" on="0"/>
      </contour>
      <contour>
        <pt x="245" y="410" on="1"/>
        <pt x="194" y="408" on="0"/>
        <pt x="147" y="378" on="0"/>
        <pt x="147" y="355" on="1"/>
        <pt x="147" y="341" on="0"/>
        <pt x="165" y="326" on="0"/>
        <pt x="180" y="326" on="1"/>
        <pt x="195" y="326" on="0"/>
        <pt x="220" y="342" on="0"/>
        <pt x="233" y="353" on="1"/>
      </contour>
    </TTGlyph>
    <TTGlyph name="a.sups" xMin="54" yMin="254" xMax="396" yMax="599">
      <contour>
        <pt x="54" y="375" on="1"/>
        <pt x="54" y="422" on="0"/>
        <pt x="84" y="504" on="0"/>
        <pt x="133" y="564" on="0"/>
        <pt x="197" y="599" on="0"/>
        <pt x="232" y="599" on="1"/>
        <pt x="253" y="599" on="0"/>
        <pt x="289" y="576" on="0"/>
        <pt x="299" y="556" on="1"/>
        <pt x="303" y="556" on="1"/>
        <pt x="318" y="591" on="1"/>
        <pt x="396" y="591" on="1"/>
        <pt x="330" y="262" on="1"/>
        <pt x="252" y="262" on="1"/>
        <pt x="254" y="304" on="1"/>
        <pt x="250" y="304" on="1"/>
        <pt x="228" y="281" on="0"/>
        <pt x="174" y="254" on="0"/>
        <pt x="148" y="254" on="1"/>
        <pt x="104" y="254" on="0"/>
        <pt x="54" y="316" on="0"/>
      </contour>
      <contour>
        <pt x="188" y="332" on="1"/>
        <pt x="205" y="332" on="0"/>
        <pt x="241" y="353" on="0"/>
        <pt x="258" y="380" on="1"/>
        <pt x="278" y="491" on="1"/>
        <pt x="271" y="507" on="0"/>
        <pt x="249" y="521" on="0"/>
        <pt x="238" y="521" on="1"/>
        <pt x="222" y="521" on="0"/>
        <pt x="191" y="500" on="0"/>
        <pt x="167" y="464" on="0"/>
        <pt x="153" y="415" on="0"/>
        <pt x="153" y="387" on="1"/>
        <pt x="153" y="358" on="0"/>
        <pt x="173" y="332" on="0"/>
      </contour>
    </TTGlyph>
    <TTGlyph name="aacute" xMin="31" yMin="-12" xMax="537" yMax="722">
      <component glyphName="a" x="0" y="0" flags="0x204"/>
      <component glyphName="uni0301" x="218" y="0" flags="0x4"/>
    </TTGlyph>
    <TTGlyph name="aacute.a" xMin="22" yMin="-12" xMax="481" yMax="722">
      <component glyphName="a.a" x="0" y="0" flags="0x204"/>
      <component glyphName="uni0301" x="198" y="0" flags="0x4"/>
    </TTGlyph>
    <TTGlyph name="abreve" xMin="31" yMin="-12" xMax="537" yMax="711">
      <component glyphName="a" x="0" y="0" flags="0x204"/>
      <component glyphName="uni0306" x="218" y="0" flags="0x4"/>
    </TTGlyph>
    <TTGlyph name="abreve.a" xMin="22" yMin="-12" xMax="472" yMax="711">
      <component glyphName="a.a" x="0" y="0" flags="0x204"/>
      <component glyphName="uni0306" x="198" y="0" flags="0x4"/>
    </TTGlyph>
    <TTGlyph name="acircumflex" xMin="31" yMin="-12" xMax="537" yMax="722">
      <component glyphName="a" x="0" y="0" flags="0x204"/>
      <component glyphName="uni0302" x="218" y="0" flags="0x4"/>
    </TTGlyph>
    <TTGlyph name="acircumflex.a" xMin="22" yMin="-12" xMax="465" yMax="722">
      <component glyphName="a.a" x="0" y="0" flags="0x204"/>
      <component glyphName="uni0302" x="198" y="0" flags="0x4"/>
    </TTGlyph>
    <TTGlyph name="acute" xMin="249" yMin="573" xMax="502" yMax="722">
      <component glyphName="uni0301" x="219" y="0" flags="0x4"/>
    </TTGlyph>
    <TTGlyph name="adieresis" xMin="31" yMin="-12" xMax="537" yMax="706">
      <component glyphName="a" x="0" y="0" flags="0x204"/>
      <component glyphName="uni0308" x="218" y="0" flags="0x4"/>
    </TTGlyph>
    <TTGlyph name="adieresis.a" xMin="22" yMin="-12" xMax="485" yMax="706">
      <component glyphName="a.a" x="0" y="0" flags="0x204"/>
      <component glyphName="uni0308" x="198" y="0" flags="0x4"/>
    </TTGlyph>
    <TTGlyph name="ae" xMin="22" yMin="-12" xMax="725" yMax="508">
      <contour>
        <pt x="22" y="112" on="1"/>
        <pt x="22" y="166" on="0"/>
        <pt x="69" y="241" on="0"/>
        <pt x="152" y="287" on="0"/>
        <pt x="263" y="308" on="0"/>
        <pt x="326" y="310" on="1"/>
        <pt x="327" y="316" on="0"/>
        <pt x="327" y="326" on="0"/>
        <pt x="327" y="331" on="1"/>
        <pt x="327" y="368" on="0"/>
        <pt x="293" y="401" on="0"/>
        <pt x="260" y="401" on="1"/>
        <pt x="231" y="401" on="0"/>
        <pt x="168" y="380" on="0"/>
        <pt x="133" y="363" on="1"/>
        <pt x="103" y="458" on="1"/>
        <pt x="147" y="480" on="0"/>
        <pt x="244" y="508" on="0"/>
        <pt x="294" y="508" on="1"/>
        <pt x="338" y="508" on="0"/>
        <pt x="400" y="476" on="0"/>
        <pt x="416" y="441" on="1"/>
        <pt x="448" y="473" on="0"/>
        <pt x="525" y="508" on="0"/>
        <pt x="563" y="508" on="1"/>
        <pt x="608" y="508" on="0"/>
        <pt x="669" y="479" on="0"/>
        <pt x="708" y="428" on="0"/>
        <pt x="725" y="361" on="0"/>
        <pt x="725" y="322" on="1"/>
        <pt x="725" y="304" on="0"/>
        <pt x="719" y="269" on="0"/>
        <pt x="712" y="238" on="0"/>
        <pt x="703" y="215" on="0"/>
        <pt x="700" y="209" on="1"/>
        <pt x="428" y="209" on="1"/>
        <pt x="423" y="150" on="0"/>
        <pt x="482" y="91" on="0"/>
        <pt x="530" y="91" on="1"/>
        <pt x="553" y="91" on="0"/>
        <pt x="602" y="113" on="0"/>
        <pt x="620" y="126" on="1"/>
        <pt x="669" y="40" on="1"/>
        <pt x="640" y="19" on="0"/>
        <pt x="554" y="-12" on="0"/>
        <pt x="500" y="-12" on="1"/>
        <pt x="447" y="-12" on="0"/>
        <pt x="363" y="35" on="0"/>
        <pt x="343" y="69" on="1"/>
        <pt x="298" y="31" on="0"/>
        <pt x="209" y="-12" on="0"/>
        <pt x="155" y="-12" on="1"/>
        <pt x="127" y="-12" on="0"/>
        <pt x="78" y="5" on="0"/>
        <pt x="42" y="38" on="0"/>
        <pt x="22" y="83" on="0"/>
      </contour>
      <contour>
        <pt x="609" y="293" on="1"/>
        <pt x="611" y="304" on="0"/>
        <pt x="613" y="319" on="0"/>
        <pt x="613" y="330" on="1"/>
        <pt x="613" y="360" on="0"/>
        <pt x="584" y="403" on="0"/>
        <pt x="546" y="403" on="1"/>
        <pt x="515" y="403" on="0"/>
        <pt x="455" y="348" on="0"/>
        <pt x="439" y="293" on="1"/>
      </contour>
      <contour>
        <pt x="308" y="227" on="1"/>
        <pt x="230" y="225" on="0"/>
        <pt x="155" y="177" on="0"/>
        <pt x="155" y="139" on="1"/>
        <pt x="155" y="117" on="0"/>
        <pt x="186" y="93" on="0"/>
        <pt x="210" y="93" on="1"/>
        <pt x="232" y="93" on="0"/>
        <pt x="283" y="122" on="0"/>
        <pt x="309" y="152" on="1"/>
        <pt x="307" y="170" on="0"/>
        <pt x="306" y="205" on="0"/>
      </contour>
    </TTGlyph>
    <TTGlyph name="agrave" xMin="31" yMin="-12" xMax="537" yMax="722">
      <component glyphName="a" x="0" y="0" flags="0x204"/>
      <component glyphName="uni0300" x="218" y="0" flags="0x4"/>
    </TTGlyph>
    <TTGlyph name="agrave.a" xMin="22" yMin="-12" xMax="465" yMax="722">
      <component glyphName="a.a" x="0" y="0" flags="0x204"/>
      <component glyphName="uni0300" x="198" y="0" flags="0x4"/>
    </TTGlyph>
    <TTGlyph name="amacron" xMin="31" yMin="-12" xMax="537" yMax="680">
      <component glyphName="a" x="0" y="0" flags="0x204"/>
      <component glyphName="uni0304" x="218" y="0" flags="0x4"/>
    </TTGlyph>
    <TTGlyph name="amacron.a" xMin="22" yMin="-12" xMax="465" yMax="680">
      <component glyphName="a.a" x="0" y="0" flags="0x204"/>
      <component glyphName="uni0304" x="198" y="0" flags="0x4"/>
    </TTGlyph>
    <TTGlyph name="ampersand" xMin="14" yMin="-12" xMax="638" yMax="664">
      <contour>
        <pt x="147" y="165" on="1"/>
        <pt x="147" y="133" on="0"/>
        <pt x="188" y="91" on="0"/>
        <pt x="224" y="91" on="1"/>
        <pt x="271" y="91" on="0"/>
        <pt x="318" y="117" on="1"/>
        <pt x="286" y="149" on="0"/>
        <pt x="231" y="223" on="0"/>
        <pt x="209" y="263" on="1"/>
        <pt x="181" y="241" on="0"/>
        <pt x="147" y="194" on="0"/>
      </contour>
      <contour>
        <pt x="260" y="473" on="1"/>
        <pt x="260" y="446" on="0"/>
        <pt x="268" y="414" on="1"/>
        <pt x="312" y="438" on="0"/>
        <pt x="372" y="493" on="0"/>
        <pt x="372" y="534" on="1"/>
        <pt x="372" y="552" on="0"/>
        <pt x="354" y="573" on="0"/>
        <pt x="336" y="573" on="1"/>
        <pt x="306" y="573" on="0"/>
        <pt x="260" y="520" on="0"/>
      </contour>
      <contour>
        <pt x="638" y="367" on="1"/>
        <pt x="609" y="305" on="0"/>
        <pt x="538" y="189" on="0"/>
        <pt x="491" y="137" on="1"/>
        <pt x="517" y="121" on="0"/>
        <pt x="567" y="101" on="0"/>
        <pt x="587" y="96" on="1"/>
        <pt x="533" y="-12" on="1"/>
        <pt x="499" y="-4" on="0"/>
        <pt x="430" y="27" on="0"/>
        <pt x="397" y="50" on="1"/>
        <pt x="354" y="20" on="0"/>
        <pt x="256" y="-12" on="0"/>
        <pt x="200" y="-12" on="1"/>
        <pt x="112" y="-12" on="0"/>
        <pt x="14" y="78" on="0"/>
        <pt x="14" y="150" on="1"/>
        <pt x="14" y="190" on="0"/>
        <pt x="39" y="253" on="0"/>
        <pt x="81" y="303" on="0"/>
        <pt x="135" y="343" on="0"/>
        <pt x="165" y="360" on="1"/>
        <pt x="156" y="388" on="0"/>
        <pt x="146" y="443" on="0"/>
        <pt x="146" y="469" on="1"/>
        <pt x="146" y="509" on="0"/>
        <pt x="177" y="580" on="0"/>
        <pt x="231" y="633" on="0"/>
        <pt x="303" y="664" on="0"/>
        <pt x="344" y="664" on="1"/>
        <pt x="410" y="664" on="0"/>
        <pt x="478" y="593" on="0"/>
        <pt x="478" y="533" on="1"/>
        <pt x="478" y="496" on="0"/>
        <pt x="448" y="436" on="0"/>
        <pt x="400" y="387" on="0"/>
        <pt x="339" y="345" on="0"/>
        <pt x="307" y="326" on="1"/>
        <pt x="327" y="291" on="0"/>
        <pt x="381" y="226" on="0"/>
        <pt x="411" y="198" on="1"/>
        <pt x="444" y="236" on="0"/>
        <pt x="494" y="319" on="0"/>
        <pt x="514" y="367" on="1"/>
      </contour>
    </TTGlyph>
    <TTGlyph name="aogonek" xMin="31" yMin="-210" xMax="537" yMax="508">
      <contour>
        <pt x="31" y="170" on="1"/>
        <pt x="31" y="241" on="0"/>
        <pt x="75" y="364" on="0"/>
        <pt x="149" y="456" on="0"/>
        <pt x="245" y="508" on="0"/>
        <pt x="296" y="508" on="1"/>
        <pt x="330" y="508" on="0"/>
        <pt x="390" y="472" on="0"/>
        <pt x="404" y="443" on="1"/>
        <pt x="406" y="443" on="1"/>
        <pt x="428" y="496" on="1"/>
        <pt x="537" y="496" on="1"/>
        <pt x="438" y="0" on="1"/>
        <pt x="389" y="-15" on="0"/>
        <pt x="332" y="-67" on="0"/>
        <pt x="332" y="-98" on="1"/>
        <pt x="332" y="-112" on="0"/>
        <pt x="353" y="-128" on="0"/>
        <pt x="367" y="-128" on="1"/>
        <pt x="381" y="-128" on="0"/>
        <pt x="399" y="-118" on="1"/>
        <pt x="422" y="-174" on="1"/>
        <pt x="401" y="-189" on="0"/>
        <pt x="343" y="-210" on="0"/>
        <pt x="319" y="-210" on="1"/>
        <pt x="281" y="-210" on="0"/>
        <pt x="233" y="-173" on="0"/>
        <pt x="233" y="-137" on="1"/>
        <pt x="233" y="-113" on="0"/>
        <pt x="253" y="-70" on="0"/>
        <pt x="282" y="-34" on="0"/>
        <pt x="315" y="-7" on="0"/>
        <pt x="327" y="2" on="1"/>
        <pt x="329" y="65" on="1"/>
        <pt x="327" y="65" on="1"/>
        <pt x="293" y="30" on="0"/>
        <pt x="210" y="-12" on="0"/>
        <pt x="171" y="-12" on="1"/>
        <pt x="105" y="-12" on="0"/>
        <pt x="31" y="82" on="0"/>
      </contour>
      <contour>
        <pt x="231" y="100" on="1"/>
        <pt x="254" y="100" on="0"/>
        <pt x="313" y="131" on="0"/>
        <pt x="337" y="173" on="1"/>
        <pt x="372" y="349" on="1"/>
        <pt x="360" y="374" on="0"/>
        <pt x="323" y="396" on="0"/>
        <pt x="306" y="396" on="1"/>
        <pt x="280" y="396" on="0"/>
        <pt x="232" y="364" on="0"/>
        <pt x="195" y="308" on="0"/>
        <pt x="173" y="232" on="0"/>
        <pt x="173" y="187" on="1"/>
        <pt x="173" y="142" on="0"/>
        <pt x="204" y="100" on="0"/>
      </contour>
    </TTGlyph>
    <TTGlyph name="aogonek.a" xMin="22" yMin="-210" xMax="465" yMax="508">
      <contour>
        <pt x="291" y="50" on="1"/>
        <pt x="287" y="50" on="1"/>
        <pt x="261" y="25" on="0"/>
        <pt x="185" y="-12" on="0"/>
        <pt x="146" y="-12" on="1"/>
        <pt x="120" y="-12" on="0"/>
        <pt x="75" y="5" on="0"/>
        <pt x="42" y="38" on="0"/>
        <pt x="22" y="83" on="0"/>
        <pt x="22" y="112" on="1"/>
        <pt x="22" y="166" on="0"/>
        <pt x="69" y="241" on="0"/>
        <pt x="152" y="287" on="0"/>
        <pt x="263" y="308" on="0"/>
        <pt x="327" y="310" on="1"/>
        <pt x="329" y="318" on="0"/>
        <pt x="330" y="328" on="0"/>
        <pt x="330" y="333" on="1"/>
        <pt x="330" y="371" on="0"/>
        <pt x="295" y="401" on="0"/>
        <pt x="264" y="401" on="1"/>
        <pt x="232" y="401" on="0"/>
        <pt x="177" y="382" on="0"/>
        <pt x="141" y="363" on="1"/>
        <pt x="99" y="458" on="1"/>
        <pt x="144" y="480" on="0"/>
        <pt x="244" y="508" on="0"/>
        <pt x="294" y="508" on="1"/>
        <pt x="375" y="508" on="0"/>
        <pt x="465" y="429" on="0"/>
        <pt x="465" y="346" on="1"/>
        <pt x="465" y="330" on="0"/>
        <pt x="462" y="294" on="0"/>
        <pt x="457" y="275" on="1"/>
        <pt x="402" y="0" on="1"/>
        <pt x="353" y="-15" on="0"/>
        <pt x="297" y="-67" on="0"/>
        <pt x="297" y="-98" on="1"/>
        <pt x="297" y="-112" on="0"/>
        <pt x="317" y="-128" on="0"/>
        <pt x="331" y="-128" on="1"/>
        <pt x="346" y="-128" on="0"/>
        <pt x="363" y="-118" on="1"/>
        <pt x="387" y="-174" on="1"/>
        <pt x="366" y="-189" on="0"/>
        <pt x="308" y="-210" on="0"/>
        <pt x="283" y="-210" on="1"/>
        <pt x="246" y="-210" on="0"/>
        <pt x="197" y="-173" on="0"/>
        <pt x="197" y="-137" on="1"/>
        <pt x="197" y="-113" on="0"/>
        <pt x="217" y="-70" on="0"/>
        <pt x="246" y="-34" on="0"/>
        <pt x="279" y="-7" on="0"/>
        <pt x="292" y="2" on="1"/>
      </contour>
      <contour>
        <pt x="311" y="227" on="1"/>
        <pt x="230" y="225" on="0"/>
        <pt x="155" y="177" on="0"/>
        <pt x="155" y="139" on="1"/>
        <pt x="155" y="117" on="0"/>
        <pt x="186" y="93" on="0"/>
        <pt x="210" y="93" on="1"/>
        <pt x="232" y="93" on="0"/>
        <pt x="271" y="116" on="0"/>
        <pt x="292" y="135" on="1"/>
      </contour>
    </TTGlyph>
    <TTGlyph name="approxequal" xMin="38" yMin="131" xMax="485" yMax="532">
      <component glyphName="asciitilde" x="0" y="116" flags="0x204"/>
      <component glyphName="asciitilde" x="0" y="-115" flags="0x4"/>
    </TTGlyph>
    <TTGlyph name="aring" xMin="31" yMin="-12" xMax="537" yMax="749">
      <component glyphName="a" x="0" y="0" flags="0x204"/>
      <component glyphName="uni030A" x="218" y="2" flags="0x4"/>
    </TTGlyph>
    <TTGlyph name="aring.a" xMin="22" yMin="-12" xMax="465" yMax="749">
      <component glyphName="a.a" x="0" y="0" flags="0x204"/>
      <component glyphName="uni030A" x="198" y="2" flags="0x4"/>
    </TTGlyph>
    <TTGlyph name="arrowdown" xMin="27" yMin="-28" xMax="565" yMax="529">
      <contour>
        <pt x="294" y="-28" on="1"/>
        <pt x="27" y="239" on="1"/>
        <pt x="99" y="303" on="1"/>
        <pt x="241" y="155" on="1"/>
        <pt x="241" y="529" on="1"/>
        <pt x="351" y="529" on="1"/>
        <pt x="351" y="155" on="1"/>
        <pt x="493" y="303" on="1"/>
        <pt x="565" y="239" on="1"/>
        <pt x="298" y="-28" on="1"/>
      </contour>
    </TTGlyph>
    <TTGlyph name="arrowup" xMin="27" yMin="-28" xMax="565" yMax="529">
      <contour>
        <pt x="298" y="529" on="1"/>
        <pt x="565" y="263" on="1"/>
        <pt x="493" y="199" on="1"/>
        <pt x="351" y="347" on="1"/>
        <pt x="351" y="-28" on="1"/>
        <pt x="241" y="-28" on="1"/>
        <pt x="241" y="347" on="1"/>
        <pt x="99" y="199" on="1"/>
        <pt x="27" y="263" on="1"/>
        <pt x="294" y="529" on="1"/>
      </contour>
    </TTGlyph>
    <TTGlyph name="asciicircum" xMin="72" yMin="275" xMax="478" yMax="670">
      <contour>
        <pt x="221" y="670" on="1"/>
        <pt x="329" y="670" on="1"/>
        <pt x="478" y="275" on="1"/>
        <pt x="366" y="275" on="1"/>
        <pt x="321" y="410" on="1"/>
        <pt x="278" y="545" on="1"/>
        <pt x="274" y="545" on="1"/>
        <pt x="230" y="410" on="1"/>
        <pt x="184" y="275" on="1"/>
        <pt x="72" y="275" on="1"/>
      </contour>
    </TTGlyph>
    <TTGlyph name="asciitilde" xMin="38" yMin="246" xMax="485" yMax="416">
      <contour>
        <pt x="38" y="314" on="1"/>
        <pt x="70" y="371" on="0"/>
        <pt x="146" y="416" on="0"/>
        <pt x="181" y="416" on="1"/>
        <pt x="209" y="416" on="0"/>
        <pt x="254" y="392" on="0"/>
        <pt x="292" y="363" on="0"/>
        <pt x="327" y="339" on="0"/>
        <pt x="347" y="339" on="1"/>
        <pt x="387" y="339" on="0"/>
        <pt x="415" y="395" on="1"/>
        <pt x="485" y="348" on="1"/>
        <pt x="453" y="291" on="0"/>
        <pt x="378" y="246" on="0"/>
        <pt x="342" y="246" on="1"/>
        <pt x="314" y="246" on="0"/>
        <pt x="270" y="270" on="0"/>
        <pt x="232" y="299" on="0"/>
        <pt x="196" y="323" on="0"/>
        <pt x="176" y="323" on="1"/>
        <pt x="136" y="323" on="0"/>
        <pt x="108" y="267" on="1"/>
      </contour>
    </TTGlyph>
    <TTGlyph name="asterisk" xMin="101" yMin="354" xMax="458" yMax="714">
      <contour>
        <pt x="121" y="415" on="1"/>
        <pt x="196" y="513" on="1"/>
        <pt x="101" y="568" on="1"/>
        <pt x="132" y="633" on="1"/>
        <pt x="239" y="599" on="1"/>
        <pt x="271" y="714" on="1"/>
        <pt x="342" y="708" on="1"/>
        <pt x="334" y="591" on="1"/>
        <pt x="448" y="605" on="1"/>
        <pt x="458" y="535" on="1"/>
        <pt x="348" y="497" on="1"/>
        <pt x="386" y="391" on="1"/>
        <pt x="321" y="354" on="1"/>
        <pt x="260" y="448" on="1"/>
        <pt x="173" y="366" on="1"/>
      </contour>
    </TTGlyph>
    <TTGlyph name="at" xMin="43" yMin="-170" xMax="830" yMax="666">
      <contour>
        <pt x="616" y="124" on="1"/>
        <pt x="636" y="124" on="0"/>
        <pt x="681" y="152" on="0"/>
        <pt x="718" y="207" on="0"/>
        <pt x="742" y="290" on="0"/>
        <pt x="742" y="344" on="1"/>
        <pt x="742" y="391" on="0"/>
        <pt x="716" y="478" on="0"/>
        <pt x="656" y="545" on="0"/>
        <pt x="560" y="585" on="0"/>
        <pt x="490" y="585" on="1"/>
        <pt x="427" y="585" on="0"/>
        <pt x="301" y="523" on="0"/>
        <pt x="200" y="413" on="0"/>
        <pt x="137" y="265" on="0"/>
        <pt x="137" y="178" on="1"/>
        <pt x="137" y="111" on="0"/>
        <pt x="181" y="12" on="0"/>
        <pt x="252" y="-54" on="0"/>
        <pt x="343" y="-86" on="0"/>
        <pt x="391" y="-86" on="1"/>
        <pt x="419" y="-86" on="0"/>
        <pt x="484" y="-68" on="0"/>
        <pt x="510" y="-52" on="1"/>
        <pt x="546" y="-126" on="1"/>
        <pt x="504" y="-148" on="0"/>
        <pt x="422" y="-170" on="0"/>
        <pt x="379" y="-170" on="1"/>
        <pt x="312" y="-170" on="0"/>
        <pt x="190" y="-128" on="0"/>
        <pt x="98" y="-45" on="0"/>
        <pt x="43" y="79" on="0"/>
        <pt x="43" y="162" on="1"/>
        <pt x="43" y="268" on="0"/>
        <pt x="118" y="453" on="0"/>
        <pt x="245" y="588" on="0"/>
        <pt x="412" y="666" on="0"/>
        <pt x="503" y="666" on="1"/>
        <pt x="581" y="666" on="0"/>
        <pt x="702" y="618" on="0"/>
        <pt x="786" y="535" on="0"/>
        <pt x="830" y="422" on="0"/>
        <pt x="830" y="358" on="1"/>
        <pt x="830" y="278" on="0"/>
        <pt x="791" y="159" on="0"/>
        <pt x="726" y="79" on="0"/>
        <pt x="639" y="39" on="0"/>
        <pt x="591" y="39" on="1"/>
        <pt x="556" y="39" on="0"/>
        <pt x="501" y="77" on="0"/>
        <pt x="492" y="114" on="1"/>
        <pt x="488" y="114" on="1"/>
        <pt x="469" y="85" on="0"/>
        <pt x="407" y="49" on="0"/>
        <pt x="376" y="49" on="1"/>
        <pt x="322" y="49" on="0"/>
        <pt x="251" y="127" on="0"/>
        <pt x="251" y="193" on="1"/>
        <pt x="251" y="240" on="0"/>
        <pt x="283" y="329" on="0"/>
        <pt x="339" y="398" on="0"/>
        <pt x="412" y="440" on="0"/>
        <pt x="454" y="440" on="1"/>
        <pt x="499" y="440" on="0"/>
        <pt x="524" y="391" on="1"/>
        <pt x="526" y="391" on="1"/>
        <pt x="541" y="432" on="1"/>
        <pt x="624" y="432" on="1"/>
        <pt x="573" y="210" on="1"/>
        <pt x="553" y="124" on="0"/>
      </contour>
      <contour>
        <pt x="353" y="201" on="1"/>
        <pt x="353" y="169" on="0"/>
        <pt x="380" y="134" on="0"/>
        <pt x="404" y="134" on="1"/>
        <pt x="420" y="134" on="0"/>
        <pt x="451" y="157" on="0"/>
        <pt x="470" y="183" on="1"/>
        <pt x="501" y="322" on="1"/>
        <pt x="485" y="353" on="0"/>
        <pt x="457" y="353" on="1"/>
        <pt x="435" y="353" on="0"/>
        <pt x="397" y="324" on="0"/>
        <pt x="369" y="279" on="0"/>
        <pt x="353" y="225" on="0"/>
      </contour>
    </TTGlyph>
    <TTGlyph name="at.case" xMin="87" yMin="-32" xMax="795" yMax="699">
      <contour>
        <pt x="611" y="225" on="1"/>
        <pt x="627" y="225" on="0"/>
        <pt x="662" y="251" on="0"/>
        <pt x="691" y="302" on="0"/>
        <pt x="710" y="377" on="0"/>
        <pt x="710" y="425" on="1"/>
        <pt x="710" y="464" on="0"/>
        <pt x="688" y="536" on="0"/>
        <pt x="638" y="590" on="0"/>
        <pt x="556" y="622" on="0"/>
        <pt x="496" y="622" on="1"/>
        <pt x="440" y="622" on="0"/>
        <pt x="326" y="568" on="0"/>
        <pt x="234" y="474" on="0"/>
        <pt x="177" y="347" on="0"/>
        <pt x="177" y="273" on="1"/>
        <pt x="177" y="217" on="0"/>
        <pt x="208" y="133" on="0"/>
        <pt x="264" y="76" on="0"/>
        <pt x="341" y="47" on="0"/>
        <pt x="386" y="47" on="1"/>
        <pt x="399" y="47" on="0"/>
        <pt x="431" y="51" on="0"/>
        <pt x="464" y="58" on="0"/>
        <pt x="494" y="69" on="0"/>
        <pt x="506" y="77" on="1"/>
        <pt x="523" y="7" on="1"/>
        <pt x="486" y="-15" on="0"/>
        <pt x="403" y="-32" on="0"/>
        <pt x="367" y="-32" on="1"/>
        <pt x="307" y="-32" on="0"/>
        <pt x="204" y="7" on="0"/>
        <pt x="129" y="80" on="0"/>
        <pt x="87" y="187" on="0"/>
        <pt x="87" y="255" on="1"/>
        <pt x="87" y="354" on="0"/>
        <pt x="159" y="517" on="0"/>
        <pt x="276" y="634" on="0"/>
        <pt x="426" y="699" on="0"/>
        <pt x="504" y="699" on="1"/>
        <pt x="578" y="699" on="0"/>
        <pt x="688" y="657" on="0"/>
        <pt x="760" y="584" on="0"/>
        <pt x="795" y="487" on="0"/>
        <pt x="795" y="432" on="1"/>
        <pt x="795" y="361" on="0"/>
        <pt x="761" y="252" on="0"/>
        <pt x="703" y="178" on="0"/>
        <pt x="625" y="140" on="0"/>
        <pt x="582" y="140" on="1"/>
        <pt x="549" y="140" on="0"/>
        <pt x="499" y="177" on="0"/>
        <pt x="491" y="214" on="1"/>
        <pt x="488" y="214" on="1"/>
        <pt x="469" y="185" on="0"/>
        <pt x="409" y="149" on="0"/>
        <pt x="381" y="149" on="1"/>
        <pt x="332" y="149" on="0"/>
        <pt x="270" y="224" on="0"/>
        <pt x="270" y="287" on="1"/>
        <pt x="270" y="328" on="0"/>
        <pt x="299" y="407" on="0"/>
        <pt x="350" y="470" on="0"/>
        <pt x="419" y="508" on="0"/>
        <pt x="458" y="508" on="1"/>
        <pt x="501" y="508" on="0"/>
        <pt x="521" y="460" on="1"/>
        <pt x="522" y="460" on="1"/>
        <pt x="539" y="500" on="1"/>
        <pt x="621" y="500" on="1"/>
        <pt x="575" y="310" on="1"/>
        <pt x="554" y="225" on="0"/>
      </contour>
      <contour>
        <pt x="371" y="296" on="1"/>
        <pt x="371" y="267" on="0"/>
        <pt x="392" y="234" on="0"/>
        <pt x="412" y="234" on="1"/>
        <pt x="426" y="234" on="0"/>
        <pt x="454" y="257" on="0"/>
        <pt x="471" y="283" on="1"/>
        <pt x="495" y="390" on="1"/>
        <pt x="489" y="407" on="0"/>
        <pt x="470" y="421" on="0"/>
        <pt x="458" y="421" on="1"/>
        <pt x="438" y="421" on="0"/>
        <pt x="406" y="397" on="0"/>
        <pt x="383" y="359" on="0"/>
        <pt x="371" y="315" on="0"/>
      </contour>
    </TTGlyph>
    <TTGlyph name="atilde" xMin="31" yMin="-12" xMax="537" yMax="705">
      <component glyphName="a" x="0" y="0" flags="0x204"/>
      <component glyphName="uni0303" x="218" y="0" flags="0x4"/>
    </TTGlyph>
    <TTGlyph name="atilde.a" xMin="22" yMin="-12" xMax="502" yMax="705">
      <component glyphName="a.a" x="0" y="0" flags="0x204"/>
      <component glyphName="uni0303" x="198" y="0" flags="0x4"/>
    </TTGlyph>
    <TTGlyph name="b" xMin="14" yMin="-12" xMax="520" yMax="701">
      <contour>
        <pt x="14" y="0" on="1"/>
        <pt x="155" y="701" on="1"/>
        <pt x="292" y="701" on="1"/>
        <pt x="259" y="542" on="1"/>
        <pt x="234" y="449" on="1"/>
        <pt x="236" y="449" on="1"/>
        <pt x="269" y="476" on="0"/>
        <pt x="343" y="508" on="0"/>
        <pt x="380" y="508" on="1"/>
        <pt x="446" y="508" on="0"/>
        <pt x="520" y="414" on="0"/>
        <pt x="520" y="326" on="1"/>
        <pt x="520" y="255" on="0"/>
        <pt x="476" y="132" on="0"/>
        <pt x="402" y="40" on="0"/>
        <pt x="307" y="-12" on="0"/>
        <pt x="256" y="-12" on="1"/>
        <pt x="222" y="-12" on="0"/>
        <pt x="165" y="23" on="0"/>
        <pt x="151" y="53" on="1"/>
        <pt x="149" y="53" on="1"/>
        <pt x="127" y="0" on="1"/>
      </contour>
      <contour>
        <pt x="321" y="396" on="1"/>
        <pt x="298" y="396" on="0"/>
        <pt x="241" y="369" on="0"/>
        <pt x="219" y="334" on="1"/>
        <pt x="181" y="147" on="1"/>
        <pt x="192" y="122" on="0"/>
        <pt x="227" y="100" on="0"/>
        <pt x="246" y="100" on="1"/>
        <pt x="272" y="100" on="0"/>
        <pt x="320" y="132" on="0"/>
        <pt x="357" y="188" on="0"/>
        <pt x="379" y="264" on="0"/>
        <pt x="379" y="309" on="1"/>
        <pt x="379" y="354" on="0"/>
        <pt x="347" y="396" on="0"/>
      </contour>
    </TTGlyph>
    <TTGlyph name="b.sups" xMin="43" yMin="254" xMax="384" yMax="724">
      <contour>
        <pt x="43" y="262" on="1"/>
        <pt x="135" y="724" on="1"/>
        <pt x="232" y="724" on="1"/>
        <pt x="212" y="622" on="1"/>
        <pt x="192" y="558" on="1"/>
        <pt x="196" y="558" on="1"/>
        <pt x="216" y="575" on="0"/>
        <pt x="264" y="599" on="0"/>
        <pt x="290" y="599" on="1"/>
        <pt x="334" y="599" on="0"/>
        <pt x="384" y="537" on="0"/>
        <pt x="384" y="478" on="1"/>
        <pt x="384" y="431" on="0"/>
        <pt x="354" y="349" on="0"/>
        <pt x="305" y="289" on="0"/>
        <pt x="241" y="254" on="0"/>
        <pt x="207" y="254" on="1"/>
        <pt x="185" y="254" on="0"/>
        <pt x="150" y="277" on="0"/>
        <pt x="140" y="297" on="1"/>
        <pt x="136" y="297" on="1"/>
        <pt x="121" y="262" on="1"/>
      </contour>
      <contour>
        <pt x="250" y="521" on="1"/>
        <pt x="234" y="521" on="0"/>
        <pt x="198" y="502" on="0"/>
        <pt x="181" y="476" on="1"/>
        <pt x="160" y="362" on="1"/>
        <pt x="168" y="346" on="0"/>
        <pt x="189" y="332" on="0"/>
        <pt x="200" y="332" on="1"/>
        <pt x="216" y="332" on="0"/>
        <pt x="247" y="352" on="0"/>
        <pt x="271" y="388" on="0"/>
        <pt x="286" y="437" on="0"/>
        <pt x="286" y="466" on="1"/>
        <pt x="286" y="495" on="0"/>
        <pt x="266" y="521" on="0"/>
      </contour>
    </TTGlyph>
    <TTGlyph name="backslash" xMin="85" yMin="-160" xMax="250" yMax="710">
      <contour>
        <pt x="85" y="710" on="1"/>
        <pt x="173" y="710" on="1"/>
        <pt x="250" y="-160" on="1"/>
        <pt x="161" y="-160" on="1"/>
      </contour>
    </TTGlyph>
    <TTGlyph name="bar" xMin="88" yMin="-250" xMax="174" yMax="750">
      <contour>
        <pt x="88" y="750" on="1"/>
        <pt x="174" y="750" on="1"/>
        <pt x="174" y="-250" on="1"/>
        <pt x="88" y="-250" on="1"/>
      </contour>
    </TTGlyph>
    <TTGlyph name="braceleft" xMin="26" yMin="-152" xMax="376" yMax="708">
      <contour>
        <pt x="45" y="-65" on="1"/>
        <pt x="45" y="-36" on="0"/>
        <pt x="61" y="34" on="0"/>
        <pt x="80" y="102" on="0"/>
        <pt x="96" y="161" on="0"/>
        <pt x="96" y="179" on="1"/>
        <pt x="96" y="201" on="0"/>
        <pt x="67" y="236" on="0"/>
        <pt x="26" y="238" on="1"/>
        <pt x="44" y="318" on="1"/>
        <pt x="69" y="319" on="0"/>
        <pt x="103" y="333" on="0"/>
        <pt x="126" y="355" on="0"/>
        <pt x="139" y="382" on="0"/>
        <pt x="142" y="395" on="1"/>
        <pt x="146" y="418" on="0"/>
        <pt x="151" y="458" on="0"/>
        <pt x="155" y="497" on="0"/>
        <pt x="161" y="539" on="0"/>
        <pt x="166" y="565" on="1"/>
        <pt x="174" y="605" on="0"/>
        <pt x="197" y="660" on="0"/>
        <pt x="231" y="694" on="0"/>
        <pt x="279" y="708" on="0"/>
        <pt x="312" y="708" on="1"/>
        <pt x="376" y="708" on="1"/>
        <pt x="360" y="635" on="1"/>
        <pt x="341" y="635" on="1"/>
        <pt x="310" y="635" on="0"/>
        <pt x="282" y="601" on="0"/>
        <pt x="275" y="560" on="1"/>
        <pt x="267" y="520" on="0"/>
        <pt x="255" y="442" on="0"/>
        <pt x="247" y="397" on="1"/>
        <pt x="235" y="340" on="0"/>
        <pt x="188" y="285" on="0"/>
        <pt x="148" y="276" on="1"/>
        <pt x="148" y="272" on="1"/>
        <pt x="176" y="265" on="0"/>
        <pt x="204" y="233" on="0"/>
        <pt x="204" y="202" on="1"/>
        <pt x="204" y="177" on="0"/>
        <pt x="190" y="111" on="0"/>
        <pt x="172" y="43" on="0"/>
        <pt x="158" y="-20" on="0"/>
        <pt x="158" y="-41" on="1"/>
        <pt x="158" y="-61" on="0"/>
        <pt x="175" y="-79" on="0"/>
        <pt x="200" y="-79" on="1"/>
        <pt x="217" y="-79" on="1"/>
        <pt x="203" y="-152" on="1"/>
        <pt x="142" y="-152" on="1"/>
        <pt x="88" y="-152" on="0"/>
        <pt x="45" y="-108" on="0"/>
      </contour>
    </TTGlyph>
    <TTGlyph name="braceright" xMin="-38" yMin="-152" xMax="312" yMax="708">
      <contour>
        <pt x="293" y="621" on="1"/>
        <pt x="293" y="592" on="0"/>
        <pt x="277" y="522" on="0"/>
        <pt x="258" y="454" on="0"/>
        <pt x="242" y="395" on="0"/>
        <pt x="242" y="377" on="1"/>
        <pt x="242" y="355" on="0"/>
        <pt x="271" y="319" on="0"/>
        <pt x="312" y="318" on="1"/>
        <pt x="294" y="238" on="1"/>
        <pt x="269" y="237" on="0"/>
        <pt x="235" y="223" on="0"/>
        <pt x="212" y="201" on="0"/>
        <pt x="199" y="174" on="0"/>
        <pt x="196" y="161" on="1"/>
        <pt x="191" y="138" on="0"/>
        <pt x="187" y="98" on="0"/>
        <pt x="183" y="59" on="0"/>
        <pt x="177" y="16" on="0"/>
        <pt x="172" y="-10" on="1"/>
        <pt x="164" y="-51" on="0"/>
        <pt x="141" y="-105" on="0"/>
        <pt x="107" y="-138" on="0"/>
        <pt x="59" y="-152" on="0"/>
        <pt x="26" y="-152" on="1"/>
        <pt x="-38" y="-152" on="1"/>
        <pt x="-22" y="-79" on="1"/>
        <pt x="-3" y="-79" on="1"/>
        <pt x="28" y="-79" on="0"/>
        <pt x="55" y="-45" on="0"/>
        <pt x="63" y="-4" on="1"/>
        <pt x="71" y="36" on="0"/>
        <pt x="83" y="114" on="0"/>
        <pt x="91" y="159" on="1"/>
        <pt x="103" y="216" on="0"/>
        <pt x="150" y="271" on="0"/>
        <pt x="190" y="280" on="1"/>
        <pt x="190" y="284" on="1"/>
        <pt x="161" y="291" on="0"/>
        <pt x="134" y="323" on="0"/>
        <pt x="134" y="354" on="1"/>
        <pt x="134" y="379" on="0"/>
        <pt x="148" y="445" on="0"/>
        <pt x="166" y="513" on="0"/>
        <pt x="180" y="575" on="0"/>
        <pt x="180" y="596" on="1"/>
        <pt x="180" y="617" on="0"/>
        <pt x="163" y="635" on="0"/>
        <pt x="138" y="635" on="1"/>
        <pt x="121" y="635" on="1"/>
        <pt x="135" y="708" on="1"/>
        <pt x="197" y="708" on="1"/>
        <pt x="250" y="708" on="0"/>
        <pt x="293" y="664" on="0"/>
      </contour>
    </TTGlyph>
    <TTGlyph name="bracketleft" xMin="-3" yMin="-152" xMax="369" yMax="708">
      <contour>
        <pt x="212" y="-79" on="1"/>
        <pt x="197" y="-152" on="1"/>
        <pt x="-3" y="-152" on="1"/>
        <pt x="169" y="708" on="1"/>
        <pt x="369" y="708" on="1"/>
        <pt x="355" y="635" on="1"/>
        <pt x="256" y="635" on="1"/>
        <pt x="114" y="-79" on="1"/>
      </contour>
    </TTGlyph>
    <TTGlyph name="bracketright" xMin="-29" yMin="-152" xMax="343" yMax="708">
      <contour>
        <pt x="83" y="-79" on="1"/>
        <pt x="226" y="635" on="1"/>
        <pt x="129" y="635" on="1"/>
        <pt x="143" y="708" on="1"/>
        <pt x="343" y="708" on="1"/>
        <pt x="171" y="-152" on="1"/>
        <pt x="-29" y="-152" on="1"/>
        <pt x="-14" y="-79" on="1"/>
      </contour>
    </TTGlyph>
    <TTGlyph name="breve" xMin="222" yMin="574" xMax="493" yMax="711">
      <component glyphName="uni0306" x="219" y="0" flags="0x4"/>
    </TTGlyph>
    <TTGlyph name="brokenbar" xMin="88" yMin="-250" xMax="174" yMax="750">
      <contour>
        <pt x="88" y="750" on="1"/>
        <pt x="174" y="750" on="1"/>
        <pt x="174" y="309" on="1"/>
        <pt x="88" y="309" on="1"/>
      </contour>
      <contour>
        <pt x="174" y="205" on="1"/>
        <pt x="174" y="-250" on="1"/>
        <pt x="88" y="-250" on="1"/>
        <pt x="88" y="205" on="1"/>
      </contour>
    </TTGlyph>
    <TTGlyph name="bullet" xMin="39" yMin="127" xMax="293" yMax="398">
      <contour>
        <pt x="154" y="127" on="1"/>
        <pt x="104" y="127" on="0"/>
        <pt x="39" y="194" on="0"/>
        <pt x="39" y="247" on="1"/>
        <pt x="39" y="274" on="0"/>
        <pt x="59" y="328" on="0"/>
        <pt x="95" y="371" on="0"/>
        <pt x="146" y="398" on="0"/>
        <pt x="178" y="398" on="1"/>
        <pt x="227" y="398" on="0"/>
        <pt x="293" y="331" on="0"/>
        <pt x="293" y="278" on="1"/>
        <pt x="293" y="251" on="0"/>
        <pt x="273" y="197" on="0"/>
        <pt x="237" y="154" on="0"/>
        <pt x="185" y="127" on="0"/>
      </contour>
    </TTGlyph>
    <TTGlyph name="c" xMin="29" yMin="-12" xMax="454" yMax="508">
      <contour>
        <pt x="29" y="192" on="1"/>
        <pt x="29" y="256" on="0"/>
        <pt x="74" y="371" on="0"/>
        <pt x="153" y="458" on="0"/>
        <pt x="260" y="508" on="0"/>
        <pt x="321" y="508" on="1"/>
        <pt x="368" y="508" on="0"/>
        <pt x="435" y="470" on="0"/>
        <pt x="454" y="447" on="1"/>
        <pt x="378" y="366" on="1"/>
        <pt x="363" y="382" on="0"/>
        <pt x="333" y="398" on="0"/>
        <pt x="312" y="398" on="1"/>
        <pt x="282" y="398" on="0"/>
        <pt x="230" y="366" on="0"/>
        <pt x="191" y="310" on="0"/>
        <pt x="169" y="237" on="0"/>
        <pt x="169" y="195" on="1"/>
        <pt x="169" y="150" on="0"/>
        <pt x="211" y="98" on="0"/>
        <pt x="253" y="98" on="1"/>
        <pt x="279" y="98" on="0"/>
        <pt x="316" y="118" on="0"/>
        <pt x="332" y="130" on="1"/>
        <pt x="389" y="46" on="1"/>
        <pt x="361" y="25" on="0"/>
        <pt x="282" y="-12" on="0"/>
        <pt x="223" y="-12" on="1"/>
        <pt x="182" y="-12" on="0"/>
        <pt x="111" y="15" on="0"/>
        <pt x="59" y="68" on="0"/>
        <pt x="29" y="144" on="0"/>
      </contour>
    </TTGlyph>
    <TTGlyph name="c.sups" xMin="52" yMin="254" xMax="340" yMax="599">
      <contour>
        <pt x="52" y="385" on="1"/>
        <pt x="52" y="427" on="0"/>
        <pt x="81" y="505" on="0"/>
        <pt x="134" y="564" on="0"/>
        <pt x="206" y="599" on="0"/>
        <pt x="248" y="599" on="1"/>
        <pt x="278" y="599" on="0"/>
        <pt x="324" y="575" on="0"/>
        <pt x="340" y="559" on="1"/>
        <pt x="285" y="501" on="1"/>
        <pt x="267" y="522" on="0"/>
        <pt x="244" y="522" on="1"/>
        <pt x="224" y="522" on="0"/>
        <pt x="189" y="501" on="0"/>
        <pt x="164" y="465" on="0"/>
        <pt x="150" y="420" on="0"/>
        <pt x="150" y="396" on="1"/>
        <pt x="150" y="362" on="0"/>
        <pt x="183" y="330" on="0"/>
        <pt x="205" y="330" on="1"/>
        <pt x="222" y="330" on="0"/>
        <pt x="246" y="342" on="0"/>
        <pt x="257" y="349" on="1"/>
        <pt x="288" y="288" on="1"/>
        <pt x="272" y="275" on="0"/>
        <pt x="218" y="254" on="0"/>
        <pt x="184" y="254" on="1"/>
        <pt x="157" y="254" on="0"/>
        <pt x="109" y="272" on="0"/>
        <pt x="73" y="306" on="0"/>
        <pt x="52" y="354" on="0"/>
      </contour>
    </TTGlyph>
    <TTGlyph name="cacute" xMin="29" yMin="-12" xMax="490" yMax="722">
      <component glyphName="c" x="0" y="0" flags="0x204"/>
      <component glyphName="uni0301" x="207" y="0" flags="0x4"/>
    </TTGlyph>
    <TTGlyph name="caron" xMin="217" yMin="573" xMax="509" yMax="722">
      <component glyphName="uni030C" x="219" y="0" flags="0x4"/>
    </TTGlyph>
    <TTGlyph name="ccaron" xMin="29" yMin="-12" xMax="497" yMax="722">
      <component glyphName="c" x="0" y="0" flags="0x204"/>
      <component glyphName="uni030C" x="207" y="0" flags="0x4"/>
    </TTGlyph>
    <TTGlyph name="ccedilla" xMin="29" yMin="-220" xMax="454" yMax="508">
      <component glyphName="c" x="0" y="0" flags="0x204"/>
      <component glyphName="uni0327" x="209" y="0" flags="0x4"/>
    </TTGlyph>
    <TTGlyph name="ccircumflex" xMin="29" yMin="-12" xMax="466" yMax="722">
      <component glyphName="c" x="0" y="0" flags="0x204"/>
      <component glyphName="uni0302" x="207" y="0" flags="0x4"/>
    </TTGlyph>
    <TTGlyph name="cdotaccent" xMin="29" yMin="-12" xMax="454" yMax="717">
      <component glyphName="c" x="0" y="0" flags="0x204"/>
      <component glyphName="uni0307" x="207" y="0" flags="0x4"/>
    </TTGlyph>
    <TTGlyph name="cedilla" xMin="83" yMin="-220" xMax="275" yMax="4">
      <component glyphName="uni0327" x="219" y="0" flags="0x4"/>
    </TTGlyph>
    <TTGlyph name="cent" xMin="72" yMin="-18" xMax="517" yMax="676">
      <contour>
        <pt x="308" y="465" on="1"/>
        <pt x="263" y="449" on="0"/>
        <pt x="206" y="365" on="0"/>
        <pt x="206" y="307" on="1"/>
        <pt x="206" y="227" on="0"/>
        <pt x="255" y="198" on="1"/>
      </contour>
      <contour>
        <pt x="451" y="133" on="1"/>
        <pt x="417" y="111" on="0"/>
        <pt x="346" y="83" on="0"/>
        <pt x="307" y="78" on="1"/>
        <pt x="288" y="-18" on="1"/>
        <pt x="212" y="-18" on="1"/>
        <pt x="231" y="79" on="1"/>
        <pt x="159" y="90" on="0"/>
        <pt x="72" y="197" on="0"/>
        <pt x="72" y="286" on="1"/>
        <pt x="72" y="349" on="0"/>
        <pt x="116" y="452" on="0"/>
        <pt x="189" y="527" on="0"/>
        <pt x="282" y="573" on="0"/>
        <pt x="331" y="580" on="1"/>
        <pt x="350" y="676" on="1"/>
        <pt x="426" y="676" on="1"/>
        <pt x="407" y="579" on="1"/>
        <pt x="443" y="572" on="0"/>
        <pt x="495" y="533" on="0"/>
        <pt x="517" y="509" on="1"/>
        <pt x="438" y="434" on="1"/>
        <pt x="424" y="447" on="0"/>
        <pt x="399" y="464" on="0"/>
        <pt x="385" y="469" on="1"/>
        <pt x="329" y="188" on="1"/>
        <pt x="373" y="194" on="0"/>
        <pt x="409" y="221" on="1"/>
      </contour>
    </TTGlyph>
    <TTGlyph name="circumflex" xMin="186" yMin="573" xMax="478" yMax="722">
      <component glyphName="uni0302" x="219" y="0" flags="0x4"/>
    </TTGlyph>
    <TTGlyph name="colon" xMin="24" yMin="-12" xMax="249" yMax="497">
      <component glyphName="period" x="57" y="334" flags="0x204"/>
      <component glyphName="period" x="0" y="0" flags="0x4"/>
    </TTGlyph>
    <TTGlyph name="colonmonetary" xMin="56" yMin="-110" xMax="557" yMax="753">
      <contour>
        <pt x="232" y="120" on="1"/>
        <pt x="247" y="106" on="0"/>
        <pt x="266" y="102" on="1"/>
        <pt x="403" y="538" on="1"/>
        <pt x="388" y="545" on="0"/>
        <pt x="364" y="545" on="1"/>
      </contour>
      <contour>
        <pt x="314" y="534" on="1"/>
        <pt x="285" y="521" on="0"/>
        <pt x="238" y="466" on="0"/>
        <pt x="205" y="390" on="0"/>
        <pt x="188" y="298" on="0"/>
        <pt x="188" y="248" on="1"/>
        <pt x="188" y="203" on="0"/>
        <pt x="200" y="170" on="1"/>
      </contour>
      <contour>
        <pt x="463" y="476" on="1"/>
        <pt x="458" y="486" on="0"/>
        <pt x="446" y="502" on="0"/>
        <pt x="441" y="509" on="1"/>
        <pt x="313" y="100" on="1"/>
        <pt x="335" y="104" on="0"/>
        <pt x="375" y="129" on="0"/>
        <pt x="395" y="146" on="1"/>
        <pt x="459" y="65" on="1"/>
        <pt x="411" y="26" on="0"/>
        <pt x="320" y="-10" on="0"/>
        <pt x="278" y="-12" on="1"/>
        <pt x="247" y="-110" on="1"/>
        <pt x="200" y="-110" on="1"/>
        <pt x="231" y="-10" on="1"/>
        <pt x="212" y="-7" on="0"/>
        <pt x="194" y="-1" on="1"/>
        <pt x="160" y="-110" on="1"/>
        <pt x="112" y="-110" on="1"/>
        <pt x="152" y="18" on="1"/>
        <pt x="106" y="47" on="0"/>
        <pt x="56" y="159" on="0"/>
        <pt x="56" y="238" on="1"/>
        <pt x="56" y="327" on="0"/>
        <pt x="103" y="475" on="0"/>
        <pt x="183" y="583" on="0"/>
        <pt x="290" y="648" on="0"/>
        <pt x="351" y="654" on="1"/>
        <pt x="382" y="753" on="1"/>
        <pt x="429" y="753" on="1"/>
        <pt x="398" y="654" on="1"/>
        <pt x="417" y="653" on="0"/>
        <pt x="437" y="646" on="1"/>
        <pt x="470" y="753" on="1"/>
        <pt x="517" y="753" on="1"/>
        <pt x="478" y="627" on="1"/>
        <pt x="503" y="611" on="0"/>
        <pt x="541" y="565" on="0"/>
        <pt x="557" y="538" on="1"/>
      </contour>
    </TTGlyph>
    <TTGlyph name="comma" xMin="-27" yMin="-187" xMax="202" yMax="163">
      <contour>
        <pt x="-27" y="-112" on="1"/>
        <pt x="30" y="-95" on="0"/>
        <pt x="93" y="-35" on="0"/>
        <pt x="102" y="0" on="1"/>
        <pt x="69" y="1" on="0"/>
        <pt x="26" y="39" on="0"/>
        <pt x="26" y="71" on="1"/>
        <pt x="26" y="107" on="0"/>
        <pt x="76" y="163" on="0"/>
        <pt x="119" y="163" on="1"/>
        <pt x="159" y="163" on="0"/>
        <pt x="202" y="112" on="0"/>
        <pt x="202" y="66" on="1"/>
        <pt x="202" y="19" on="0"/>
        <pt x="172" y="-64" on="0"/>
        <pt x="117" y="-130" on="0"/>
        <pt x="37" y="-177" on="0"/>
        <pt x="-13" y="-187" on="1"/>
      </contour>
    </TTGlyph>
    <TTGlyph name="comma.dnom" xMin="-36" yMin="-127" xMax="125" yMax="114">
      <contour>
        <pt x="-36" y="-74" on="1"/>
        <pt x="2" y="-61" on="0"/>
        <pt x="47" y="-27" on="0"/>
        <pt x="52" y="1" on="1"/>
        <pt x="51" y="1" on="1"/>
        <pt x="31" y="1" on="0"/>
        <pt x="0" y="28" on="0"/>
        <pt x="0" y="51" on="1"/>
        <pt x="0" y="81" on="0"/>
        <pt x="40" y="114" on="0"/>
        <pt x="69" y="114" on="1"/>
        <pt x="93" y="114" on="0"/>
        <pt x="125" y="77" on="0"/>
        <pt x="125" y="46" on="1"/>
        <pt x="125" y="-18" on="0"/>
        <pt x="47" y="-106" on="0"/>
        <pt x="-24" y="-127" on="1"/>
      </contour>
    </TTGlyph>
    <TTGlyph name="comma.numr" xMin="14" yMin="143" xMax="175" yMax="384">
      <component glyphName="comma.dnom" x="50" y="270" flags="0x204"/>
    </TTGlyph>
    <TTGlyph name="comma.subs" xMin="-73" yMin="-296" xMax="88" yMax="-55">
      <component glyphName="comma.dnom" x="-37" y="-169" flags="0x204"/>
    </TTGlyph>
    <TTGlyph name="comma.sups" xMin="46" yMin="313" xMax="207" yMax="554">
      <component glyphName="comma.dnom" x="82" y="440" flags="0x204"/>
    </TTGlyph>
    <TTGlyph name="copyright" xMin="30" yMin="-9" xMax="672" yMax="655">
      <contour>
        <pt x="174" y="282" on="1"/>
        <pt x="174" y="336" on="0"/>
        <pt x="214" y="422" on="0"/>
        <pt x="278" y="482" on="0"/>
        <pt x="356" y="515" on="0"/>
        <pt x="395" y="515" on="1"/>
        <pt x="430" y="515" on="0"/>
        <pt x="482" y="482" on="0"/>
        <pt x="497" y="463" on="1"/>
        <pt x="440" y="407" on="1"/>
        <pt x="416" y="435" on="0"/>
        <pt x="383" y="435" on="1"/>
        <pt x="364" y="435" on="0"/>
        <pt x="325" y="414" on="0"/>
        <pt x="293" y="377" on="0"/>
        <pt x="273" y="325" on="0"/>
        <pt x="273" y="294" on="1"/>
        <pt x="273" y="253" on="0"/>
        <pt x="314" y="208" on="0"/>
        <pt x="352" y="208" on="1"/>
        <pt x="373" y="208" on="0"/>
        <pt x="405" y="222" on="0"/>
        <pt x="426" y="236" on="1"/>
        <pt x="464" y="176" on="1"/>
        <pt x="403" y="127" on="0"/>
        <pt x="330" y="127" on="1"/>
        <pt x="260" y="127" on="0"/>
        <pt x="174" y="209" on="0"/>
      </contour>
      <contour>
        <pt x="298" y="-9" on="1"/>
        <pt x="239" y="-9" on="0"/>
        <pt x="141" y="33" on="0"/>
        <pt x="70" y="107" on="0"/>
        <pt x="30" y="209" on="0"/>
        <pt x="30" y="269" on="1"/>
        <pt x="30" y="348" on="0"/>
        <pt x="85" y="489" on="0"/>
        <pt x="184" y="594" on="0"/>
        <pt x="322" y="655" on="0"/>
        <pt x="404" y="655" on="1"/>
        <pt x="462" y="655" on="0"/>
        <pt x="561" y="613" on="0"/>
        <pt x="632" y="540" on="0"/>
        <pt x="672" y="438" on="0"/>
        <pt x="672" y="378" on="1"/>
        <pt x="672" y="299" on="0"/>
        <pt x="617" y="158" on="0"/>
        <pt x="518" y="53" on="0"/>
        <pt x="380" y="-9" on="0"/>
      </contour>
      <contour>
        <pt x="399" y="595" on="1"/>
        <pt x="334" y="595" on="0"/>
        <pt x="222" y="543" on="0"/>
        <pt x="140" y="456" on="0"/>
        <pt x="94" y="339" on="0"/>
        <pt x="94" y="275" on="1"/>
        <pt x="94" y="229" on="0"/>
        <pt x="121" y="148" on="0"/>
        <pt x="173" y="87" on="0"/>
        <pt x="252" y="52" on="0"/>
        <pt x="303" y="52" on="1"/>
        <pt x="368" y="52" on="0"/>
        <pt x="480" y="103" on="0"/>
        <pt x="562" y="191" on="0"/>
        <pt x="608" y="307" on="0"/>
        <pt x="608" y="372" on="1"/>
        <pt x="608" y="417" on="0"/>
        <pt x="581" y="498" on="0"/>
        <pt x="529" y="559" on="0"/>
        <pt x="450" y="595" on="0"/>
      </contour>
    </TTGlyph>
    <TTGlyph name="currency" xMin="7" yMin="93" xMax="530" yMax="566">
      <contour>
        <pt x="346" y="159" on="1"/>
        <pt x="294" y="131" on="0"/>
        <pt x="235" y="131" on="1"/>
        <pt x="178" y="131" on="0"/>
        <pt x="138" y="156" on="1"/>
        <pt x="66" y="94" on="1"/>
        <pt x="7" y="164" on="1"/>
        <pt x="73" y="220" on="1"/>
        <pt x="56" y="252" on="0"/>
        <pt x="56" y="296" on="1"/>
        <pt x="56" y="341" on="0"/>
        <pt x="88" y="417" on="0"/>
        <pt x="114" y="446" on="1"/>
        <pt x="69" y="503" on="1"/>
        <pt x="141" y="565" on="1"/>
        <pt x="192" y="502" on="1"/>
        <pt x="245" y="530" on="0"/>
        <pt x="301" y="530" on="1"/>
        <pt x="330" y="530" on="0"/>
        <pt x="380" y="516" on="0"/>
        <pt x="400" y="504" on="1"/>
        <pt x="471" y="566" on="1"/>
        <pt x="530" y="496" on="1"/>
        <pt x="464" y="439" on="1"/>
        <pt x="472" y="422" on="0"/>
        <pt x="480" y="386" on="0"/>
        <pt x="480" y="365" on="1"/>
        <pt x="480" y="320" on="0"/>
        <pt x="449" y="245" on="0"/>
        <pt x="423" y="216" on="1"/>
        <pt x="472" y="156" on="1"/>
        <pt x="399" y="93" on="1"/>
      </contour>
      <contour>
        <pt x="286" y="433" on="1"/>
        <pt x="266" y="433" on="0"/>
        <pt x="228" y="414" on="0"/>
        <pt x="199" y="381" on="0"/>
        <pt x="181" y="334" on="0"/>
        <pt x="181" y="307" on="1"/>
        <pt x="181" y="269" on="0"/>
        <pt x="218" y="228" on="0"/>
        <pt x="250" y="228" on="1"/>
        <pt x="270" y="228" on="0"/>
        <pt x="308" y="247" on="0"/>
        <pt x="337" y="280" on="0"/>
        <pt x="355" y="327" on="0"/>
        <pt x="355" y="354" on="1"/>
        <pt x="355" y="392" on="0"/>
        <pt x="318" y="433" on="0"/>
      </contour>
    </TTGlyph>
    <TTGlyph name="d" xMin="31" yMin="-12" xMax="579" yMax="701">
      <contour>
        <pt x="412" y="542" on="1"/>
        <pt x="442" y="701" on="1"/>
        <pt x="579" y="701" on="1"/>
        <pt x="438" y="0" on="1"/>
        <pt x="327" y="0" on="1"/>
        <pt x="329" y="65" on="1"/>
        <pt x="326" y="65" on="1"/>
        <pt x="292" y="30" on="0"/>
        <pt x="210" y="-12" on="0"/>
        <pt x="171" y="-12" on="1"/>
        <pt x="105" y="-12" on="0"/>
        <pt x="31" y="82" on="0"/>
        <pt x="31" y="170" on="1"/>
        <pt x="31" y="241" on="0"/>
        <pt x="75" y="364" on="0"/>
        <pt x="149" y="456" on="0"/>
        <pt x="245" y="508" on="0"/>
        <pt x="296" y="508" on="1"/>
        <pt x="330" y="508" on="0"/>
        <pt x="383" y="475" on="0"/>
        <pt x="397" y="448" on="1"/>
        <pt x="400" y="448" on="1"/>
      </contour>
      <contour>
        <pt x="231" y="100" on="1"/>
        <pt x="256" y="100" on="0"/>
        <pt x="311" y="131" on="0"/>
        <pt x="337" y="173" on="1"/>
        <pt x="372" y="349" on="1"/>
        <pt x="360" y="374" on="0"/>
        <pt x="323" y="396" on="0"/>
        <pt x="306" y="396" on="1"/>
        <pt x="280" y="396" on="0"/>
        <pt x="232" y="364" on="0"/>
        <pt x="195" y="308" on="0"/>
        <pt x="173" y="232" on="0"/>
        <pt x="173" y="187" on="1"/>
        <pt x="173" y="142" on="0"/>
        <pt x="204" y="100" on="0"/>
      </contour>
    </TTGlyph>
    <TTGlyph name="d.sups" xMin="54" yMin="254" xMax="422" yMax="723">
      <contour>
        <pt x="306" y="624" on="1"/>
        <pt x="325" y="723" on="1"/>
        <pt x="422" y="723" on="1"/>
        <pt x="330" y="262" on="1"/>
        <pt x="252" y="262" on="1"/>
        <pt x="254" y="304" on="1"/>
        <pt x="250" y="304" on="1"/>
        <pt x="228" y="281" on="0"/>
        <pt x="174" y="254" on="0"/>
        <pt x="148" y="254" on="1"/>
        <pt x="104" y="254" on="0"/>
        <pt x="54" y="316" on="0"/>
        <pt x="54" y="375" on="1"/>
        <pt x="54" y="422" on="0"/>
        <pt x="84" y="504" on="0"/>
        <pt x="133" y="564" on="0"/>
        <pt x="197" y="599" on="0"/>
        <pt x="232" y="599" on="1"/>
        <pt x="253" y="599" on="0"/>
        <pt x="289" y="576" on="0"/>
        <pt x="297" y="559" on="1"/>
        <pt x="301" y="559" on="1"/>
      </contour>
      <contour>
        <pt x="188" y="332" on="1"/>
        <pt x="205" y="332" on="0"/>
        <pt x="241" y="353" on="0"/>
        <pt x="258" y="380" on="1"/>
        <pt x="278" y="491" on="1"/>
        <pt x="270" y="507" on="0"/>
        <pt x="249" y="521" on="0"/>
        <pt x="238" y="521" on="1"/>
        <pt x="222" y="521" on="0"/>
        <pt x="191" y="500" on="0"/>
        <pt x="167" y="464" on="0"/>
        <pt x="153" y="415" on="0"/>
        <pt x="153" y="387" on="1"/>
        <pt x="153" y="358" on="0"/>
        <pt x="173" y="332" on="0"/>
      </contour>
    </TTGlyph>
    <TTGlyph name="dagger" xMin="81" yMin="-80" xMax="503" yMax="712">
      <contour>
        <pt x="237" y="447" on="1"/>
        <pt x="81" y="438" on="1"/>
        <pt x="104" y="549" on="1"/>
        <pt x="254" y="541" on="1"/>
        <pt x="280" y="712" on="1"/>
        <pt x="391" y="712" on="1"/>
        <pt x="348" y="541" on="1"/>
        <pt x="503" y="549" on="1"/>
        <pt x="482" y="438" on="1"/>
        <pt x="330" y="447" on="1"/>
        <pt x="233" y="-80" on="1"/>
        <pt x="122" y="-80" on="1"/>
      </contour>
    </TTGlyph>
    <TTGlyph name="daggerdbl" xMin="11" yMin="-80" xMax="503" yMax="712">
      <contour>
        <pt x="32" y="192" on="1"/>
        <pt x="183" y="182" on="1"/>
        <pt x="201" y="316" on="1"/>
        <pt x="237" y="450" on="1"/>
        <pt x="81" y="438" on="1"/>
        <pt x="102" y="549" on="1"/>
        <pt x="254" y="541" on="1"/>
        <pt x="280" y="712" on="1"/>
        <pt x="389" y="712" on="1"/>
        <pt x="348" y="541" on="1"/>
        <pt x="503" y="549" on="1"/>
        <pt x="482" y="438" on="1"/>
        <pt x="330" y="450" on="1"/>
        <pt x="311" y="316" on="1"/>
        <pt x="277" y="182" on="1"/>
        <pt x="432" y="192" on="1"/>
        <pt x="410" y="81" on="1"/>
        <pt x="258" y="90" on="1"/>
        <pt x="233" y="-80" on="1"/>
        <pt x="123" y="-80" on="1"/>
        <pt x="164" y="90" on="1"/>
        <pt x="11" y="81" on="1"/>
      </contour>
    </TTGlyph>
    <TTGlyph name="dcaron" xMin="31" yMin="-12" xMax="715" yMax="770">
      <component glyphName="d" x="0" y="0" flags="0x4"/>
      <component glyphName="uni030C.a" x="570" y="0" flags="0x4"/>
    </TTGlyph>
    <TTGlyph name="dcroat" xMin="31" yMin="-12" xMax="631" yMax="701">
      <contour>
        <pt x="368" y="329" on="1"/>
        <pt x="357" y="354" on="0"/>
        <pt x="323" y="376" on="0"/>
        <pt x="305" y="376" on="1"/>
        <pt x="279" y="376" on="0"/>
        <pt x="231" y="344" on="0"/>
        <pt x="195" y="292" on="0"/>
        <pt x="173" y="223" on="0"/>
        <pt x="173" y="187" on="1"/>
        <pt x="173" y="142" on="0"/>
        <pt x="204" y="100" on="0"/>
        <pt x="231" y="100" on="1"/>
        <pt x="256" y="100" on="0"/>
        <pt x="311" y="131" on="0"/>
        <pt x="337" y="173" on="1"/>
      </contour>
      <contour>
        <pt x="617" y="563" on="1"/>
        <pt x="550" y="558" on="1"/>
        <pt x="438" y="0" on="1"/>
        <pt x="327" y="0" on="1"/>
        <pt x="329" y="65" on="1"/>
        <pt x="326" y="65" on="1"/>
        <pt x="292" y="30" on="0"/>
        <pt x="210" y="-12" on="0"/>
        <pt x="171" y="-12" on="1"/>
        <pt x="105" y="-12" on="0"/>
        <pt x="31" y="82" on="0"/>
        <pt x="31" y="170" on="1"/>
        <pt x="31" y="233" on="0"/>
        <pt x="75" y="348" on="0"/>
        <pt x="149" y="436" on="0"/>
        <pt x="245" y="488" on="0"/>
        <pt x="296" y="488" on="1"/>
        <pt x="330" y="488" on="0"/>
        <pt x="380" y="455" on="0"/>
        <pt x="393" y="428" on="1"/>
        <pt x="396" y="428" on="1"/>
        <pt x="408" y="522" on="1"/>
        <pt x="415" y="558" on="1"/>
        <pt x="271" y="558" on="1"/>
        <pt x="284" y="625" on="1"/>
        <pt x="428" y="625" on="1"/>
        <pt x="442" y="701" on="1"/>
        <pt x="579" y="701" on="1"/>
        <pt x="564" y="625" on="1"/>
        <pt x="631" y="625" on="1"/>
      </contour>
    </TTGlyph>
    <TTGlyph name="degree" xMin="94" yMin="403" xMax="371" yMax="686">
      <contour>
        <pt x="219" y="403" on="1"/>
        <pt x="164" y="403" on="0"/>
        <pt x="94" y="472" on="0"/>
        <pt x="94" y="529" on="1"/>
        <pt x="94" y="562" on="0"/>
        <pt x="119" y="619" on="0"/>
        <pt x="161" y="661" on="0"/>
        <pt x="216" y="686" on="0"/>
        <pt x="246" y="686" on="1"/>
        <pt x="302" y="686" on="0"/>
        <pt x="371" y="617" on="0"/>
        <pt x="371" y="560" on="1"/>
        <pt x="371" y="527" on="0"/>
        <pt x="346" y="470" on="0"/>
        <pt x="304" y="428" on="0"/>
        <pt x="249" y="403" on="0"/>
      </contour>
      <contour>
        <pt x="241" y="619" on="1"/>
        <pt x="208" y="619" on="0"/>
        <pt x="168" y="565" on="0"/>
        <pt x="168" y="530" on="1"/>
        <pt x="168" y="506" on="0"/>
        <pt x="197" y="470" on="0"/>
        <pt x="225" y="470" on="1"/>
        <pt x="241" y="470" on="0"/>
        <pt x="268" y="485" on="0"/>
        <pt x="287" y="509" on="0"/>
        <pt x="298" y="541" on="0"/>
        <pt x="298" y="559" on="1"/>
        <pt x="298" y="583" on="0"/>
        <pt x="269" y="619" on="0"/>
      </contour>
    </TTGlyph>
    <TTGlyph name="dieresis" xMin="182" yMin="572" xMax="506" yMax="706">
      <component glyphName="uni0308" x="219" y="0" flags="0x4"/>
    </TTGlyph>
    <TTGlyph name="divide" xMin="48" yMin="76" xMax="485" yMax="584">
      <contour>
        <pt x="267" y="438" on="1"/>
        <pt x="235" y="438" on="0"/>
        <pt x="191" y="480" on="0"/>
        <pt x="191" y="512" on="1"/>
        <pt x="191" y="543" on="0"/>
        <pt x="235" y="584" on="0"/>
        <pt x="267" y="584" on="1"/>
        <pt x="299" y="584" on="0"/>
        <pt x="343" y="543" on="0"/>
        <pt x="343" y="512" on="1"/>
        <pt x="343" y="480" on="0"/>
        <pt x="299" y="438" on="0"/>
      </contour>
      <contour>
        <pt x="267" y="76" on="1"/>
        <pt x="235" y="76" on="0"/>
        <pt x="191" y="116" on="0"/>
        <pt x="191" y="148" on="1"/>
        <pt x="191" y="179" on="0"/>
        <pt x="235" y="221" on="0"/>
        <pt x="267" y="221" on="1"/>
        <pt x="299" y="221" on="0"/>
        <pt x="343" y="179" on="0"/>
        <pt x="343" y="148" on="1"/>
        <pt x="343" y="116" on="0"/>
        <pt x="299" y="76" on="0"/>
      </contour>
      <contour>
        <pt x="48" y="282" on="1"/>
        <pt x="48" y="379" on="1"/>
        <pt x="485" y="379" on="1"/>
        <pt x="485" y="282" on="1"/>
      </contour>
    </TTGlyph>
    <TTGlyph name="dollar" xMin="6" yMin="-110" xMax="497" yMax="753">
      <contour>
        <pt x="411" y="486" on="1"/>
        <pt x="391" y="512" on="0"/>
        <pt x="339" y="545" on="0"/>
        <pt x="310" y="545" on="1"/>
        <pt x="275" y="545" on="0"/>
        <pt x="235" y="506" on="0"/>
        <pt x="235" y="477" on="1"/>
        <pt x="235" y="453" on="0"/>
        <pt x="265" y="414" on="0"/>
        <pt x="310" y="378" on="0"/>
        <pt x="362" y="340" on="0"/>
        <pt x="407" y="292" on="0"/>
        <pt x="437" y="232" on="0"/>
        <pt x="437" y="191" on="1"/>
        <pt x="437" y="150" on="0"/>
        <pt x="410" y="81" on="0"/>
        <pt x="361" y="29" on="0"/>
        <pt x="290" y="-5" on="0"/>
        <pt x="246" y="-10" on="1"/>
        <pt x="225" y="-110" on="1"/>
        <pt x="135" y="-110" on="1"/>
        <pt x="156" y="-5" on="1"/>
        <pt x="113" y="5" on="0"/>
        <pt x="35" y="53" on="0"/>
        <pt x="6" y="88" on="1"/>
        <pt x="90" y="171" on="1"/>
        <pt x="113" y="142" on="0"/>
        <pt x="177" y="98" on="0"/>
        <pt x="215" y="98" on="1"/>
        <pt x="257" y="98" on="0"/>
        <pt x="302" y="139" on="0"/>
        <pt x="302" y="174" on="1"/>
        <pt x="302" y="201" on="0"/>
        <pt x="272" y="244" on="0"/>
        <pt x="227" y="283" on="0"/>
        <pt x="175" y="321" on="0"/>
        <pt x="130" y="367" on="0"/>
        <pt x="100" y="423" on="0"/>
        <pt x="100" y="461" on="1"/>
        <pt x="100" y="500" on="0"/>
        <pt x="127" y="567" on="0"/>
        <pt x="176" y="618" on="0"/>
        <pt x="245" y="650" on="0"/>
        <pt x="287" y="654" on="1"/>
        <pt x="306" y="753" on="1"/>
        <pt x="397" y="753" on="1"/>
        <pt x="376" y="646" on="1"/>
        <pt x="411" y="636" on="0"/>
        <pt x="471" y="594" on="0"/>
        <pt x="497" y="563" on="1"/>
      </contour>
    </TTGlyph>
    <TTGlyph name="dong" xMin="26" yMin="0" xMax="568" yMax="674">
      <contour>
        <pt x="40" y="69" on="1"/>
        <pt x="420" y="69" on="1"/>
        <pt x="406" y="0" on="1"/>
        <pt x="26" y="0" on="1"/>
      </contour>
      <contour>
        <pt x="334" y="360" on="1"/>
        <pt x="311" y="390" on="0"/>
        <pt x="279" y="390" on="1"/>
        <pt x="264" y="390" on="0"/>
        <pt x="230" y="374" on="0"/>
        <pt x="203" y="344" on="0"/>
        <pt x="185" y="299" on="0"/>
        <pt x="185" y="271" on="1"/>
        <pt x="185" y="206" on="0"/>
        <pt x="235" y="206" on="1"/>
        <pt x="255" y="206" on="0"/>
        <pt x="291" y="224" on="0"/>
        <pt x="311" y="244" on="1"/>
      </contour>
      <contour>
        <pt x="555" y="554" on="1"/>
        <pt x="484" y="548" on="1"/>
        <pt x="398" y="124" on="1"/>
        <pt x="305" y="124" on="1"/>
        <pt x="305" y="163" on="1"/>
        <pt x="303" y="163" on="1"/>
        <pt x="280" y="141" on="0"/>
        <pt x="220" y="114" on="0"/>
        <pt x="190" y="114" on="1"/>
        <pt x="132" y="114" on="0"/>
        <pt x="68" y="188" on="0"/>
        <pt x="68" y="254" on="1"/>
        <pt x="68" y="307" on="0"/>
        <pt x="106" y="392" on="0"/>
        <pt x="165" y="451" on="0"/>
        <pt x="236" y="482" on="0"/>
        <pt x="270" y="482" on="1"/>
        <pt x="302" y="482" on="0"/>
        <pt x="338" y="461" on="0"/>
        <pt x="353" y="442" on="1"/>
        <pt x="365" y="511" on="1"/>
        <pt x="372" y="548" on="1"/>
        <pt x="235" y="548" on="1"/>
        <pt x="249" y="618" on="1"/>
        <pt x="386" y="618" on="1"/>
        <pt x="397" y="674" on="1"/>
        <pt x="509" y="674" on="1"/>
        <pt x="498" y="618" on="1"/>
        <pt x="568" y="618" on="1"/>
      </contour>
    </TTGlyph>
    <TTGlyph name="dotaccent" xMin="265" yMin="570" xMax="424" yMax="717">
      <component glyphName="uni0307" x="219" y="0" flags="0x4"/>
    </TTGlyph>
    <TTGlyph name="dotlessi" xMin="14" yMin="0" xMax="250" yMax="496">
      <contour>
        <pt x="114" y="496" on="1"/>
        <pt x="250" y="496" on="1"/>
        <pt x="151" y="0" on="1"/>
        <pt x="14" y="0" on="1"/>
      </contour>
    </TTGlyph>
    <TTGlyph name="e" xMin="29" yMin="-12" xMax="467" yMax="508">
      <contour>
        <pt x="29" y="200" on="1"/>
        <pt x="29" y="269" on="0"/>
        <pt x="78" y="382" on="0"/>
        <pt x="157" y="463" on="0"/>
        <pt x="255" y="508" on="0"/>
        <pt x="305" y="508" on="1"/>
        <pt x="349" y="508" on="0"/>
        <pt x="411" y="479" on="0"/>
        <pt x="450" y="428" on="0"/>
        <pt x="467" y="361" on="0"/>
        <pt x="467" y="322" on="1"/>
        <pt x="467" y="304" on="0"/>
        <pt x="461" y="269" on="0"/>
        <pt x="453" y="238" on="0"/>
        <pt x="444" y="215" on="0"/>
        <pt x="441" y="209" on="1"/>
        <pt x="159" y="209" on="1"/>
        <pt x="156" y="147" on="0"/>
        <pt x="221" y="91" on="0"/>
        <pt x="270" y="91" on="1"/>
        <pt x="293" y="91" on="0"/>
        <pt x="343" y="113" on="0"/>
        <pt x="362" y="126" on="1"/>
        <pt x="410" y="40" on="1"/>
        <pt x="380" y="19" on="0"/>
        <pt x="290" y="-12" on="0"/>
        <pt x="232" y="-12" on="1"/>
        <pt x="187" y="-12" on="0"/>
        <pt x="112" y="17" on="0"/>
        <pt x="59" y="72" on="0"/>
        <pt x="29" y="150" on="0"/>
      </contour>
      <contour>
        <pt x="350" y="293" on="1"/>
        <pt x="355" y="310" on="0"/>
        <pt x="355" y="330" on="1"/>
        <pt x="355" y="360" on="0"/>
        <pt x="326" y="403" on="0"/>
        <pt x="288" y="403" on="1"/>
        <pt x="253" y="403" on="0"/>
        <pt x="187" y="348" on="0"/>
        <pt x="170" y="293" on="1"/>
      </contour>
    </TTGlyph>
    <TTGlyph name="e.sups" xMin="52" yMin="254" xMax="347" yMax="599">
      <contour>
        <pt x="52" y="396" on="1"/>
        <pt x="52" y="441" on="0"/>
        <pt x="85" y="516" on="0"/>
        <pt x="139" y="569" on="0"/>
        <pt x="205" y="599" on="0"/>
        <pt x="238" y="599" on="1"/>
        <pt x="269" y="599" on="0"/>
        <pt x="310" y="579" on="0"/>
        <pt x="336" y="544" on="0"/>
        <pt x="347" y="499" on="0"/>
        <pt x="347" y="474" on="1"/>
        <pt x="347" y="451" on="0"/>
        <pt x="335" y="406" on="0"/>
        <pt x="330" y="398" on="1"/>
        <pt x="143" y="398" on="1"/>
        <pt x="142" y="361" on="0"/>
        <pt x="184" y="326" on="0"/>
        <pt x="218" y="326" on="1"/>
        <pt x="233" y="326" on="0"/>
        <pt x="260" y="336" on="0"/>
        <pt x="276" y="346" on="1"/>
        <pt x="305" y="285" on="1"/>
        <pt x="249" y="254" on="0"/>
        <pt x="191" y="254" on="1"/>
        <pt x="128" y="254" on="0"/>
        <pt x="52" y="329" on="0"/>
      </contour>
      <contour>
        <pt x="266" y="457" on="1"/>
        <pt x="269" y="467" on="0"/>
        <pt x="269" y="479" on="1"/>
        <pt x="269" y="498" on="0"/>
        <pt x="250" y="526" on="0"/>
        <pt x="226" y="526" on="1"/>
        <pt x="204" y="526" on="0"/>
        <pt x="161" y="491" on="0"/>
        <pt x="150" y="457" on="1"/>
      </contour>
    </TTGlyph>
    <TTGlyph name="eacute" xMin="29" yMin="-12" xMax="491" yMax="722">
      <component glyphName="e" x="0" y="0" flags="0x204"/>
      <component glyphName="uni0301" x="208" y="0" flags="0x4"/>
    </TTGlyph>
    <TTGlyph name="eacute.sups" xMin="53" yMin="256" xMax="365" yMax="739">
      <contour>
        <pt x="269" y="739" on="1"/>
        <pt x="365" y="739" on="1"/>
        <pt x="264" y="640" on="1"/>
        <pt x="192" y="640" on="1"/>
      </contour>
      <contour>
        <pt x="53" y="397" on="1"/>
        <pt x="53" y="442" on="0"/>
        <pt x="86" y="517" on="0"/>
        <pt x="139" y="571" on="0"/>
        <pt x="206" y="601" on="0"/>
        <pt x="239" y="601" on="1"/>
        <pt x="269" y="601" on="0"/>
        <pt x="311" y="581" on="0"/>
        <pt x="337" y="546" on="0"/>
        <pt x="348" y="501" on="0"/>
        <pt x="348" y="476" on="1"/>
        <pt x="348" y="452" on="0"/>
        <pt x="335" y="408" on="0"/>
        <pt x="330" y="400" on="1"/>
        <pt x="143" y="400" on="1"/>
        <pt x="142" y="362" on="0"/>
        <pt x="184" y="327" on="0"/>
        <pt x="218" y="327" on="1"/>
        <pt x="233" y="327" on="0"/>
        <pt x="260" y="338" on="0"/>
        <pt x="276" y="348" on="1"/>
        <pt x="305" y="287" on="1"/>
        <pt x="249" y="256" on="0"/>
        <pt x="192" y="256" on="1"/>
        <pt x="129" y="256" on="0"/>
        <pt x="53" y="331" on="0"/>
      </contour>
      <contour>
        <pt x="267" y="458" on="1"/>
        <pt x="268" y="464" on="0"/>
        <pt x="269" y="474" on="0"/>
        <pt x="269" y="481" on="1"/>
        <pt x="269" y="500" on="0"/>
        <pt x="250" y="527" on="0"/>
        <pt x="227" y="527" on="1"/>
        <pt x="205" y="527" on="0"/>
        <pt x="162" y="493" on="0"/>
        <pt x="151" y="458" on="1"/>
      </contour>
    </TTGlyph>
    <TTGlyph name="ebreve" xMin="29" yMin="-12" xMax="482" yMax="711">
      <component glyphName="e" x="0" y="0" flags="0x204"/>
      <component glyphName="uni0306" x="208" y="0" flags="0x4"/>
    </TTGlyph>
    <TTGlyph name="ecaron" xMin="29" yMin="-12" xMax="498" yMax="722">
      <component glyphName="e" x="0" y="0" flags="0x204"/>
      <component glyphName="uni030C" x="208" y="0" flags="0x4"/>
    </TTGlyph>
    <TTGlyph name="ecircumflex" xMin="29" yMin="-12" xMax="467" yMax="722">
      <component glyphName="e" x="0" y="0" flags="0x204"/>
      <component glyphName="uni0302" x="208" y="0" flags="0x4"/>
    </TTGlyph>
    <TTGlyph name="edieresis" xMin="29" yMin="-12" xMax="495" yMax="706">
      <component glyphName="e" x="0" y="0" flags="0x204"/>
      <component glyphName="uni0308" x="208" y="0" flags="0x4"/>
    </TTGlyph>
    <TTGlyph name="edotaccent" xMin="29" yMin="-12" xMax="467" yMax="717">
      <component glyphName="e" x="0" y="0" flags="0x204"/>
      <component glyphName="uni0307" x="208" y="0" flags="0x4"/>
    </TTGlyph>
    <TTGlyph name="egrave" xMin="29" yMin="-12" xMax="467" yMax="722">
      <component glyphName="e" x="0" y="0" flags="0x204"/>
      <component glyphName="uni0300" x="208" y="0" flags="0x4"/>
    </TTGlyph>
    <TTGlyph name="egrave.sups" xMin="53" yMin="256" xMax="348" yMax="739">
      <contour>
        <pt x="172" y="739" on="1"/>
        <pt x="259" y="739" on="1"/>
        <pt x="298" y="640" on="1"/>
        <pt x="231" y="640" on="1"/>
      </contour>
      <contour>
        <pt x="53" y="397" on="1"/>
        <pt x="53" y="442" on="0"/>
        <pt x="86" y="517" on="0"/>
        <pt x="139" y="571" on="0"/>
        <pt x="206" y="601" on="0"/>
        <pt x="239" y="601" on="1"/>
        <pt x="269" y="601" on="0"/>
        <pt x="311" y="581" on="0"/>
        <pt x="337" y="546" on="0"/>
        <pt x="348" y="501" on="0"/>
        <pt x="348" y="476" on="1"/>
        <pt x="348" y="452" on="0"/>
        <pt x="335" y="408" on="0"/>
        <pt x="330" y="400" on="1"/>
        <pt x="143" y="400" on="1"/>
        <pt x="142" y="362" on="0"/>
        <pt x="184" y="327" on="0"/>
        <pt x="218" y="327" on="1"/>
        <pt x="233" y="327" on="0"/>
        <pt x="260" y="338" on="0"/>
        <pt x="276" y="348" on="1"/>
        <pt x="305" y="287" on="1"/>
        <pt x="249" y="256" on="0"/>
        <pt x="192" y="256" on="1"/>
        <pt x="129" y="256" on="0"/>
        <pt x="53" y="331" on="0"/>
      </contour>
      <contour>
        <pt x="267" y="458" on="1"/>
        <pt x="268" y="464" on="0"/>
        <pt x="269" y="474" on="0"/>
        <pt x="269" y="481" on="1"/>
        <pt x="269" y="500" on="0"/>
        <pt x="250" y="527" on="0"/>
        <pt x="227" y="527" on="1"/>
        <pt x="205" y="527" on="0"/>
        <pt x="162" y="493" on="0"/>
        <pt x="151" y="458" on="1"/>
      </contour>
    </TTGlyph>
    <TTGlyph name="eight" xMin="37" yMin="-12" xMax="498" yMax="647">
      <contour>
        <pt x="230" y="291" on="1"/>
        <pt x="200" y="270" on="0"/>
        <pt x="159" y="210" on="0"/>
        <pt x="159" y="169" on="1"/>
        <pt x="159" y="133" on="0"/>
        <pt x="203" y="83" on="0"/>
        <pt x="243" y="83" on="1"/>
        <pt x="261" y="83" on="0"/>
        <pt x="296" y="95" on="0"/>
        <pt x="322" y="118" on="0"/>
        <pt x="338" y="153" on="0"/>
        <pt x="338" y="176" on="1"/>
        <pt x="338" y="214" on="0"/>
        <pt x="278" y="264" on="0"/>
      </contour>
      <contour>
        <pt x="322" y="365" on="1"/>
        <pt x="345" y="385" on="0"/>
        <pt x="381" y="440" on="0"/>
        <pt x="381" y="478" on="1"/>
        <pt x="381" y="510" on="0"/>
        <pt x="349" y="550" on="0"/>
        <pt x="315" y="550" on="1"/>
        <pt x="284" y="550" on="0"/>
        <pt x="239" y="508" on="0"/>
        <pt x="239" y="470" on="1"/>
        <pt x="239" y="434" on="0"/>
        <pt x="281" y="387" on="0"/>
      </contour>
      <contour>
        <pt x="37" y="154" on="1"/>
        <pt x="37" y="187" on="0"/>
        <pt x="59" y="242" on="0"/>
        <pt x="96" y="287" on="0"/>
        <pt x="146" y="321" on="0"/>
        <pt x="174" y="332" on="1"/>
        <pt x="174" y="336" on="1"/>
        <pt x="147" y="364" on="0"/>
        <pt x="119" y="427" on="0"/>
        <pt x="119" y="465" on="1"/>
        <pt x="119" y="507" on="0"/>
        <pt x="152" y="575" on="0"/>
        <pt x="209" y="622" on="0"/>
        <pt x="283" y="647" on="0"/>
        <pt x="325" y="647" on="1"/>
        <pt x="357" y="647" on="0"/>
        <pt x="419" y="630" on="0"/>
        <pt x="468" y="593" on="0"/>
        <pt x="498" y="537" on="0"/>
        <pt x="498" y="498" on="1"/>
        <pt x="498" y="438" on="0"/>
        <pt x="436" y="354" on="0"/>
        <pt x="384" y="326" on="1"/>
        <pt x="384" y="322" on="1"/>
        <pt x="418" y="299" on="0"/>
        <pt x="463" y="226" on="0"/>
        <pt x="463" y="177" on="1"/>
        <pt x="463" y="133" on="0"/>
        <pt x="426" y="64" on="0"/>
        <pt x="363" y="14" on="0"/>
        <pt x="279" y="-12" on="0"/>
        <pt x="233" y="-12" on="1"/>
        <pt x="199" y="-12" on="0"/>
        <pt x="130" y="7" on="0"/>
        <pt x="73" y="47" on="0"/>
        <pt x="37" y="110" on="0"/>
      </contour>
    </TTGlyph>
    <TTGlyph name="eight.dnom" xMin="6" yMin="-12" xMax="319" yMax="402">
      <contour>
        <pt x="100" y="103" on="1"/>
        <pt x="100" y="84" on="0"/>
        <pt x="127" y="56" on="0"/>
        <pt x="147" y="56" on="1"/>
        <pt x="173" y="56" on="0"/>
        <pt x="205" y="85" on="0"/>
        <pt x="205" y="108" on="1"/>
        <pt x="205" y="131" on="0"/>
        <pt x="171" y="155" on="0"/>
        <pt x="148" y="169" on="1"/>
        <pt x="125" y="157" on="0"/>
        <pt x="100" y="123" on="0"/>
      </contour>
      <contour>
        <pt x="195" y="234" on="1"/>
        <pt x="212" y="250" on="0"/>
        <pt x="231" y="279" on="0"/>
        <pt x="231" y="294" on="1"/>
        <pt x="231" y="313" on="0"/>
        <pt x="210" y="332" on="0"/>
        <pt x="194" y="332" on="1"/>
        <pt x="174" y="332" on="0"/>
        <pt x="148" y="309" on="0"/>
        <pt x="148" y="288" on="1"/>
        <pt x="148" y="270" on="0"/>
        <pt x="175" y="244" on="0"/>
      </contour>
      <contour>
        <pt x="6" y="93" on="1"/>
        <pt x="6" y="113" on="0"/>
        <pt x="22" y="148" on="0"/>
        <pt x="47" y="177" on="0"/>
        <pt x="80" y="201" on="0"/>
        <pt x="97" y="209" on="1"/>
        <pt x="98" y="213" on="1"/>
        <pt x="81" y="228" on="0"/>
        <pt x="61" y="265" on="0"/>
        <pt x="61" y="289" on="1"/>
        <pt x="61" y="314" on="0"/>
        <pt x="84" y="356" on="0"/>
        <pt x="122" y="386" on="0"/>
        <pt x="173" y="402" on="0"/>
        <pt x="201" y="402" on="1"/>
        <pt x="254" y="402" on="0"/>
        <pt x="319" y="348" on="0"/>
        <pt x="319" y="303" on="1"/>
        <pt x="319" y="267" on="0"/>
        <pt x="278" y="214" on="0"/>
        <pt x="247" y="198" on="1"/>
        <pt x="247" y="194" on="1"/>
        <pt x="268" y="179" on="0"/>
        <pt x="295" y="137" on="0"/>
        <pt x="295" y="108" on="1"/>
        <pt x="295" y="82" on="0"/>
        <pt x="270" y="38" on="0"/>
        <pt x="228" y="6" on="0"/>
        <pt x="172" y="-12" on="0"/>
        <pt x="140" y="-12" on="1"/>
        <pt x="78" y="-12" on="0"/>
        <pt x="6" y="48" on="0"/>
      </contour>
    </TTGlyph>
    <TTGlyph name="eight.numr" xMin="56" yMin="258" xMax="369" yMax="672">
      <component glyphName="eight.dnom" x="50" y="270" flags="0x204"/>
    </TTGlyph>
    <TTGlyph name="eight.onum" xMin="37" yMin="-12" xMax="498" yMax="647">
      <component glyphName="eight" x="0" y="0" flags="0x204"/>
    </TTGlyph>
    <TTGlyph name="eight.pnum" xMin="37" yMin="-12" xMax="498" yMax="647">
      <component glyphName="eight" x="0" y="0" flags="0x204"/>
    </TTGlyph>
    <TTGlyph name="eight.subs" xMin="-31" yMin="-181" xMax="282" yMax="233">
      <component glyphName="eight.dnom" x="-37" y="-169" flags="0x204"/>
    </TTGlyph>
    <TTGlyph name="eight.sups" xMin="88" yMin="428" xMax="401" yMax="842">
      <component glyphName="eight.dnom" x="82" y="440" flags="0x204"/>
    </TTGlyph>
    <TTGlyph name="eight.tnum" xMin="37" yMin="-12" xMax="498" yMax="647">
      <component glyphName="eight" x="0" y="0" flags="0x204"/>
    </TTGlyph>
    <TTGlyph name="ellipsis" xMin="70" yMin="-12" xMax="878" yMax="163">
      <component glyphName="period" x="46" y="0" flags="0x4"/>
      <component glyphName="period" x="366" y="0" flags="0x4"/>
      <component glyphName="period" x="686" y="0" flags="0x4"/>
    </TTGlyph>
    <TTGlyph name="emacron" xMin="29" yMin="-12" xMax="473" yMax="680">
      <component glyphName="e" x="0" y="0" flags="0x204"/>
      <component glyphName="uni0304" x="208" y="0" flags="0x4"/>
    </TTGlyph>
    <TTGlyph name="emdash" xMin="34" yMin="208" xMax="737" yMax="297">
      <contour>
        <pt x="52" y="297" on="1"/>
        <pt x="737" y="297" on="1"/>
        <pt x="719" y="208" on="1"/>
        <pt x="34" y="208" on="1"/>
      </contour>
    </TTGlyph>
    <TTGlyph name="endash" xMin="34" yMin="208" xMax="429" yMax="297">
      <contour>
        <pt x="52" y="297" on="1"/>
        <pt x="429" y="297" on="1"/>
        <pt x="411" y="208" on="1"/>
        <pt x="34" y="208" on="1"/>
      </contour>
    </TTGlyph>
    <TTGlyph name="eogonek" xMin="29" yMin="-210" xMax="467" yMax="508">
      <contour>
        <pt x="170" y="-137" on="1"/>
        <pt x="170" y="-113" on="0"/>
        <pt x="189" y="-71" on="0"/>
        <pt x="215" y="-38" on="0"/>
        <pt x="239" y="-16" on="0"/>
        <pt x="245" y="-11" on="1"/>
        <pt x="243" y="-12" on="0"/>
        <pt x="236" y="-12" on="0"/>
        <pt x="234" y="-12" on="1"/>
        <pt x="188" y="-12" on="0"/>
        <pt x="113" y="17" on="0"/>
        <pt x="59" y="72" on="0"/>
        <pt x="29" y="150" on="0"/>
        <pt x="29" y="200" on="1"/>
        <pt x="29" y="269" on="0"/>
        <pt x="78" y="382" on="0"/>
        <pt x="157" y="463" on="0"/>
        <pt x="255" y="508" on="0"/>
        <pt x="305" y="508" on="1"/>
        <pt x="349" y="508" on="0"/>
        <pt x="411" y="479" on="0"/>
        <pt x="450" y="428" on="0"/>
        <pt x="467" y="361" on="0"/>
        <pt x="467" y="322" on="1"/>
        <pt x="467" y="304" on="0"/>
        <pt x="461" y="269" on="0"/>
        <pt x="453" y="238" on="0"/>
        <pt x="444" y="215" on="0"/>
        <pt x="441" y="209" on="1"/>
        <pt x="159" y="209" on="1"/>
        <pt x="156" y="147" on="0"/>
        <pt x="221" y="91" on="0"/>
        <pt x="270" y="91" on="1"/>
        <pt x="293" y="91" on="0"/>
        <pt x="343" y="113" on="0"/>
        <pt x="362" y="126" on="1"/>
        <pt x="410" y="40" on="1"/>
        <pt x="365" y="18" on="0"/>
        <pt x="310" y="-22" on="0"/>
        <pt x="280" y="-57" on="0"/>
        <pt x="269" y="-86" on="0"/>
        <pt x="269" y="-98" on="1"/>
        <pt x="269" y="-112" on="0"/>
        <pt x="289" y="-128" on="0"/>
        <pt x="303" y="-128" on="1"/>
        <pt x="318" y="-128" on="0"/>
        <pt x="336" y="-118" on="1"/>
        <pt x="359" y="-174" on="1"/>
        <pt x="338" y="-189" on="0"/>
        <pt x="280" y="-210" on="0"/>
        <pt x="255" y="-210" on="1"/>
        <pt x="218" y="-210" on="0"/>
        <pt x="170" y="-173" on="0"/>
      </contour>
      <contour>
        <pt x="350" y="293" on="1"/>
        <pt x="355" y="310" on="0"/>
        <pt x="355" y="330" on="1"/>
        <pt x="355" y="360" on="0"/>
        <pt x="326" y="403" on="0"/>
        <pt x="288" y="403" on="1"/>
        <pt x="253" y="403" on="0"/>
        <pt x="187" y="348" on="0"/>
        <pt x="170" y="293" on="1"/>
      </contour>
    </TTGlyph>
    <TTGlyph name="equal" xMin="48" yMin="167" xMax="485" yMax="495">
      <component glyphName="minus" x="0" y="116" flags="0x204"/>
      <component glyphName="minus" x="0" y="-115" flags="0x4"/>
    </TTGlyph>
    <TTGlyph name="estimated" xMin="66" yMin="-12" xMax="774" yMax="660">
      <contour>
        <pt x="204" y="108" on="1"/>
        <pt x="245" y="61" on="0"/>
        <pt x="357" y="8" on="0"/>
        <pt x="422" y="8" on="1"/>
        <pt x="490" y="8" on="0"/>
        <pt x="608" y="69" on="0"/>
        <pt x="650" y="120" on="1"/>
        <pt x="702" y="120" on="1"/>
        <pt x="652" y="60" on="0"/>
        <pt x="506" y="-12" on="0"/>
        <pt x="420" y="-12" on="1"/>
        <pt x="346" y="-12" on="0"/>
        <pt x="217" y="41" on="0"/>
        <pt x="121" y="132" on="0"/>
        <pt x="66" y="254" on="0"/>
        <pt x="66" y="324" on="1"/>
        <pt x="66" y="394" on="0"/>
        <pt x="121" y="516" on="0"/>
        <pt x="217" y="607" on="0"/>
        <pt x="346" y="660" on="0"/>
        <pt x="420" y="660" on="1"/>
        <pt x="493" y="660" on="0"/>
        <pt x="622" y="607" on="0"/>
        <pt x="718" y="516" on="0"/>
        <pt x="774" y="394" on="0"/>
        <pt x="774" y="324" on="1"/>
        <pt x="774" y="316" on="1"/>
        <pt x="200" y="316" on="1"/>
        <pt x="196" y="316" on="0"/>
        <pt x="196" y="312" on="1"/>
        <pt x="196" y="128" on="1"/>
        <pt x="196" y="122" on="0"/>
        <pt x="201" y="113" on="0"/>
      </contour>
      <contour>
        <pt x="640" y="334" on="1"/>
        <pt x="646" y="334" on="0"/>
        <pt x="646" y="340" on="1"/>
        <pt x="646" y="524" on="1"/>
        <pt x="646" y="536" on="0"/>
        <pt x="636" y="546" on="1"/>
        <pt x="594" y="590" on="0"/>
        <pt x="484" y="640" on="0"/>
        <pt x="422" y="640" on="1"/>
        <pt x="357" y="640" on="0"/>
        <pt x="246" y="587" on="0"/>
        <pt x="204" y="542" on="1"/>
        <pt x="201" y="537" on="0"/>
        <pt x="196" y="526" on="0"/>
        <pt x="196" y="520" on="1"/>
        <pt x="196" y="340" on="1"/>
        <pt x="196" y="334" on="0"/>
        <pt x="200" y="334" on="1"/>
      </contour>
    </TTGlyph>
    <TTGlyph name="eth" xMin="34" yMin="-12" xMax="553" yMax="740">
      <contour>
        <pt x="236" y="98" on="1"/>
        <pt x="263" y="98" on="0"/>
        <pt x="306" y="128" on="0"/>
        <pt x="339" y="182" on="0"/>
        <pt x="361" y="255" on="0"/>
        <pt x="365" y="299" on="1"/>
        <pt x="351" y="320" on="0"/>
        <pt x="309" y="351" on="0"/>
        <pt x="280" y="351" on="1"/>
        <pt x="250" y="351" on="0"/>
        <pt x="204" y="323" on="0"/>
        <pt x="173" y="278" on="0"/>
        <pt x="157" y="221" on="0"/>
        <pt x="157" y="193" on="1"/>
        <pt x="157" y="153" on="0"/>
        <pt x="197" y="98" on="0"/>
      </contour>
      <contour>
        <pt x="428" y="587" on="1"/>
        <pt x="460" y="539" on="0"/>
        <pt x="494" y="424" on="0"/>
        <pt x="494" y="356" on="1"/>
        <pt x="494" y="288" on="0"/>
        <pt x="461" y="156" on="0"/>
        <pt x="393" y="52" on="0"/>
        <pt x="292" y="-12" on="0"/>
        <pt x="223" y="-12" on="1"/>
        <pt x="184" y="-12" on="0"/>
        <pt x="115" y="15" on="0"/>
        <pt x="64" y="66" on="0"/>
        <pt x="34" y="137" on="0"/>
        <pt x="34" y="182" on="1"/>
        <pt x="34" y="231" on="0"/>
        <pt x="64" y="329" on="0"/>
        <pt x="123" y="407" on="0"/>
        <pt x="208" y="455" on="0"/>
        <pt x="263" y="455" on="1"/>
        <pt x="293" y="455" on="0"/>
        <pt x="347" y="428" on="0"/>
        <pt x="364" y="401" on="1"/>
        <pt x="357" y="482" on="0"/>
        <pt x="318" y="543" on="1"/>
        <pt x="173" y="485" on="1"/>
        <pt x="147" y="550" on="1"/>
        <pt x="271" y="600" on="1"/>
        <pt x="236" y="633" on="0"/>
        <pt x="191" y="661" on="1"/>
        <pt x="254" y="740" on="1"/>
        <pt x="291" y="720" on="0"/>
        <pt x="356" y="673" on="0"/>
        <pt x="382" y="644" on="1"/>
        <pt x="527" y="702" on="1"/>
        <pt x="553" y="637" on="1"/>
      </contour>
    </TTGlyph>
    <TTGlyph name="exclam" xMin="45" yMin="-12" xMax="317" yMax="670">
      <contour>
        <pt x="161" y="544" on="1"/>
        <pt x="180" y="670" on="1"/>
        <pt x="317" y="670" on="1"/>
        <pt x="288" y="544" on="1"/>
        <pt x="205" y="226" on="1"/>
        <pt x="115" y="226" on="1"/>
      </contour>
      <contour>
        <pt x="116" y="-12" on="1"/>
        <pt x="84" y="-12" on="0"/>
        <pt x="45" y="29" on="0"/>
        <pt x="45" y="62" on="1"/>
        <pt x="45" y="80" on="0"/>
        <pt x="59" y="117" on="0"/>
        <pt x="85" y="145" on="0"/>
        <pt x="121" y="163" on="0"/>
        <pt x="143" y="163" on="1"/>
        <pt x="175" y="163" on="0"/>
        <pt x="214" y="120" on="0"/>
        <pt x="214" y="88" on="1"/>
        <pt x="214" y="69" on="0"/>
        <pt x="200" y="33" on="0"/>
        <pt x="174" y="5" on="0"/>
        <pt x="138" y="-12" on="0"/>
      </contour>
    </TTGlyph>
    <TTGlyph name="exclamdown" xMin="17" yMin="-174" xMax="289" yMax="508">
      <contour>
        <pt x="173" y="-48" on="1"/>
        <pt x="154" y="-174" on="1"/>
        <pt x="17" y="-174" on="1"/>
        <pt x="46" y="-48" on="1"/>
        <pt x="129" y="270" on="1"/>
        <pt x="219" y="270" on="1"/>
      </contour>
      <contour>
        <pt x="218" y="508" on="1"/>
        <pt x="250" y="508" on="0"/>
        <pt x="289" y="467" on="0"/>
        <pt x="289" y="434" on="1"/>
        <pt x="289" y="416" on="0"/>
        <pt x="275" y="379" on="0"/>
        <pt x="249" y="351" on="0"/>
        <pt x="213" y="333" on="0"/>
        <pt x="191" y="333" on="1"/>
        <pt x="159" y="333" on="0"/>
        <pt x="120" y="376" on="0"/>
        <pt x="120" y="408" on="1"/>
        <pt x="120" y="427" on="0"/>
        <pt x="134" y="463" on="0"/>
        <pt x="160" y="491" on="0"/>
        <pt x="196" y="508" on="0"/>
      </contour>
    </TTGlyph>
    <TTGlyph name="f" xMin="36" yMin="0" xMax="441" yMax="713">
      <contour>
        <pt x="72" y="490" on="1"/>
        <pt x="137" y="496" on="1"/>
        <pt x="143" y="529" on="1"/>
        <pt x="150" y="567" on="0"/>
        <pt x="180" y="634" on="0"/>
        <pt x="227" y="684" on="0"/>
        <pt x="292" y="713" on="0"/>
        <pt x="335" y="713" on="1"/>
        <pt x="364" y="713" on="0"/>
        <pt x="418" y="699" on="0"/>
        <pt x="441" y="686" on="1"/>
        <pt x="397" y="589" on="1"/>
        <pt x="389" y="594" on="0"/>
        <pt x="363" y="604" on="0"/>
        <pt x="349" y="604" on="1"/>
        <pt x="322" y="604" on="0"/>
        <pt x="288" y="575" on="0"/>
        <pt x="280" y="534" on="1"/>
        <pt x="273" y="496" on="1"/>
        <pt x="359" y="496" on="1"/>
        <pt x="338" y="389" on="1"/>
        <pt x="250" y="389" on="1"/>
        <pt x="173" y="0" on="1"/>
        <pt x="36" y="0" on="1"/>
        <pt x="115" y="389" on="1"/>
        <pt x="51" y="389" on="1"/>
      </contour>
    </TTGlyph>
    <TTGlyph name="f.sups" xMin="58" yMin="262" xMax="333" yMax="738">
      <contour>
        <pt x="302" y="653" on="1"/>
        <pt x="297" y="657" on="0"/>
        <pt x="279" y="663" on="0"/>
        <pt x="271" y="663" on="1"/>
        <pt x="252" y="663" on="0"/>
        <pt x="230" y="639" on="0"/>
        <pt x="225" y="612" on="1"/>
        <pt x="221" y="591" on="1"/>
        <pt x="279" y="591" on="1"/>
        <pt x="264" y="516" on="1"/>
        <pt x="206" y="516" on="1"/>
        <pt x="154" y="262" on="1"/>
        <pt x="58" y="262" on="1"/>
        <pt x="109" y="516" on="1"/>
        <pt x="67" y="516" on="1"/>
        <pt x="79" y="586" on="1"/>
        <pt x="124" y="590" on="1"/>
        <pt x="129" y="614" on="1"/>
        <pt x="134" y="639" on="0"/>
        <pt x="154" y="685" on="0"/>
        <pt x="186" y="718" on="0"/>
        <pt x="230" y="738" on="0"/>
        <pt x="260" y="738" on="1"/>
        <pt x="298" y="738" on="0"/>
        <pt x="333" y="720" on="1"/>
      </contour>
    </TTGlyph>
    <TTGlyph name="f_f" xMin="36" yMin="0" xMax="741" yMax="713">
      <contour>
        <pt x="698" y="589" on="1"/>
        <pt x="690" y="594" on="0"/>
        <pt x="663" y="604" on="0"/>
        <pt x="650" y="604" on="1"/>
        <pt x="622" y="604" on="0"/>
        <pt x="588" y="575" on="0"/>
        <pt x="580" y="534" on="1"/>
        <pt x="572" y="496" on="1"/>
        <pt x="659" y="496" on="1"/>
        <pt x="639" y="389" on="1"/>
        <pt x="551" y="389" on="1"/>
        <pt x="474" y="0" on="1"/>
        <pt x="337" y="0" on="1"/>
        <pt x="416" y="389" on="1"/>
        <pt x="251" y="389" on="1"/>
        <pt x="173" y="0" on="1"/>
        <pt x="36" y="0" on="1"/>
        <pt x="115" y="389" on="1"/>
        <pt x="51" y="389" on="1"/>
        <pt x="72" y="490" on="1"/>
        <pt x="136" y="495" on="1"/>
        <pt x="141" y="519" on="1"/>
        <pt x="149" y="557" on="0"/>
        <pt x="179" y="624" on="0"/>
        <pt x="226" y="674" on="0"/>
        <pt x="292" y="703" on="0"/>
        <pt x="335" y="703" on="1"/>
        <pt x="364" y="703" on="0"/>
        <pt x="419" y="689" on="0"/>
        <pt x="443" y="676" on="1"/>
        <pt x="399" y="579" on="1"/>
        <pt x="390" y="584" on="0"/>
        <pt x="363" y="594" on="0"/>
        <pt x="349" y="594" on="1"/>
        <pt x="320" y="594" on="0"/>
        <pt x="286" y="565" on="0"/>
        <pt x="278" y="524" on="1"/>
        <pt x="272" y="496" on="1"/>
        <pt x="437" y="496" on="1"/>
        <pt x="444" y="529" on="1"/>
        <pt x="451" y="567" on="0"/>
        <pt x="481" y="634" on="0"/>
        <pt x="528" y="684" on="0"/>
        <pt x="593" y="713" on="0"/>
        <pt x="635" y="713" on="1"/>
        <pt x="664" y="713" on="0"/>
        <pt x="718" y="699" on="0"/>
        <pt x="741" y="686" on="1"/>
      </contour>
    </TTGlyph>
    <TTGlyph name="f_t" xMin="36" yMin="-12" xMax="667" yMax="713">
      <contour>
        <pt x="487" y="176" on="1"/>
        <pt x="485" y="167" on="0"/>
        <pt x="485" y="151" on="0"/>
        <pt x="485" y="143" on="1"/>
        <pt x="485" y="95" on="0"/>
        <pt x="537" y="95" on="1"/>
        <pt x="548" y="95" on="0"/>
        <pt x="567" y="101" on="0"/>
        <pt x="577" y="106" on="1"/>
        <pt x="602" y="10" on="1"/>
        <pt x="582" y="2" on="0"/>
        <pt x="523" y="-12" on="0"/>
        <pt x="485" y="-12" on="1"/>
        <pt x="410" y="-12" on="0"/>
        <pt x="345" y="62" on="0"/>
        <pt x="345" y="119" on="1"/>
        <pt x="345" y="135" on="0"/>
        <pt x="349" y="166" on="0"/>
        <pt x="352" y="182" on="1"/>
        <pt x="395" y="389" on="1"/>
        <pt x="251" y="389" on="1"/>
        <pt x="173" y="0" on="1"/>
        <pt x="36" y="0" on="1"/>
        <pt x="115" y="389" on="1"/>
        <pt x="51" y="389" on="1"/>
        <pt x="72" y="490" on="1"/>
        <pt x="136" y="495" on="1"/>
        <pt x="143" y="529" on="1"/>
        <pt x="150" y="567" on="0"/>
        <pt x="180" y="634" on="0"/>
        <pt x="227" y="684" on="0"/>
        <pt x="292" y="713" on="0"/>
        <pt x="335" y="713" on="1"/>
        <pt x="364" y="713" on="0"/>
        <pt x="418" y="699" on="0"/>
        <pt x="441" y="686" on="1"/>
        <pt x="397" y="589" on="1"/>
        <pt x="389" y="594" on="0"/>
        <pt x="363" y="604" on="0"/>
        <pt x="349" y="604" on="1"/>
        <pt x="322" y="604" on="0"/>
        <pt x="288" y="575" on="0"/>
        <pt x="280" y="534" on="1"/>
        <pt x="272" y="496" on="1"/>
        <pt x="423" y="496" on="1"/>
        <pt x="465" y="626" on="1"/>
        <pt x="579" y="626" on="1"/>
        <pt x="555" y="496" on="1"/>
        <pt x="667" y="496" on="1"/>
        <pt x="646" y="389" on="1"/>
        <pt x="531" y="389" on="1"/>
      </contour>
    </TTGlyph>
    <TTGlyph name="fi" xMin="36" yMin="0" xMax="620" yMax="717">
      <component glyphName="f" x="0" y="0" flags="0x4"/>
      <component glyphName="i" x="327" y="0" flags="0x4"/>
    </TTGlyph>
    <TTGlyph name="figuredash" xMin="34" yMin="208" xMax="474" yMax="297">
      <contour>
        <pt x="52" y="297" on="1"/>
        <pt x="474" y="297" on="1"/>
        <pt x="456" y="208" on="1"/>
        <pt x="34" y="208" on="1"/>
      </contour>
    </TTGlyph>
    <TTGlyph name="five" xMin="-7" yMin="-12" xMax="508" yMax="635">
      <contour>
        <pt x="79" y="172" on="1"/>
        <pt x="104" y="138" on="0"/>
        <pt x="165" y="98" on="0"/>
        <pt x="204" y="98" on="1"/>
        <pt x="227" y="98" on="0"/>
        <pt x="269" y="114" on="0"/>
        <pt x="300" y="145" on="0"/>
        <pt x="319" y="190" on="0"/>
        <pt x="319" y="218" on="1"/>
        <pt x="319" y="263" on="0"/>
        <pt x="273" y="306" on="0"/>
        <pt x="232" y="306" on="1"/>
        <pt x="220" y="306" on="0"/>
        <pt x="200" y="304" on="0"/>
        <pt x="179" y="297" on="0"/>
        <pt x="155" y="286" on="0"/>
        <pt x="139" y="277" on="1"/>
        <pt x="88" y="319" on="1"/>
        <pt x="166" y="635" on="1"/>
        <pt x="508" y="635" on="1"/>
        <pt x="485" y="520" on="1"/>
        <pt x="262" y="520" on="1"/>
        <pt x="227" y="395" on="1"/>
        <pt x="256" y="408" on="0"/>
        <pt x="288" y="408" on="1"/>
        <pt x="324" y="408" on="0"/>
        <pt x="386" y="387" on="0"/>
        <pt x="431" y="345" on="0"/>
        <pt x="457" y="282" on="0"/>
        <pt x="457" y="240" on="1"/>
        <pt x="457" y="181" on="0"/>
        <pt x="414" y="88" on="0"/>
        <pt x="342" y="23" on="0"/>
        <pt x="250" y="-12" on="0"/>
        <pt x="201" y="-12" on="1"/>
        <pt x="141" y="-12" on="0"/>
        <pt x="35" y="42" on="0"/>
        <pt x="-7" y="102" on="1"/>
      </contour>
    </TTGlyph>
    <TTGlyph name="five.dnom" xMin="-3" yMin="-12" xMax="335" yMax="390">
      <contour>
        <pt x="62" y="115" on="1"/>
        <pt x="90" y="68" on="0"/>
        <pt x="136" y="68" on="1"/>
        <pt x="163" y="68" on="0"/>
        <pt x="202" y="104" on="0"/>
        <pt x="202" y="131" on="1"/>
        <pt x="202" y="156" on="0"/>
        <pt x="173" y="182" on="0"/>
        <pt x="150" y="182" on="1"/>
        <pt x="124" y="182" on="0"/>
        <pt x="92" y="163" on="1"/>
        <pt x="57" y="196" on="1"/>
        <pt x="110" y="390" on="1"/>
        <pt x="335" y="390" on="1"/>
        <pt x="319" y="305" on="1"/>
        <pt x="173" y="305" on="1"/>
        <pt x="155" y="244" on="1"/>
        <pt x="165" y="249" on="0"/>
        <pt x="186" y="251" on="0"/>
        <pt x="192" y="251" on="1"/>
        <pt x="239" y="251" on="0"/>
        <pt x="300" y="190" on="0"/>
        <pt x="300" y="137" on="1"/>
        <pt x="300" y="105" on="0"/>
        <pt x="274" y="50" on="0"/>
        <pt x="231" y="10" on="0"/>
        <pt x="173" y="-12" on="0"/>
        <pt x="142" y="-12" on="1"/>
        <pt x="90" y="-12" on="0"/>
        <pt x="18" y="33" on="0"/>
        <pt x="-3" y="68" on="1"/>
      </contour>
    </TTGlyph>
    <TTGlyph name="five.numr" xMin="47" yMin="258" xMax="385" yMax="660">
      <component glyphName="five.dnom" x="50" y="270" flags="0x204"/>
    </TTGlyph>
    <TTGlyph name="five.onum" xMin="-26" yMin="-89" xMax="492" yMax="578">
      <component glyphName="five.tnum" x="0" y="0" flags="0x204"/>
    </TTGlyph>
    <TTGlyph name="five.pnum" xMin="-15" yMin="-12" xMax="500" yMax="635">
      <component glyphName="five" x="-8" y="0" flags="0x4"/>
    </TTGlyph>
    <TTGlyph name="five.subs" xMin="-40" yMin="-181" xMax="298" yMax="221">
      <component glyphName="five.dnom" x="-37" y="-169" flags="0x204"/>
    </TTGlyph>
    <TTGlyph name="five.sups" xMin="79" yMin="428" xMax="417" yMax="830">
      <component glyphName="five.dnom" x="82" y="440" flags="0x204"/>
    </TTGlyph>
    <TTGlyph name="five.tnum" xMin="-26" yMin="-89" xMax="492" yMax="578">
      <contour>
        <pt x="60" y="95" on="1"/>
        <pt x="85" y="61" on="0"/>
        <pt x="146" y="21" on="0"/>
        <pt x="185" y="21" on="1"/>
        <pt x="208" y="21" on="0"/>
        <pt x="250" y="38" on="0"/>
        <pt x="281" y="69" on="0"/>
        <pt x="300" y="114" on="0"/>
        <pt x="300" y="142" on="1"/>
        <pt x="300" y="190" on="0"/>
        <pt x="254" y="238" on="0"/>
        <pt x="213" y="238" on="1"/>
        <pt x="201" y="238" on="0"/>
        <pt x="181" y="235" on="0"/>
        <pt x="160" y="228" on="0"/>
        <pt x="136" y="217" on="0"/>
        <pt x="120" y="209" on="1"/>
        <pt x="69" y="251" on="1"/>
        <pt x="150" y="578" on="1"/>
        <pt x="492" y="578" on="1"/>
        <pt x="470" y="463" on="1"/>
        <pt x="246" y="463" on="1"/>
        <pt x="208" y="327" on="1"/>
        <pt x="237" y="340" on="0"/>
        <pt x="269" y="340" on="1"/>
        <pt x="305" y="340" on="0"/>
        <pt x="367" y="318" on="0"/>
        <pt x="412" y="274" on="0"/>
        <pt x="438" y="208" on="0"/>
        <pt x="438" y="165" on="1"/>
        <pt x="438" y="106" on="0"/>
        <pt x="395" y="12" on="0"/>
        <pt x="323" y="-54" on="0"/>
        <pt x="231" y="-89" on="0"/>
        <pt x="182" y="-89" on="1"/>
        <pt x="122" y="-89" on="0"/>
        <pt x="16" y="-35" on="0"/>
        <pt x="-26" y="25" on="1"/>
      </contour>
    </TTGlyph>
    <TTGlyph name="fiveeighths" xMin="39" yMin="-12" xMax="771" yMax="672">
      <component glyphName="five.dnom" x="42" y="270" flags="0x4"/>
      <component glyphName="fraction" x="358" y="0" flags="0x4"/>
      <component glyphName="eight.dnom" x="452" y="0" flags="0x4"/>
    </TTGlyph>
    <TTGlyph name="fl" xMin="36" yMin="-12" xMax="619" yMax="713">
      <component glyphName="f" x="0" y="0" flags="0x4"/>
      <component glyphName="l" x="327" y="0" flags="0x4"/>
    </TTGlyph>
    <TTGlyph name="fl.a" xMin="36" yMin="0" xMax="619" yMax="713">
      <component glyphName="f" x="0" y="0" flags="0x4"/>
      <component glyphName="l.a" x="327" y="0" flags="0x4"/>
    </TTGlyph>
    <TTGlyph name="four" xMin="8" yMin="0" xMax="491" yMax="635">
      <contour>
        <pt x="240" y="0" on="1"/>
        <pt x="271" y="154" on="1"/>
        <pt x="8" y="154" on="1"/>
        <pt x="26" y="250" on="1"/>
        <pt x="328" y="635" on="1"/>
        <pt x="491" y="635" on="1"/>
        <pt x="416" y="260" on="1"/>
        <pt x="489" y="260" on="1"/>
        <pt x="469" y="154" on="1"/>
        <pt x="396" y="154" on="1"/>
        <pt x="365" y="0" on="1"/>
      </contour>
      <contour>
        <pt x="291" y="260" on="1"/>
        <pt x="314" y="374" on="1"/>
        <pt x="321" y="408" on="0"/>
        <pt x="339" y="480" on="0"/>
        <pt x="347" y="515" on="1"/>
        <pt x="343" y="515" on="1"/>
        <pt x="324" y="486" on="0"/>
        <pt x="289" y="426" on="0"/>
        <pt x="270" y="399" on="1"/>
        <pt x="161" y="260" on="1"/>
      </contour>
    </TTGlyph>
    <TTGlyph name="four.dnom" xMin="-6" yMin="0" xMax="334" yMax="390">
      <contour>
        <pt x="191" y="156" on="1"/>
        <pt x="201" y="204" on="1"/>
        <pt x="228" y="324" on="1"/>
        <pt x="224" y="324" on="1"/>
        <pt x="164" y="238" on="1"/>
        <pt x="98" y="156" on="1"/>
      </contour>
      <contour>
        <pt x="320" y="89" on="1"/>
        <pt x="264" y="89" on="1"/>
        <pt x="247" y="0" on="1"/>
        <pt x="160" y="0" on="1"/>
        <pt x="178" y="89" on="1"/>
        <pt x="-6" y="89" on="1"/>
        <pt x="5" y="141" on="1"/>
        <pt x="200" y="390" on="1"/>
        <pt x="323" y="390" on="1"/>
        <pt x="277" y="156" on="1"/>
        <pt x="334" y="156" on="1"/>
      </contour>
    </TTGlyph>
    <TTGlyph name="four.numr" xMin="44" yMin="270" xMax="384" yMax="660">
      <component glyphName="four.dnom" x="50" y="270" flags="0x204"/>
    </TTGlyph>
    <TTGlyph name="four.onum" xMin="-2" yMin="-78" xMax="486" yMax="578">
      <component glyphName="four.tnum" x="0" y="0" flags="0x204"/>
    </TTGlyph>
    <TTGlyph name="four.pnum" xMin="17" yMin="0" xMax="500" yMax="635">
      <component glyphName="four" x="9" y="0" flags="0x4"/>
    </TTGlyph>
    <TTGlyph name="four.subs" xMin="-43" yMin="-169" xMax="297" yMax="221">
      <component glyphName="four.dnom" x="-37" y="-169" flags="0x204"/>
    </TTGlyph>
    <TTGlyph name="four.sups" xMin="76" yMin="440" xMax="416" yMax="830">
      <component glyphName="four.dnom" x="82" y="440" flags="0x204"/>
    </TTGlyph>
    <TTGlyph name="four.tnum" xMin="-2" yMin="-78" xMax="486" yMax="578">
      <contour>
        <pt x="282" y="189" on="1"/>
        <pt x="308" y="318" on="1"/>
        <pt x="316" y="352" on="0"/>
        <pt x="333" y="423" on="0"/>
        <pt x="341" y="458" on="1"/>
        <pt x="337" y="458" on="1"/>
        <pt x="319" y="429" on="0"/>
        <pt x="284" y="369" on="0"/>
        <pt x="264" y="343" on="1"/>
        <pt x="151" y="189" on="1"/>
      </contour>
      <contour>
        <pt x="408" y="189" on="1"/>
        <pt x="481" y="189" on="1"/>
        <pt x="460" y="84" on="1"/>
        <pt x="387" y="84" on="1"/>
        <pt x="354" y="-78" on="1"/>
        <pt x="229" y="-78" on="1"/>
        <pt x="261" y="84" on="1"/>
        <pt x="-2" y="84" on="1"/>
        <pt x="16" y="179" on="1"/>
        <pt x="322" y="578" on="1"/>
        <pt x="486" y="578" on="1"/>
      </contour>
    </TTGlyph>
    <TTGlyph name="fraction" xMin="-215" yMin="-12" xMax="339" yMax="672">
      <contour>
        <pt x="-215" y="-12" on="1"/>
        <pt x="259" y="672" on="1"/>
        <pt x="339" y="672" on="1"/>
        <pt x="-135" y="-12" on="1"/>
      </contour>
    </TTGlyph>
    <TTGlyph name="g" xMin="-12" yMin="-213" xMax="531" yMax="508">
      <contour>
        <pt x="531" y="496" on="1"/>
        <pt x="434" y="8" on="1"/>
        <pt x="411" y="-103" on="0"/>
        <pt x="276" y="-213" on="0"/>
        <pt x="171" y="-213" on="1"/>
        <pt x="126" y="-213" on="0"/>
        <pt x="30" y="-178" on="0"/>
        <pt x="-12" y="-143" on="1"/>
        <pt x="47" y="-52" on="1"/>
        <pt x="76" y="-74" on="0"/>
        <pt x="140" y="-104" on="0"/>
        <pt x="175" y="-104" on="1"/>
        <pt x="224" y="-104" on="0"/>
        <pt x="287" y="-51" on="0"/>
        <pt x="302" y="0" on="1"/>
        <pt x="326" y="84" on="1"/>
        <pt x="324" y="84" on="1"/>
        <pt x="290" y="52" on="0"/>
        <pt x="218" y="16" on="0"/>
        <pt x="176" y="16" on="1"/>
        <pt x="113" y="16" on="0"/>
        <pt x="31" y="101" on="0"/>
        <pt x="31" y="189" on="1"/>
        <pt x="31" y="256" on="0"/>
        <pt x="74" y="372" on="0"/>
        <pt x="145" y="458" on="0"/>
        <pt x="239" y="508" on="0"/>
        <pt x="290" y="508" on="1"/>
        <pt x="324" y="508" on="0"/>
        <pt x="382" y="473" on="0"/>
        <pt x="396" y="443" on="1"/>
        <pt x="399" y="443" on="1"/>
        <pt x="420" y="496" on="1"/>
      </contour>
      <contour>
        <pt x="229" y="127" on="1"/>
        <pt x="254" y="127" on="0"/>
        <pt x="310" y="155" on="0"/>
        <pt x="334" y="192" on="1"/>
        <pt x="365" y="349" on="1"/>
        <pt x="352" y="374" on="0"/>
        <pt x="317" y="396" on="0"/>
        <pt x="300" y="396" on="1"/>
        <pt x="274" y="396" on="0"/>
        <pt x="228" y="367" on="0"/>
        <pt x="194" y="316" on="0"/>
        <pt x="173" y="247" on="0"/>
        <pt x="173" y="207" on="1"/>
        <pt x="173" y="166" on="0"/>
        <pt x="203" y="127" on="0"/>
      </contour>
    </TTGlyph>
    <TTGlyph name="g.a" xMin="-26" yMin="-211" xMax="530" yMax="508">
      <contour>
        <pt x="65" y="310" on="1"/>
        <pt x="65" y="353" on="0"/>
        <pt x="99" y="425" on="0"/>
        <pt x="157" y="478" on="0"/>
        <pt x="235" y="508" on="0"/>
        <pt x="279" y="508" on="1"/>
        <pt x="299" y="508" on="0"/>
        <pt x="331" y="502" on="0"/>
        <pt x="347" y="496" on="1"/>
        <pt x="530" y="496" on="1"/>
        <pt x="511" y="394" on="1"/>
        <pt x="437" y="394" on="1"/>
        <pt x="442" y="383" on="0"/>
        <pt x="446" y="358" on="0"/>
        <pt x="446" y="346" on="1"/>
        <pt x="446" y="303" on="0"/>
        <pt x="414" y="233" on="0"/>
        <pt x="357" y="184" on="0"/>
        <pt x="278" y="157" on="0"/>
        <pt x="231" y="157" on="1"/>
        <pt x="202" y="157" on="0"/>
        <pt x="184" y="162" on="1"/>
        <pt x="176" y="157" on="0"/>
        <pt x="162" y="136" on="0"/>
        <pt x="162" y="125" on="1"/>
        <pt x="162" y="116" on="0"/>
        <pt x="168" y="102" on="0"/>
        <pt x="185" y="93" on="0"/>
        <pt x="217" y="86" on="0"/>
        <pt x="243" y="83" on="1"/>
        <pt x="297" y="76" on="0"/>
        <pt x="369" y="56" on="0"/>
        <pt x="411" y="27" on="0"/>
        <pt x="428" y="-10" on="0"/>
        <pt x="428" y="-34" on="1"/>
        <pt x="428" y="-79" on="0"/>
        <pt x="383" y="-145" on="0"/>
        <pt x="309" y="-189" on="0"/>
        <pt x="217" y="-211" on="0"/>
        <pt x="171" y="-211" on="1"/>
        <pt x="142" y="-211" on="0"/>
        <pt x="73" y="-202" on="0"/>
        <pt x="14" y="-177" on="0"/>
        <pt x="-26" y="-131" on="0"/>
        <pt x="-26" y="-93" on="1"/>
        <pt x="-26" y="-50" on="0"/>
        <pt x="35" y="7" on="0"/>
        <pt x="78" y="26" on="1"/>
        <pt x="78" y="29" on="1"/>
        <pt x="65" y="41" on="0"/>
        <pt x="50" y="75" on="0"/>
        <pt x="50" y="96" on="1"/>
        <pt x="50" y="126" on="0"/>
        <pt x="89" y="176" on="0"/>
        <pt x="120" y="192" on="1"/>
        <pt x="120" y="196" on="1"/>
        <pt x="95" y="218" on="0"/>
        <pt x="65" y="273" on="0"/>
      </contour>
      <contour>
        <pt x="144" y="-6" on="1"/>
        <pt x="125" y="-17" on="0"/>
        <pt x="91" y="-49" on="0"/>
        <pt x="91" y="-69" on="1"/>
        <pt x="91" y="-126" on="0"/>
        <pt x="184" y="-126" on="1"/>
        <pt x="232" y="-126" on="0"/>
        <pt x="293" y="-94" on="0"/>
        <pt x="293" y="-68" on="1"/>
        <pt x="293" y="-44" on="0"/>
        <pt x="240" y="-23" on="0"/>
        <pt x="202" y="-18" on="1"/>
        <pt x="191" y="-16" on="0"/>
        <pt x="161" y="-11" on="0"/>
      </contour>
      <contour>
        <pt x="275" y="415" on="1"/>
        <pt x="256" y="415" on="0"/>
        <pt x="225" y="396" on="0"/>
        <pt x="203" y="366" on="0"/>
        <pt x="191" y="327" on="0"/>
        <pt x="191" y="308" on="1"/>
        <pt x="191" y="276" on="0"/>
        <pt x="220" y="241" on="0"/>
        <pt x="245" y="241" on="1"/>
        <pt x="264" y="241" on="0"/>
        <pt x="295" y="259" on="0"/>
        <pt x="318" y="289" on="0"/>
        <pt x="330" y="327" on="0"/>
        <pt x="330" y="347" on="1"/>
        <pt x="330" y="379" on="0"/>
        <pt x="300" y="415" on="0"/>
      </contour>
    </TTGlyph>
    <TTGlyph name="g.supa" xMin="16" yMin="122" xMax="390" yMax="598">
      <contour>
        <pt x="77" y="467" on="1"/>
        <pt x="77" y="495" on="0"/>
        <pt x="100" y="543" on="0"/>
        <pt x="139" y="578" on="0"/>
        <pt x="191" y="598" on="0"/>
        <pt x="220" y="598" on="1"/>
        <pt x="245" y="598" on="0"/>
        <pt x="267" y="590" on="1"/>
        <pt x="390" y="590" on="1"/>
        <pt x="377" y="519" on="1"/>
        <pt x="330" y="519" on="1"/>
        <pt x="334" y="506" on="0"/>
        <pt x="334" y="489" on="1"/>
        <pt x="334" y="433" on="0"/>
        <pt x="254" y="365" on="0"/>
        <pt x="190" y="365" on="1"/>
        <pt x="181" y="365" on="0"/>
        <pt x="164" y="366" on="0"/>
        <pt x="159" y="368" on="1"/>
        <pt x="154" y="364" on="0"/>
        <pt x="144" y="353" on="0"/>
        <pt x="144" y="345" on="1"/>
        <pt x="144" y="333" on="0"/>
        <pt x="163" y="322" on="0"/>
        <pt x="198" y="317" on="1"/>
        <pt x="235" y="312" on="0"/>
        <pt x="284" y="299" on="0"/>
        <pt x="312" y="280" on="0"/>
        <pt x="324" y="255" on="0"/>
        <pt x="324" y="239" on="1"/>
        <pt x="324" y="209" on="0"/>
        <pt x="292" y="165" on="0"/>
        <pt x="240" y="136" on="0"/>
        <pt x="175" y="122" on="0"/>
        <pt x="143" y="122" on="1"/>
        <pt x="125" y="122" on="0"/>
        <pt x="81" y="127" on="0"/>
        <pt x="42" y="144" on="0"/>
        <pt x="16" y="174" on="0"/>
        <pt x="16" y="200" on="1"/>
        <pt x="16" y="228" on="0"/>
        <pt x="56" y="265" on="0"/>
        <pt x="85" y="277" on="1"/>
        <pt x="85" y="280" on="1"/>
        <pt x="67" y="296" on="0"/>
        <pt x="67" y="324" on="1"/>
        <pt x="67" y="344" on="0"/>
        <pt x="93" y="377" on="0"/>
        <pt x="113" y="388" on="1"/>
        <pt x="113" y="391" on="1"/>
        <pt x="96" y="406" on="0"/>
        <pt x="77" y="443" on="0"/>
      </contour>
      <contour>
        <pt x="131" y="256" on="1"/>
        <pt x="119" y="248" on="0"/>
        <pt x="98" y="229" on="0"/>
        <pt x="98" y="217" on="1"/>
        <pt x="98" y="182" on="0"/>
        <pt x="153" y="182" on="1"/>
        <pt x="186" y="182" on="0"/>
        <pt x="229" y="200" on="0"/>
        <pt x="229" y="216" on="1"/>
        <pt x="229" y="232" on="0"/>
        <pt x="195" y="245" on="0"/>
        <pt x="170" y="248" on="1"/>
        <pt x="162" y="249" on="0"/>
        <pt x="144" y="253" on="0"/>
      </contour>
      <contour>
        <pt x="218" y="533" on="1"/>
        <pt x="194" y="533" on="0"/>
        <pt x="165" y="491" on="0"/>
        <pt x="165" y="466" on="1"/>
        <pt x="165" y="423" on="0"/>
        <pt x="199" y="423" on="1"/>
        <pt x="224" y="423" on="0"/>
        <pt x="253" y="465" on="0"/>
        <pt x="253" y="490" on="1"/>
        <pt x="253" y="533" on="0"/>
      </contour>
    </TTGlyph>
    <TTGlyph name="g.sups" xMin="26" yMin="114" xMax="396" yMax="599">
      <contour>
        <pt x="396" y="591" on="1"/>
        <pt x="330" y="261" on="1"/>
        <pt x="315" y="186" on="0"/>
        <pt x="225" y="114" on="0"/>
        <pt x="156" y="114" on="1"/>
        <pt x="127" y="114" on="0"/>
        <pt x="58" y="135" on="0"/>
        <pt x="26" y="159" on="1"/>
        <pt x="65" y="223" on="1"/>
        <pt x="86" y="209" on="0"/>
        <pt x="134" y="189" on="0"/>
        <pt x="159" y="189" on="1"/>
        <pt x="187" y="189" on="0"/>
        <pt x="227" y="224" on="0"/>
        <pt x="238" y="256" on="1"/>
        <pt x="253" y="304" on="1"/>
        <pt x="249" y="304" on="1"/>
        <pt x="226" y="287" on="0"/>
        <pt x="177" y="267" on="0"/>
        <pt x="150" y="267" on="1"/>
        <pt x="105" y="267" on="0"/>
        <pt x="56" y="326" on="0"/>
        <pt x="56" y="382" on="1"/>
        <pt x="56" y="427" on="0"/>
        <pt x="85" y="506" on="0"/>
        <pt x="133" y="565" on="0"/>
        <pt x="197" y="599" on="0"/>
        <pt x="232" y="599" on="1"/>
        <pt x="253" y="599" on="0"/>
        <pt x="289" y="576" on="0"/>
        <pt x="299" y="556" on="1"/>
        <pt x="303" y="556" on="1"/>
        <pt x="318" y="591" on="1"/>
      </contour>
      <contour>
        <pt x="190" y="344" on="1"/>
        <pt x="207" y="344" on="0"/>
        <pt x="242" y="359" on="0"/>
        <pt x="257" y="379" on="1"/>
        <pt x="278" y="491" on="1"/>
        <pt x="270" y="507" on="0"/>
        <pt x="249" y="521" on="0"/>
        <pt x="238" y="521" on="1"/>
        <pt x="221" y="521" on="0"/>
        <pt x="191" y="501" on="0"/>
        <pt x="169" y="467" on="0"/>
        <pt x="155" y="421" on="0"/>
        <pt x="155" y="394" on="1"/>
        <pt x="155" y="368" on="0"/>
        <pt x="174" y="344" on="0"/>
      </contour>
    </TTGlyph>
    <TTGlyph name="gbreve" xMin="-12" yMin="-213" xMax="531" yMax="711">
      <component glyphName="g" x="0" y="0" flags="0x204"/>
      <component glyphName="uni0306" x="210" y="0" flags="0x4"/>
    </TTGlyph>
    <TTGlyph name="gbreve.a" xMin="-26" yMin="-211" xMax="530" yMax="711">
      <component glyphName="g.a" x="0" y="0" flags="0x204"/>
      <component glyphName="uni0306" x="179" y="0" flags="0x4"/>
    </TTGlyph>
    <TTGlyph name="gcaron" xMin="-12" yMin="-213" xMax="531" yMax="722">
      <component glyphName="g" x="0" y="0" flags="0x204"/>
      <component glyphName="uni030C" x="210" y="0" flags="0x4"/>
    </TTGlyph>
    <TTGlyph name="gcaron.a" xMin="-26" yMin="-211" xMax="530" yMax="722">
      <component glyphName="g.a" x="0" y="0" flags="0x204"/>
      <component glyphName="uni030C" x="179" y="0" flags="0x4"/>
    </TTGlyph>
    <TTGlyph name="gcircumflex" xMin="-12" yMin="-213" xMax="531" yMax="722">
      <component glyphName="g" x="0" y="0" flags="0x204"/>
      <component glyphName="uni0302" x="210" y="0" flags="0x4"/>
    </TTGlyph>
    <TTGlyph name="gcircumflex.a" xMin="-26" yMin="-211" xMax="530" yMax="722">
      <component glyphName="g.a" x="0" y="0" flags="0x204"/>
      <component glyphName="uni0302" x="179" y="0" flags="0x4"/>
    </TTGlyph>
    <TTGlyph name="gdotaccent" xMin="-12" yMin="-213" xMax="531" yMax="717">
      <component glyphName="g" x="0" y="0" flags="0x204"/>
      <component glyphName="uni0307" x="210" y="0" flags="0x4"/>
    </TTGlyph>
    <TTGlyph name="gdotaccent.a" xMin="-26" yMin="-211" xMax="530" yMax="717">
      <component glyphName="g.a" x="0" y="0" flags="0x204"/>
      <component glyphName="uni0307" x="179" y="0" flags="0x4"/>
    </TTGlyph>
    <TTGlyph name="germandbls" xMin="14" yMin="-12" xMax="561" yMax="713">
      <contour>
        <pt x="116" y="505" on="1"/>
        <pt x="125" y="549" on="0"/>
        <pt x="165" y="625" on="0"/>
        <pt x="226" y="681" on="0"/>
        <pt x="308" y="713" on="0"/>
        <pt x="359" y="713" on="1"/>
        <pt x="394" y="713" on="0"/>
        <pt x="461" y="695" on="0"/>
        <pt x="513" y="659" on="0"/>
        <pt x="545" y="602" on="0"/>
        <pt x="545" y="563" on="1"/>
        <pt x="545" y="535" on="0"/>
        <pt x="528" y="492" on="0"/>
        <pt x="503" y="458" on="0"/>
        <pt x="473" y="431" on="0"/>
        <pt x="448" y="405" on="0"/>
        <pt x="431" y="380" on="0"/>
        <pt x="431" y="365" on="1"/>
        <pt x="431" y="350" on="0"/>
        <pt x="450" y="325" on="0"/>
        <pt x="479" y="300" on="0"/>
        <pt x="513" y="272" on="0"/>
        <pt x="542" y="236" on="0"/>
        <pt x="561" y="192" on="0"/>
        <pt x="561" y="163" on="1"/>
        <pt x="561" y="126" on="0"/>
        <pt x="532" y="62" on="0"/>
        <pt x="482" y="15" on="0"/>
        <pt x="413" y="-12" on="0"/>
        <pt x="374" y="-12" on="1"/>
        <pt x="336" y="-12" on="0"/>
        <pt x="261" y="9" on="0"/>
        <pt x="227" y="32" on="1"/>
        <pt x="283" y="123" on="1"/>
        <pt x="303" y="109" on="0"/>
        <pt x="347" y="90" on="0"/>
        <pt x="373" y="90" on="1"/>
        <pt x="400" y="90" on="0"/>
        <pt x="434" y="123" on="0"/>
        <pt x="434" y="149" on="1"/>
        <pt x="434" y="166" on="0"/>
        <pt x="414" y="193" on="0"/>
        <pt x="384" y="219" on="0"/>
        <pt x="348" y="245" on="0"/>
        <pt x="318" y="277" on="0"/>
        <pt x="298" y="315" on="0"/>
        <pt x="298" y="341" on="1"/>
        <pt x="298" y="375" on="0"/>
        <pt x="334" y="422" on="0"/>
        <pt x="377" y="465" on="0"/>
        <pt x="413" y="510" on="0"/>
        <pt x="413" y="543" on="1"/>
        <pt x="413" y="572" on="0"/>
        <pt x="386" y="604" on="0"/>
        <pt x="354" y="604" on="1"/>
        <pt x="333" y="604" on="0"/>
        <pt x="299" y="584" on="0"/>
        <pt x="272" y="550" on="0"/>
        <pt x="253" y="505" on="0"/>
        <pt x="247" y="479" on="1"/>
        <pt x="151" y="0" on="1"/>
        <pt x="14" y="0" on="1"/>
      </contour>
    </TTGlyph>
    <TTGlyph name="grave" xMin="222" yMin="573" xMax="405" yMax="722">
      <component glyphName="uni0300" x="219" y="0" flags="0x4"/>
    </TTGlyph>
    <TTGlyph name="greater" xMin="48" yMin="108" xMax="487" yMax="553">
      <contour>
        <pt x="48" y="222" on="1"/>
        <pt x="219" y="283" on="1"/>
        <pt x="347" y="330" on="1"/>
        <pt x="347" y="334" on="1"/>
        <pt x="219" y="380" on="1"/>
        <pt x="48" y="441" on="1"/>
        <pt x="48" y="553" on="1"/>
        <pt x="487" y="379" on="1"/>
        <pt x="487" y="283" on="1"/>
        <pt x="48" y="108" on="1"/>
      </contour>
    </TTGlyph>
    <TTGlyph name="greaterequal" xMin="48" yMin="0" xMax="487" yMax="553">
      <contour>
        <pt x="48" y="0" on="1"/>
        <pt x="48" y="97" on="1"/>
        <pt x="485" y="97" on="1"/>
        <pt x="485" y="0" on="1"/>
      </contour>
      <contour>
        <pt x="48" y="266" on="1"/>
        <pt x="217" y="316" on="1"/>
        <pt x="349" y="351" on="1"/>
        <pt x="349" y="355" on="1"/>
        <pt x="217" y="390" on="1"/>
        <pt x="48" y="441" on="1"/>
        <pt x="48" y="553" on="1"/>
        <pt x="487" y="410" on="1"/>
        <pt x="487" y="298" on="1"/>
        <pt x="48" y="153" on="1"/>
      </contour>
    </TTGlyph>
    <TTGlyph name="guillemotleft" xMin="40" yMin="58" xMax="441" yMax="444">
      <component glyphName="guilsinglleft" x="0" y="0" flags="0x4"/>
      <component glyphName="guilsinglleft" x="188" y="0" flags="0x4"/>
    </TTGlyph>
    <TTGlyph name="guillemotright" xMin="27" yMin="58" xMax="428" yMax="444">
      <component glyphName="guilsinglright" x="0" y="0" flags="0x4"/>
      <component glyphName="guilsinglright" x="188" y="0" flags="0x4"/>
    </TTGlyph>
    <TTGlyph name="guilsinglleft" xMin="40" yMin="58" xMax="253" yMax="444">
      <contour>
        <pt x="40" y="207" on="1"/>
        <pt x="58" y="305" on="1"/>
        <pt x="211" y="444" on="1"/>
        <pt x="253" y="399" on="1"/>
        <pt x="120" y="247" on="1"/>
        <pt x="198" y="93" on="1"/>
        <pt x="144" y="58" on="1"/>
      </contour>
    </TTGlyph>
    <TTGlyph name="guilsinglright" xMin="27" yMin="58" xMax="240" yMax="444">
      <contour>
        <pt x="240" y="295" on="1"/>
        <pt x="222" y="197" on="1"/>
        <pt x="69" y="58" on="1"/>
        <pt x="27" y="103" on="1"/>
        <pt x="160" y="255" on="1"/>
        <pt x="81" y="409" on="1"/>
        <pt x="136" y="444" on="1"/>
      </contour>
    </TTGlyph>
    <TTGlyph name="h" xMin="14" yMin="0" xMax="510" yMax="701">
      <contour>
        <pt x="155" y="701" on="1"/>
        <pt x="292" y="701" on="1"/>
        <pt x="254" y="518" on="1"/>
        <pt x="232" y="438" on="1"/>
        <pt x="236" y="438" on="1"/>
        <pt x="269" y="467" on="0"/>
        <pt x="347" y="508" on="0"/>
        <pt x="392" y="508" on="1"/>
        <pt x="454" y="508" on="0"/>
        <pt x="510" y="443" on="0"/>
        <pt x="510" y="381" on="1"/>
        <pt x="510" y="364" on="0"/>
        <pt x="507" y="329" on="0"/>
        <pt x="502" y="310" on="1"/>
        <pt x="440" y="0" on="1"/>
        <pt x="303" y="0" on="1"/>
        <pt x="362" y="293" on="1"/>
        <pt x="365" y="308" on="0"/>
        <pt x="370" y="330" on="0"/>
        <pt x="370" y="340" on="1"/>
        <pt x="370" y="391" on="0"/>
        <pt x="319" y="391" on="1"/>
        <pt x="296" y="391" on="0"/>
        <pt x="247" y="360" on="0"/>
        <pt x="215" y="327" on="1"/>
        <pt x="151" y="0" on="1"/>
        <pt x="14" y="0" on="1"/>
      </contour>
    </TTGlyph>
    <TTGlyph name="h.sups" xMin="43" yMin="262" xMax="380" yMax="724">
      <contour>
        <pt x="135" y="724" on="1"/>
        <pt x="232" y="724" on="1"/>
        <pt x="212" y="622" on="1"/>
        <pt x="193" y="553" on="1"/>
        <pt x="197" y="553" on="1"/>
        <pt x="218" y="571" on="0"/>
        <pt x="270" y="599" on="0"/>
        <pt x="300" y="599" on="1"/>
        <pt x="342" y="599" on="0"/>
        <pt x="380" y="554" on="0"/>
        <pt x="380" y="512" on="1"/>
        <pt x="380" y="501" on="0"/>
        <pt x="376" y="477" on="0"/>
        <pt x="374" y="467" on="1"/>
        <pt x="333" y="262" on="1"/>
        <pt x="236" y="262" on="1"/>
        <pt x="274" y="454" on="1"/>
        <pt x="280" y="475" on="0"/>
        <pt x="280" y="484" on="1"/>
        <pt x="280" y="517" on="0"/>
        <pt x="249" y="517" on="1"/>
        <pt x="220" y="517" on="0"/>
        <pt x="182" y="475" on="1"/>
        <pt x="140" y="262" on="1"/>
        <pt x="43" y="262" on="1"/>
      </contour>
    </TTGlyph>
    <TTGlyph name="hbar" xMin="14" yMin="0" xMax="506" yMax="701">
      <contour>
        <pt x="232" y="418" on="1"/>
        <pt x="265" y="447" on="0"/>
        <pt x="343" y="488" on="0"/>
        <pt x="388" y="488" on="1"/>
        <pt x="450" y="488" on="0"/>
        <pt x="506" y="423" on="0"/>
        <pt x="506" y="361" on="1"/>
        <pt x="506" y="344" on="0"/>
        <pt x="503" y="309" on="0"/>
        <pt x="498" y="290" on="1"/>
        <pt x="440" y="0" on="1"/>
        <pt x="303" y="0" on="1"/>
        <pt x="358" y="273" on="1"/>
        <pt x="361" y="288" on="0"/>
        <pt x="366" y="310" on="0"/>
        <pt x="366" y="320" on="1"/>
        <pt x="366" y="371" on="0"/>
        <pt x="315" y="371" on="1"/>
        <pt x="292" y="371" on="0"/>
        <pt x="243" y="340" on="0"/>
        <pt x="211" y="307" on="1"/>
        <pt x="151" y="0" on="1"/>
        <pt x="14" y="0" on="1"/>
        <pt x="126" y="558" on="1"/>
        <pt x="58" y="558" on="1"/>
        <pt x="71" y="619" on="1"/>
        <pt x="140" y="625" on="1"/>
        <pt x="155" y="701" on="1"/>
        <pt x="292" y="701" on="1"/>
        <pt x="276" y="625" on="1"/>
        <pt x="438" y="625" on="1"/>
        <pt x="423" y="558" on="1"/>
        <pt x="262" y="558" on="1"/>
        <pt x="250" y="498" on="1"/>
        <pt x="228" y="418" on="1"/>
      </contour>
    </TTGlyph>
    <TTGlyph name="hcircumflex" xMin="14" yMin="0" xMax="510" yMax="873">
      <component glyphName="h" x="0" y="0" flags="0x204"/>
      <component glyphName="uni0302.cap" x="109" y="53" flags="0x4"/>
    </TTGlyph>
    <TTGlyph name="hungarumlaut" xMin="208" yMin="573" xMax="583" yMax="722">
      <component glyphName="uni030B" x="219" y="0" flags="0x4"/>
    </TTGlyph>
    <TTGlyph name="hyphen" xMin="33" yMin="205" xMax="288" yMax="302">
      <contour>
        <pt x="54" y="302" on="1"/>
        <pt x="288" y="302" on="1"/>
        <pt x="267" y="205" on="1"/>
        <pt x="33" y="205" on="1"/>
      </contour>
    </TTGlyph>
    <TTGlyph name="i" xMin="14" yMin="0" xMax="293" yMax="717">
      <contour>
        <pt x="114" y="496" on="1"/>
        <pt x="250" y="496" on="1"/>
        <pt x="151" y="0" on="1"/>
        <pt x="14" y="0" on="1"/>
      </contour>
      <contour>
        <pt x="208" y="570" on="1"/>
        <pt x="180" y="570" on="0"/>
        <pt x="134" y="603" on="0"/>
        <pt x="134" y="636" on="1"/>
        <pt x="134" y="652" on="0"/>
        <pt x="147" y="682" on="0"/>
        <pt x="170" y="704" on="0"/>
        <pt x="201" y="717" on="0"/>
        <pt x="219" y="717" on="1"/>
        <pt x="248" y="717" on="0"/>
        <pt x="293" y="683" on="0"/>
        <pt x="293" y="651" on="1"/>
        <pt x="293" y="616" on="0"/>
        <pt x="244" y="570" on="0"/>
      </contour>
    </TTGlyph>
    <TTGlyph name="i.sups" xMin="43" yMin="262" xMax="232" yMax="737">
      <contour>
        <pt x="108" y="591" on="1"/>
        <pt x="205" y="591" on="1"/>
        <pt x="140" y="262" on="1"/>
        <pt x="43" y="262" on="1"/>
      </contour>
      <contour>
        <pt x="173" y="637" on="1"/>
        <pt x="153" y="637" on="0"/>
        <pt x="121" y="660" on="0"/>
        <pt x="121" y="683" on="1"/>
        <pt x="121" y="705" on="0"/>
        <pt x="156" y="737" on="0"/>
        <pt x="180" y="737" on="1"/>
        <pt x="200" y="737" on="0"/>
        <pt x="232" y="715" on="0"/>
        <pt x="232" y="692" on="1"/>
        <pt x="232" y="670" on="0"/>
        <pt x="197" y="637" on="0"/>
      </contour>
    </TTGlyph>
    <TTGlyph name="iacute" xMin="14" yMin="0" xMax="363" yMax="722">
      <component glyphName="dotlessi" x="0" y="0" flags="0x204"/>
      <component glyphName="uni0301" x="80" y="0" flags="0x4"/>
    </TTGlyph>
    <TTGlyph name="icircumflex" xMin="14" yMin="0" xMax="339" yMax="722">
      <component glyphName="dotlessi" x="0" y="0" flags="0x204"/>
      <component glyphName="uni0302" x="80" y="0" flags="0x4"/>
    </TTGlyph>
    <TTGlyph name="idieresis" xMin="14" yMin="0" xMax="367" yMax="706">
      <component glyphName="dotlessi" x="0" y="0" flags="0x204"/>
      <component glyphName="uni0308" x="80" y="0" flags="0x4"/>
    </TTGlyph>
    <TTGlyph name="igrave" xMin="14" yMin="0" xMax="266" yMax="722">
      <component glyphName="dotlessi" x="0" y="0" flags="0x204"/>
      <component glyphName="uni0300" x="80" y="0" flags="0x4"/>
    </TTGlyph>
    <TTGlyph name="imacron" xMin="14" yMin="0" xMax="345" yMax="680">
      <component glyphName="dotlessi" x="0" y="0" flags="0x204"/>
      <component glyphName="uni0304" x="80" y="0" flags="0x4"/>
    </TTGlyph>
    <TTGlyph name="infinity" xMin="43" yMin="119" xMax="753" yMax="533">
      <contour>
        <pt x="207" y="142" on="1"/>
        <pt x="169" y="142" on="0"/>
        <pt x="109" y="171" on="0"/>
        <pt x="66" y="220" on="0"/>
        <pt x="43" y="288" on="0"/>
        <pt x="43" y="327" on="1"/>
        <pt x="43" y="367" on="0"/>
        <pt x="67" y="437" on="0"/>
        <pt x="112" y="488" on="0"/>
        <pt x="176" y="518" on="0"/>
        <pt x="215" y="518" on="1"/>
        <pt x="245" y="518" on="0"/>
        <pt x="295" y="502" on="0"/>
        <pt x="336" y="475" on="0"/>
        <pt x="369" y="442" on="0"/>
        <pt x="383" y="424" on="1"/>
        <pt x="387" y="424" on="1"/>
        <pt x="423" y="475" on="0"/>
        <pt x="507" y="533" on="0"/>
        <pt x="563" y="533" on="1"/>
        <pt x="603" y="533" on="0"/>
        <pt x="672" y="505" on="0"/>
        <pt x="723" y="452" on="0"/>
        <pt x="753" y="377" on="0"/>
        <pt x="753" y="330" on="1"/>
        <pt x="753" y="284" on="0"/>
        <pt x="723" y="207" on="0"/>
        <pt x="672" y="151" on="0"/>
        <pt x="602" y="119" on="0"/>
        <pt x="563" y="119" on="1"/>
        <pt x="503" y="119" on="0"/>
        <pt x="410" y="175" on="0"/>
        <pt x="365" y="236" on="1"/>
        <pt x="361" y="236" on="1"/>
        <pt x="349" y="219" on="0"/>
        <pt x="317" y="186" on="0"/>
        <pt x="278" y="159" on="0"/>
        <pt x="232" y="142" on="0"/>
      </contour>
      <contour>
        <pt x="428" y="346" on="1"/>
        <pt x="459" y="302" on="0"/>
        <pt x="522" y="244" on="0"/>
        <pt x="564" y="244" on="1"/>
        <pt x="605" y="244" on="0"/>
        <pt x="652" y="301" on="0"/>
        <pt x="652" y="342" on="1"/>
        <pt x="652" y="384" on="0"/>
        <pt x="600" y="434" on="0"/>
        <pt x="558" y="434" on="1"/>
        <pt x="524" y="434" on="0"/>
        <pt x="458" y="389" on="0"/>
      </contour>
      <contour>
        <pt x="218" y="242" on="1"/>
        <pt x="249" y="242" on="0"/>
        <pt x="299" y="282" on="0"/>
        <pt x="319" y="314" on="1"/>
        <pt x="298" y="347" on="0"/>
        <pt x="244" y="393" on="0"/>
        <pt x="215" y="393" on="1"/>
        <pt x="180" y="393" on="0"/>
        <pt x="144" y="351" on="0"/>
        <pt x="144" y="319" on="1"/>
        <pt x="144" y="288" on="0"/>
        <pt x="183" y="242" on="0"/>
      </contour>
    </TTGlyph>
    <TTGlyph name="integral" xMin="-32" yMin="-158" xMax="452" yMax="791">
      <contour>
        <pt x="-4" y="-52" on="1"/>
        <pt x="2" y="-54" on="0"/>
        <pt x="19" y="-56" on="0"/>
        <pt x="30" y="-56" on="1"/>
        <pt x="67" y="-56" on="0"/>
        <pt x="104" y="10" on="0"/>
        <pt x="118" y="83" on="1"/>
        <pt x="130" y="140" on="0"/>
        <pt x="141" y="254" on="0"/>
        <pt x="150" y="368" on="0"/>
        <pt x="161" y="485" on="0"/>
        <pt x="173" y="546" on="1"/>
        <pt x="183" y="598" on="0"/>
        <pt x="214" y="688" on="0"/>
        <pt x="264" y="754" on="0"/>
        <pt x="338" y="791" on="0"/>
        <pt x="392" y="791" on="1"/>
        <pt x="410" y="791" on="0"/>
        <pt x="443" y="787" on="0"/>
        <pt x="452" y="784" on="1"/>
        <pt x="426" y="684" on="1"/>
        <pt x="419" y="686" on="0"/>
        <pt x="399" y="688" on="0"/>
        <pt x="386" y="688" on="1"/>
        <pt x="348" y="688" on="0"/>
        <pt x="310" y="621" on="0"/>
        <pt x="296" y="549" on="1"/>
        <pt x="285" y="492" on="0"/>
        <pt x="274" y="379" on="0"/>
        <pt x="265" y="264" on="0"/>
        <pt x="253" y="147" on="0"/>
        <pt x="241" y="86" on="1"/>
        <pt x="231" y="33" on="0"/>
        <pt x="200" y="-56" on="0"/>
        <pt x="150" y="-121" on="0"/>
        <pt x="76" y="-158" on="0"/>
        <pt x="22" y="-158" on="1"/>
        <pt x="6" y="-158" on="0"/>
        <pt x="-22" y="-155" on="0"/>
        <pt x="-32" y="-150" on="1"/>
        <pt x="-4" y="-52" on="1"/>
      </contour>
    </TTGlyph>
</ttFont>
